SourceSerif-Italic_d1.ufo
<glyph name="exclam" format="2">
	<unicode hex="0021"/>
	<advance width="260"/>
	<outline>
		<contour>
			<point x="105" y="192" type="line"/>
			<point x="125" y="192" type="line"/>
			<point x="206" y="486"/>
			<point x="243" y="612"/>
			<point x="243" y="645" type="curve" smooth="yes"/>
			<point x="243" y="673"/>
			<point x="231" y="684"/>
			<point x="206" y="684" type="curve" smooth="yes"/>
			<point x="176" y="684"/>
			<point x="157" y="667"/>
			<point x="149" y="624" type="curve" smooth="yes"/>
			<point x="142" y="587"/>
			<point x="132" y="472"/>
			<point x="118" y="332" type="curve" smooth="yes"/>
		</contour>
		<contour>
			<point x="62" y="96"/>
			<point x="35" y="72"/>
			<point x="35" y="39" type="curve" smooth="yes"/>
			<point x="35" y="13"/>
			<point x="55" y="-8"/>
			<point x="83" y="-8" type="curve" smooth="yes"/>
			<point x="115" y="-8"/>
			<point x="140" y="16"/>
			<point x="140" y="49" type="curve" smooth="yes"/>
			<point x="140" y="74"/>
			<point x="121" y="96"/>
			<point x="94" y="96" type="curve" smooth="yes"/>
		</contour>
	</outline>
</glyph>
<glyph name="numbersign" format="2">
	<unicode hex="0023"/>
	<advance width="524"/>
	<outline>
		<contour>
			<point x="98" y="0" type="line"/>
			<point x="122" y="0" type="line"/>
			<point x="297" y="648" type="line"/>
			<point x="273" y="648" type="line"/>
		</contour>
		<contour>
			<point x="50" y="248" type="line"/>
			<point x="44" y="192" type="line"/>
			<point x="488" y="192" type="line"/>
			<point x="494" y="248" type="line"/>
		</contour>
		<contour>
			<point x="544" y="404" type="line"/>
			<point x="551" y="460" type="line"/>
			<point x="107" y="460" type="line"/>
			<point x="100" y="404" type="line"/>
		</contour>
		<contour>
			<point x="298" y="0" type="line"/>
			<point x="322" y="0" type="line"/>
			<point x="497" y="648" type="line"/>
			<point x="473" y="648" type="line"/>
		</contour>
	</outline>
</glyph>
<glyph name="dollar" format="2">
	<unicode hex="0024"/>
	<advance width="468"/>
	<outline>
		<contour>
			<point x="182" y="-12" type="curve" smooth="yes"/>
			<point x="316" y="-12"/>
			<point x="414" y="48"/>
			<point x="414" y="184" type="curve" smooth="yes"/>
			<point x="414" y="266"/>
			<point x="347" y="312"/>
			<point x="284" y="348" type="curve" smooth="yes"/>
			<point x="270" y="356" type="line" smooth="yes"/>
			<point x="214" y="388"/>
			<point x="160" y="425"/>
			<point x="160" y="488" type="curve" smooth="yes"/>
			<point x="160" y="601"/>
			<point x="243" y="640"/>
			<point x="306" y="640" type="curve" smooth="yes"/>
			<point x="343" y="640"/>
			<point x="387" y="635"/>
			<point x="410" y="614" type="curve"/>
			<point x="393" y="644" type="line"/>
			<point x="397" y="544" type="line" smooth="yes"/>
			<point x="398" y="508"/>
			<point x="413" y="496"/>
			<point x="434" y="496" type="curve" smooth="yes"/>
			<point x="449" y="496"/>
			<point x="460" y="504"/>
			<point x="466" y="524" type="curve"/>
			<point x="466" y="628"/>
			<point x="395" y="660"/>
			<point x="306" y="660" type="curve" smooth="yes"/>
			<point x="207" y="660"/>
			<point x="102" y="608"/>
			<point x="102" y="472" type="curve" smooth="yes"/>
			<point x="102" y="390"/>
			<point x="169" y="344"/>
			<point x="232" y="308" type="curve" smooth="yes"/>
			<point x="246" y="300" type="line" smooth="yes"/>
			<point x="302" y="268"/>
			<point x="356" y="231"/>
			<point x="356" y="168" type="curve" smooth="yes"/>
			<point x="356" y="70"/>
			<point x="280" y="8"/>
			<point x="186" y="8" type="curve" smooth="yes"/>
			<point x="146" y="8"/>
			<point x="109" y="14"/>
			<point x="74" y="46" type="curve"/>
			<point x="92" y="16" type="line"/>
			<point x="88" y="120" type="line" smooth="yes"/>
			<point x="87" y="156"/>
			<point x="73" y="168"/>
			<point x="52" y="168" type="curve" smooth="yes"/>
			<point x="37" y="168"/>
			<point x="24" y="160"/>
			<point x="18" y="140" type="curve"/>
			<point x="18" y="32"/>
			<point x="92" y="-12"/>
		</contour>
		<contour>
			<point x="154" y="-116" type="line"/>
			<point x="178" y="-116" type="line"/>
			<point x="267" y="320" type="line"/>
			<point x="243" y="320" type="line"/>
		</contour>
		<contour>
			<point x="243" y="320" type="line"/>
			<point x="267" y="320" type="line"/>
			<point x="354" y="748" type="line"/>
			<point x="330" y="748" type="line"/>
		</contour>
	</outline>
</glyph>
<glyph name="ampersand" format="2">
	<unicode hex="0026"/>
	<advance width="636"/>
	<outline>
		<contour>
			<point x="296" y="-16" type="curve" smooth="yes"/>
			<point x="429" y="-16"/>
			<point x="512" y="61"/>
			<point x="512" y="168" type="curve" smooth="yes"/>
			<point x="512" y="218"/>
			<point x="478" y="276"/>
			<point x="410" y="286" type="curve"/>
			<point x="412" y="276" type="line"/>
			<point x="541" y="286"/>
			<point x="612" y="336"/>
			<point x="664" y="465" type="curve"/>
			<point x="612" y="488" type="line"/>
			<point x="566" y="362"/>
			<point x="503" y="298"/>
			<point x="368" y="296" type="curve"/>
			<point x="364" y="272" type="line"/>
			<point x="438" y="267"/>
			<point x="472" y="223"/>
			<point x="472" y="164" type="curve" smooth="yes"/>
			<point x="472" y="90"/>
			<point x="402" y="36"/>
			<point x="304" y="36" type="curve" smooth="yes"/>
			<point x="211" y="36"/>
			<point x="116" y="84"/>
			<point x="116" y="212" type="curve" smooth="yes"/>
			<point x="116" y="298"/>
			<point x="160" y="378"/>
			<point x="280" y="408" type="curve"/>
			<point x="246" y="439"/>
			<point x="233" y="477"/>
			<point x="233" y="516" type="curve" smooth="yes"/>
			<point x="233" y="590"/>
			<point x="287" y="662"/>
			<point x="380" y="662" type="curve" smooth="yes"/>
			<point x="405" y="662"/>
			<point x="429" y="652"/>
			<point x="452" y="642" type="curve"/>
			<point x="396" y="672" type="line"/>
			<point x="430" y="612" type="line" smooth="yes"/>
			<point x="446" y="584"/>
			<point x="459" y="568"/>
			<point x="480" y="568" type="curve" smooth="yes"/>
			<point x="503" y="568"/>
			<point x="513" y="582"/>
			<point x="516" y="600" type="curve"/>
			<point x="503" y="658"/>
			<point x="442" y="684"/>
			<point x="384" y="684" type="curve" smooth="yes"/>
			<point x="246" y="684"/>
			<point x="184" y="592"/>
			<point x="184" y="504" type="curve" smooth="yes"/>
			<point x="184" y="423"/>
			<point x="251" y="352"/>
			<point x="308" y="352" type="curve" smooth="yes"/>
			<point x="342" y="352"/>
			<point x="360" y="364"/>
			<point x="360" y="388" type="curve" smooth="yes"/>
			<point x="360" y="415"/>
			<point x="327" y="428"/>
			<point x="288" y="428" type="curve" smooth="yes"/>
			<point x="149" y="428"/>
			<point x="56" y="314"/>
			<point x="56" y="200" type="curve" smooth="yes"/>
			<point x="56" y="63"/>
			<point x="154" y="-16"/>
		</contour>
	</outline>
</glyph>
<glyph name="quotesingle" format="2">
	<unicode hex="0027"/>
	<advance width="180"/>
	<outline>
		<contour>
			<point x="186" y="736" type="curve" smooth="yes"/>
			<point x="162" y="736"/>
			<point x="148" y="724"/>
			<point x="141" y="688" type="curve" smooth="yes"/>
			<point x="133" y="649"/>
			<point x="128" y="533"/>
			<point x="126" y="500" type="curve" smooth="yes"/>
			<point x="122" y="432" type="line"/>
			<point x="138" y="432" type="line"/>
			<point x="176" y="556"/>
			<point x="215" y="676"/>
			<point x="215" y="705" type="curve" smooth="yes"/>
			<point x="215" y="725"/>
			<point x="205" y="736"/>
		</contour>
	</outline>
</glyph>
<glyph name="parenleft" format="2">
	<unicode hex="0028"/>
	<advance width="316"/>
	<outline>
		<contour>
			<point x="189" y="-196" type="curve"/>
			<point x="203" y="-188" type="line"/>
			<point x="156" y="-92"/>
			<point x="130" y="10"/>
			<point x="130" y="148" type="curve" smooth="yes"/>
			<point x="130" y="357"/>
			<point x="225" y="565"/>
			<point x="375" y="739" type="curve"/>
			<point x="363" y="749" type="line"/>
			<point x="178" y="582"/>
			<point x="73" y="372"/>
			<point x="73" y="152" type="curve" smooth="yes"/>
			<point x="73" y="25"/>
			<point x="112" y="-93"/>
		</contour>
	</outline>
</glyph>
<glyph name="asterisk" format="2">
	<unicode hex="002A"/>
	<advance width="418"/>
	<outline>
		<contour>
			<point x="227" y="745"/>
			<point x="216" y="735"/>
			<point x="216" y="718" type="curve" smooth="yes"/>
			<point x="216" y="705"/>
			<point x="232" y="661"/>
			<point x="276" y="547" type="curve"/>
			<point x="284" y="547" type="line"/>
			<point x="278" y="661"/>
			<point x="277" y="708"/>
			<point x="267" y="729" type="curve" smooth="yes"/>
			<point x="263" y="740"/>
			<point x="256" y="745"/>
			<point x="246" y="745" type="curve" smooth="yes"/>
		</contour>
		<contour>
			<point x="99" y="601"/>
			<point x="86" y="589"/>
			<point x="86" y="573" type="curve" smooth="yes"/>
			<point x="86" y="533"/>
			<point x="129" y="544"/>
			<point x="288" y="551" type="curve"/>
			<point x="290" y="560" type="line"/>
			<point x="169" y="589"/>
			<point x="132" y="601"/>
			<point x="113" y="601" type="curve" smooth="yes"/>
		</contour>
		<contour>
			<point x="207" y="455"/>
			<point x="182" y="425"/>
			<point x="182" y="404" type="curve" smooth="yes"/>
			<point x="182" y="387"/>
			<point x="196" y="377"/>
			<point x="211" y="377" type="curve" smooth="yes"/>
			<point x="241" y="377"/>
			<point x="244" y="414"/>
			<point x="286" y="564" type="curve"/>
			<point x="278" y="567" type="line"/>
		</contour>
		<contour>
			<point x="267" y="561" type="line"/>
			<point x="358" y="451"/>
			<point x="378" y="417"/>
			<point x="401" y="417" type="curve" smooth="yes"/>
			<point x="416" y="417"/>
			<point x="429" y="430"/>
			<point x="429" y="444" type="curve" smooth="yes"/>
			<point x="429" y="469"/>
			<point x="395" y="484"/>
			<point x="274" y="566" type="curve"/>
		</contour>
		<contour>
			<point x="449" y="655"/>
			<point x="434" y="666"/>
			<point x="422" y="666" type="curve" smooth="yes"/>
			<point x="404" y="666"/>
			<point x="377" y="642"/>
			<point x="266" y="555" type="curve"/>
			<point x="271" y="547" type="line"/>
			<point x="409" y="600"/>
			<point x="448" y="610"/>
			<point x="449" y="636" type="curve" smooth="yes"/>
		</contour>
	</outline>
</glyph>
<glyph name="plus" format="2">
	<unicode hex="002B"/>
	<advance width="500"/>
	<outline>
		<contour>
			<point x="254" y="88" type="line"/>
			<point x="288" y="88" type="line"/>
			<point x="288" y="568" type="line"/>
			<point x="254" y="568" type="line"/>
		</contour>
		<contour>
			<point x="491" y="315" type="line"/>
			<point x="491" y="348" type="line"/>
			<point x="51" y="348" type="line"/>
			<point x="51" y="315" type="line"/>
		</contour>
	</outline>
</glyph>
<glyph name="comma" format="2">
	<unicode hex="002C"/>
	<advance width="252"/>
	<outline>
		<contour>
			<point x="-4" y="-146" type="line"/>
			<point x="81" y="-111"/>
			<point x="151" y="-33"/>
			<point x="151" y="50" type="curve" smooth="yes"/>
			<point x="151" y="66"/>
			<point x="147" y="76"/>
			<point x="141" y="86" type="curve"/>
			<point x="129" y="92"/>
			<point x="118" y="96"/>
			<point x="105" y="96" type="curve" smooth="yes"/>
			<point x="66" y="96"/>
			<point x="52" y="68"/>
			<point x="52" y="42" type="curve" smooth="yes"/>
			<point x="52" y="29"/>
			<point x="58" y="8"/>
			<point x="80" y="-11" type="curve" smooth="yes"/>
			<point x="104" y="-32" type="line"/>
			<point x="102" y="-22" type="line"/>
			<point x="83" y="-65"/>
			<point x="35" y="-110"/>
			<point x="-11" y="-133" type="curve"/>
		</contour>
	</outline>
</glyph>
<glyph name="hyphen" format="2">
	<unicode hex="002D"/>
	<unicode hex="00AD"/>
	<unicode hex="2010"/>
	<advance width="288"/>
	<outline>
		<contour>
			<point x="52" y="214" type="line"/>
			<point x="268" y="214" type="line"/>
			<point x="268" y="248" type="line"/>
			<point x="52" y="248" type="line"/>
		</contour>
	</outline>
</glyph>
<glyph name="period" format="2">
	<unicode hex="002E"/>
	<advance width="252"/>
	<outline>
		<contour>
			<point x="80" y="-8" type="curve" smooth="yes"/>
			<point x="112" y="-8"/>
			<point x="137" y="16"/>
			<point x="137" y="49" type="curve" smooth="yes"/>
			<point x="137" y="74"/>
			<point x="118" y="96"/>
			<point x="91" y="96" type="curve" smooth="yes"/>
			<point x="59" y="96"/>
			<point x="32" y="72"/>
			<point x="32" y="39" type="curve" smooth="yes"/>
			<point x="32" y="13"/>
			<point x="52" y="-8"/>
		</contour>
	</outline>
</glyph>
<glyph name="slash" format="2">
	<unicode hex="002F"/>
	<advance width="308"/>
	<outline>
		<contour>
			<point x="-69" y="-160" type="line"/>
			<point x="-22" y="-160" type="line"/>
			<point x="391" y="708" type="line"/>
			<point x="343" y="708" type="line"/>
		</contour>
	</outline>
</glyph>
<glyph name="zero" format="2">
	<unicode hex="0030"/>
	<advance width="468"/>
	<outline>
		<contour>
			<point x="330" y="660" type="curve"/>
			<point x="161" y="660"/>
			<point x="74" y="392"/>
			<point x="74" y="176" type="curve" smooth="yes"/>
			<point x="74" y="45"/>
			<point x="136" y="-12"/>
			<point x="213" y="-12" type="curve"/>
			<point x="382" y="-12"/>
			<point x="469" y="260"/>
			<point x="469" y="476" type="curve" smooth="yes"/>
			<point x="469" y="607"/>
			<point x="407" y="660"/>
		</contour>
		<contour>
			<point x="213" y="8" type="curve"/>
			<point x="171" y="8"/>
			<point x="134" y="41"/>
			<point x="134" y="170" type="curve" smooth="yes"/>
			<point x="134" y="357"/>
			<point x="215" y="640"/>
			<point x="330" y="640" type="curve"/>
			<point x="372" y="640"/>
			<point x="409" y="607"/>
			<point x="409" y="478" type="curve" smooth="yes"/>
			<point x="409" y="291"/>
			<point x="328" y="8"/>
		</contour>
	</outline>
</glyph>
<glyph name="one" format="2">
	<unicode hex="0031"/>
	<advance width="470"/>
	<outline>
		<contour>
			<point x="23" y="0" type="line"/>
			<point x="364" y="0" type="line"/>
			<point x="368" y="16" type="line"/>
			<point x="201" y="34" type="line"/>
			<point x="186" y="34" type="line"/>
			<point x="26" y="16" type="line"/>
		</contour>
		<contour>
			<point x="157" y="0" type="line"/>
			<point x="224" y="0" type="line"/>
			<point x="231" y="46"/>
			<point x="250" y="148"/>
			<point x="263" y="212" type="curve" smooth="yes"/>
			<point x="310" y="447" type="line"/>
			<point x="354" y="643" type="line"/>
			<point x="348" y="651" type="line"/>
			<point x="149" y="593" type="line"/>
			<point x="146" y="579" type="line"/>
			<point x="307" y="594" type="line"/>
			<point x="283" y="620" type="line"/>
		</contour>
	</outline>
</glyph>
<glyph name="less" format="2">
	<unicode hex="003C"/>
	<advance width="497"/>
	<outline>
		<contour>
			<point x="77" y="320" type="line"/>
			<point x="447" y="91" type="line"/>
			<point x="463" y="120" type="line"/>
			<point x="106" y="340" type="line"/>
			<point x="106" y="320" type="line"/>
			<point x="463" y="535" type="line"/>
			<point x="447" y="564" type="line"/>
			<point x="77" y="340" type="line"/>
		</contour>
	</outline>
</glyph>
<glyph name="question" format="2">
	<unicode hex="003F"/>
	<advance width="408"/>
	<outline>
		<contour>
			<point x="127" y="192" type="curve"/>
			<point x="148" y="188" type="line"/>
			<point x="159" y="260"/>
			<point x="168" y="287"/>
			<point x="190" y="310" type="curve" smooth="yes"/>
			<point x="202" y="322"/>
			<point x="222" y="335"/>
			<point x="309" y="389" type="curve" smooth="yes"/>
			<point x="416" y="456"/>
			<point x="452" y="493"/>
			<point x="452" y="564" type="curve" smooth="yes"/>
			<point x="452" y="632"/>
			<point x="400" y="684"/>
			<point x="300" y="684" type="curve" smooth="yes"/>
			<point x="197" y="684"/>
			<point x="139" y="623"/>
			<point x="127" y="547" type="curve"/>
			<point x="133" y="532"/>
			<point x="143" y="524"/>
			<point x="158" y="524" type="curve" smooth="yes"/>
			<point x="183" y="524"/>
			<point x="194" y="539"/>
			<point x="202" y="580" type="curve" smooth="yes"/>
			<point x="218" y="664" type="line"/>
			<point x="192" y="632" type="line"/>
			<point x="226" y="658"/>
			<point x="262" y="664"/>
			<point x="296" y="664" type="curve" smooth="yes"/>
			<point x="355" y="664"/>
			<point x="392" y="627"/>
			<point x="392" y="568" type="curve" smooth="yes"/>
			<point x="392" y="528"/>
			<point x="367" y="486"/>
			<point x="291" y="440" type="curve" smooth="yes"/>
			<point x="197" y="383"/>
			<point x="184" y="368"/>
			<point x="167" y="349" type="curve" smooth="yes"/>
			<point x="142" y="321"/>
			<point x="132" y="283"/>
		</contour>
		<contour>
			<point x="121" y="-8" type="curve" smooth="yes"/>
			<point x="155" y="-8"/>
			<point x="183" y="18"/>
			<point x="183" y="53" type="curve" smooth="yes"/>
			<point x="183" y="81"/>
			<point x="162" y="104"/>
			<point x="132" y="104" type="curve" smooth="yes"/>
			<point x="98" y="104"/>
			<point x="68" y="78"/>
			<point x="68" y="43" type="curve" smooth="yes"/>
			<point x="68" y="14"/>
			<point x="90" y="-8"/>
		</contour>
	</outline>
</glyph>
<glyph name="at" format="2">
	<unicode hex="0040"/>
	<advance width="821"/>
	<outline>
		<contour>
			<point x="334" y="48" type="curve" smooth="yes"/>
			<point x="400" y="48"/>
			<point x="454" y="106"/>
			<point x="509" y="190" type="curve"/>
			<point x="513" y="190" type="line"/>
			<point x="502" y="194" type="line"/>
			<point x="436" y="118"/>
			<point x="390" y="95"/>
			<point x="355" y="95" type="curve" smooth="yes"/>
			<point x="317" y="95"/>
			<point x="302" y="125"/>
			<point x="302" y="177" type="curve" smooth="yes"/>
			<point x="302" y="269"/>
			<point x="367" y="434"/>
			<point x="468" y="434" type="curve" smooth="yes"/>
			<point x="509" y="434"/>
			<point x="533" y="408"/>
			<point x="549" y="387" type="curve"/>
			<point x="571" y="422" type="line"/>
			<point x="552" y="454"/>
			<point x="519" y="473"/>
			<point x="487" y="473" type="curve" smooth="yes"/>
			<point x="371" y="473"/>
			<point x="243" y="288"/>
			<point x="243" y="155" type="curve" smooth="yes"/>
			<point x="243" y="80"/>
			<point x="287" y="48"/>
		</contour>
		<contour>
			<point x="578" y="48" type="curve" smooth="yes"/>
			<point x="665" y="48"/>
			<point x="811" y="132"/>
			<point x="811" y="332" type="curve" smooth="yes"/>
			<point x="811" y="522"/>
			<point x="690" y="660"/>
			<point x="486" y="660" type="curve" smooth="yes"/>
			<point x="239" y="660"/>
			<point x="46" y="459"/>
			<point x="46" y="211" type="curve" smooth="yes"/>
			<point x="46" y="-35"/>
			<point x="204" y="-156"/>
			<point x="405" y="-156" type="curve" smooth="yes"/>
			<point x="471" y="-156"/>
			<point x="537" y="-137"/>
			<point x="591" y="-108" type="curve"/>
			<point x="585" y="-96" type="line"/>
			<point x="524" y="-123"/>
			<point x="465" y="-134"/>
			<point x="405" y="-134" type="curve" smooth="yes"/>
			<point x="230" y="-134"/>
			<point x="90" y="-18"/>
			<point x="90" y="211" type="curve" smooth="yes"/>
			<point x="90" y="442"/>
			<point x="254" y="638"/>
			<point x="486" y="638" type="curve" smooth="yes"/>
			<point x="649" y="638"/>
			<point x="766" y="521"/>
			<point x="766" y="332" type="curve" smooth="yes"/>
			<point x="766" y="153"/>
			<point x="667" y="72"/>
			<point x="591" y="72" type="curve" smooth="yes"/>
			<point x="544" y="72"/>
			<point x="522" y="107"/>
			<point x="535" y="173" type="curve" smooth="yes"/>
			<point x="596" y="473" type="line"/>
			<point x="589" y="480" type="line"/>
			<point x="533" y="436" type="line"/>
			<point x="479" y="164" type="line" smooth="yes"/>
			<point x="467" y="103"/>
			<point x="498" y="48"/>
		</contour>
	</outline>
</glyph>
<glyph name="A" format="2">
	<unicode hex="0041"/>
	<advance width="592"/>
	<outline>
		<contour>
			<point x="37" y="0" type="line"/>
			<point x="67" y="0" type="line"/>
			<point x="354" y="576" type="line"/>
			<point x="350" y="576" type="line"/>
			<point x="427" y="0" type="line"/>
			<point x="493" y="0" type="line"/>
			<point x="396" y="676" type="line"/>
			<point x="378" y="676" type="line"/>
		</contour>
		<contour>
			<point x="163" y="240" type="line"/>
			<point x="447" y="240" type="line"/>
			<point x="436" y="264" type="line"/>
			<point x="184" y="264" type="line"/>
		</contour>
		<contour>
			<point x="553" y="0" type="line"/>
			<point x="556" y="16" type="line"/>
			<point x="474" y="28" type="line"/>
			<point x="442" y="28" type="line"/>
			<point x="332" y="16" type="line"/>
			<point x="329" y="0" type="line"/>
		</contour>
		<contour>
			<point x="161" y="0" type="line"/>
			<point x="164" y="16" type="line"/>
			<point x="74" y="26" type="line"/>
			<point x="54" y="26" type="line"/>
			<point x="-25" y="16" type="line"/>
			<point x="-28" y="0" type="line"/>
		</contour>
	</outline>
	<anchor name="aboveUC" x="432" y="691"/>
	<anchor name="belowLC" x="282" y="-22"/>
	<anchor name="ogonek" x="526" y="0"/>
</glyph>
<glyph name="B" format="2">
	<unicode hex="0042"/>
	<advance width="540"/>
	<outline>
		<contour>
			<point x="131" y="0" type="line"/>
			<point x="136" y="28" type="line"/>
			<point x="111" y="28" type="line"/>
			<point x="7" y="16" type="line"/>
			<point x="4" y="0" type="line"/>
		</contour>
		<contour>
			<point x="121" y="668" type="line"/>
			<point x="118" y="652" type="line"/>
			<point x="224" y="640" type="line"/>
			<point x="249" y="640" type="line"/>
			<point x="254" y="668" type="line"/>
		</contour>
		<contour>
			<point x="84" y="0" type="line"/>
			<point x="152" y="0" type="line"/>
			<point x="168" y="103"/>
			<point x="185" y="205"/>
			<point x="204" y="308" type="curve" smooth="yes"/>
			<point x="272" y="668" type="line"/>
			<point x="204" y="668" type="line"/>
			<point x="188" y="565"/>
			<point x="171" y="465"/>
			<point x="152" y="362" type="curve" smooth="yes"/>
		</contour>
		<contour>
			<point x="97" y="0" type="line"/>
			<point x="223" y="0" type="line" smooth="yes"/>
			<point x="412" y="0"/>
			<point x="500" y="95"/>
			<point x="500" y="204" type="curve" smooth="yes"/>
			<point x="500" y="300"/>
			<point x="414" y="346"/>
			<point x="284" y="351" type="curve"/>
			<point x="284" y="344" type="line"/>
			<point x="422" y="350"/>
			<point x="516" y="424"/>
			<point x="516" y="528" type="curve" smooth="yes"/>
			<point x="516" y="615"/>
			<point x="453" y="668"/>
			<point x="332" y="668" type="curve" smooth="yes"/>
			<point x="216" y="668" type="line"/>
			<point x="211" y="644" type="line"/>
			<point x="316" y="644" type="line" smooth="yes"/>
			<point x="400" y="644"/>
			<point x="452" y="617"/>
			<point x="452" y="536" type="curve" smooth="yes"/>
			<point x="452" y="413"/>
			<point x="373" y="358"/>
			<point x="247" y="358" type="curve" smooth="yes"/>
			<point x="161" y="358" type="line"/>
			<point x="157" y="334" type="line"/>
			<point x="258" y="334" type="line" smooth="yes"/>
			<point x="373" y="334"/>
			<point x="432" y="288"/>
			<point x="432" y="200" type="curve" smooth="yes"/>
			<point x="432" y="84"/>
			<point x="346" y="24"/>
			<point x="211" y="24" type="curve" smooth="yes"/>
			<point x="102" y="24" type="line"/>
		</contour>
	</outline>
</glyph>
<glyph name="C" format="2">
	<unicode hex="0043"/>
	<advance width="556"/>
	<outline>
		<contour>
			<point x="456" y="53" type="line"/>
			<point x="394" y="10"/>
			<point x="336" y="4"/>
			<point x="300" y="4" type="curve" smooth="yes"/>
			<point x="188" y="4"/>
			<point x="124" y="86"/>
			<point x="124" y="229" type="curve" smooth="yes"/>
			<point x="124" y="395"/>
			<point x="207" y="664"/>
			<point x="404" y="664" type="curve" smooth="yes"/>
			<point x="452" y="664"/>
			<point x="504" y="654"/>
			<point x="550" y="613" type="curve"/>
			<point x="543" y="640" type="line"/>
			<point x="499" y="648" type="line"/>
			<point x="526" y="482" type="line"/>
			<point x="542" y="482" type="line"/>
			<point x="560" y="636" type="line"/>
			<point x="511" y="677"/>
			<point x="449" y="684"/>
			<point x="408" y="684" type="curve" smooth="yes"/>
			<point x="180" y="684"/>
			<point x="60" y="432"/>
			<point x="60" y="245" type="curve" smooth="yes"/>
			<point x="60" y="90"/>
			<point x="143" y="-16"/>
			<point x="296" y="-16" type="curve" smooth="yes"/>
			<point x="350" y="-16"/>
			<point x="406" y="-5"/>
			<point x="470" y="32" type="curve"/>
			<point x="508" y="188" type="line"/>
			<point x="492" y="188" type="line"/>
			<point x="404" y="20" type="line"/>
			<point x="451" y="28" type="line"/>
		</contour>
	</outline>
</glyph>
<glyph name="D" format="2">
	<unicode hex="0044"/>
	<advance width="614"/>
	<outline>
		<contour>
			<point x="20" y="0" type="line"/>
			<point x="147" y="0" type="line"/>
			<point x="152" y="28" type="line"/>
			<point x="127" y="28" type="line"/>
			<point x="23" y="16" type="line"/>
		</contour>
		<contour>
			<point x="100" y="0" type="line"/>
			<point x="168" y="0" type="line"/>
			<point x="184" y="103"/>
			<point x="201" y="205"/>
			<point x="220" y="308" type="curve" smooth="yes"/>
			<point x="288" y="668" type="line"/>
			<point x="220" y="668" type="line"/>
			<point x="204" y="565"/>
			<point x="187" y="465"/>
			<point x="168" y="362" type="curve" smooth="yes"/>
		</contour>
		<contour>
			<point x="134" y="652" type="line"/>
			<point x="240" y="640" type="line"/>
			<point x="265" y="640" type="line"/>
			<point x="270" y="668" type="line"/>
			<point x="137" y="668" type="line"/>
		</contour>
		<contour>
			<point x="131" y="0" type="line"/>
			<point x="242" y="0" type="line" smooth="yes"/>
			<point x="432" y="0"/>
			<point x="614" y="146"/>
			<point x="614" y="412" type="curve" smooth="yes"/>
			<point x="614" y="579"/>
			<point x="510" y="668"/>
			<point x="344" y="668" type="curve" smooth="yes"/>
			<point x="250" y="668" type="line"/>
			<point x="245" y="644" type="line"/>
			<point x="335" y="644" type="line" smooth="yes"/>
			<point x="478" y="644"/>
			<point x="546" y="582"/>
			<point x="546" y="420" type="curve" smooth="yes"/>
			<point x="546" y="198"/>
			<point x="426" y="24"/>
			<point x="241" y="24" type="curve" smooth="yes"/>
			<point x="136" y="24" type="line"/>
		</contour>
	</outline>
	<anchor name="aboveUC" x="388" y="692"/>
	<anchor name="belowLC" x="308" y="-24"/>
</glyph>
<glyph name="E" format="2">
	<unicode hex="0045"/>
	<advance width="528"/>
	<outline>
		<contour>
			<point x="2" y="0" type="line"/>
			<point x="129" y="0" type="line"/>
			<point x="134" y="28" type="line"/>
			<point x="109" y="28" type="line"/>
			<point x="5" y="16" type="line"/>
		</contour>
		<contour>
			<point x="82" y="0" type="line"/>
			<point x="150" y="0" type="line"/>
			<point x="166" y="103"/>
			<point x="183" y="205"/>
			<point x="202" y="308" type="curve" smooth="yes"/>
			<point x="270" y="670" type="line"/>
			<point x="202" y="670" type="line"/>
			<point x="186" y="567"/>
			<point x="169" y="465"/>
			<point x="150" y="362" type="curve" smooth="yes"/>
		</contour>
		<contour>
			<point x="116" y="654" type="line"/>
			<point x="222" y="642" type="line"/>
			<point x="247" y="642" type="line"/>
			<point x="252" y="670" type="line"/>
			<point x="119" y="670" type="line"/>
		</contour>
		<contour>
			<point x="109" y="0" type="line"/>
			<point x="444" y="0" type="line"/>
			<point x="482" y="188" type="line"/>
			<point x="466" y="188" type="line"/>
			<point x="382" y="12" type="line"/>
			<point x="422" y="24" type="line"/>
			<point x="113" y="24" type="line"/>
		</contour>
		<contour>
			<point x="170" y="330" type="line"/>
			<point x="358" y="330" type="line"/>
			<point x="362" y="354" type="line"/>
			<point x="174" y="354" type="line"/>
		</contour>
		<contour>
			<point x="228" y="646" type="line"/>
			<point x="509" y="646" type="line"/>
			<point x="472" y="658" type="line"/>
			<point x="502" y="490" type="line"/>
			<point x="518" y="490" type="line"/>
			<point x="538" y="670" type="line"/>
			<point x="232" y="670" type="line"/>
		</contour>
		<contour>
			<point x="357" y="232" type="line"/>
			<point x="373" y="232" type="line"/>
			<point x="413" y="452" type="line"/>
			<point x="397" y="452" type="line"/>
			<point x="349" y="352" type="line"/>
			<point x="345" y="332" type="line"/>
		</contour>
	</outline>
	<anchor name="aboveUC" x="348" y="690"/>
	<anchor name="belowLC" x="259" y="-20"/>
	<anchor name="ogonek" x="382" y="0"/>
</glyph>
<glyph name="F" format="2">
	<unicode hex="0046"/>
	<advance width="508"/>
	<outline>
		<contour>
			<point x="121" y="668" type="line"/>
			<point x="118" y="652" type="line"/>
			<point x="224" y="640" type="line"/>
			<point x="249" y="640" type="line"/>
			<point x="254" y="668" type="line"/>
		</contour>
		<contour>
			<point x="172" y="330" type="line"/>
			<point x="356" y="330" type="line"/>
			<point x="360" y="354" type="line"/>
			<point x="176" y="354" type="line"/>
		</contour>
		<contour>
			<point x="355" y="232" type="line"/>
			<point x="371" y="232" type="line"/>
			<point x="411" y="452" type="line"/>
			<point x="395" y="452" type="line"/>
			<point x="347" y="352" type="line"/>
			<point x="343" y="332" type="line"/>
		</contour>
		<contour>
			<point x="230" y="644" type="line"/>
			<point x="506" y="644" type="line"/>
			<point x="470" y="656" type="line"/>
			<point x="500" y="488" type="line"/>
			<point x="516" y="488" type="line"/>
			<point x="536" y="668" type="line"/>
			<point x="234" y="668" type="line"/>
		</contour>
		<contour>
			<point x="84" y="0" type="line"/>
			<point x="152" y="0" type="line"/>
			<point x="168" y="103"/>
			<point x="185" y="205"/>
			<point x="204" y="308" type="curve" smooth="yes"/>
			<point x="272" y="668" type="line"/>
			<point x="204" y="668" type="line"/>
			<point x="188" y="565"/>
			<point x="171" y="465"/>
			<point x="152" y="362" type="curve" smooth="yes"/>
		</contour>
		<contour>
			<point x="248" y="0" type="line"/>
			<point x="252" y="16" type="line"/>
			<point x="137" y="28" type="line"/>
			<point x="109" y="28" type="line"/>
			<point x="8" y="16" type="line"/>
			<point x="4" y="0" type="line"/>
		</contour>
	</outline>
</glyph>
<glyph name="G" format="2">
	<unicode hex="0047"/>
	<advance width="591"/>
	<outline>
		<contour>
			<point x="56" y="244" type="curve" smooth="yes"/>
			<point x="56" y="87"/>
			<point x="139" y="-16"/>
			<point x="297" y="-16" type="curve" smooth="yes"/>
			<point x="357" y="-16"/>
			<point x="420" y="2"/>
			<point x="479" y="35" type="curve"/>
			<point x="531" y="318" type="line"/>
			<point x="469" y="318" type="line"/>
			<point x="458" y="249"/>
			<point x="447" y="174"/>
			<point x="430" y="88" type="curve" smooth="yes"/>
			<point x="417" y="20" type="line"/>
			<point x="432" y="37" type="line"/>
			<point x="383" y="12"/>
			<point x="338" y="4"/>
			<point x="301" y="4" type="curve" smooth="yes"/>
			<point x="188" y="4"/>
			<point x="125" y="87"/>
			<point x="125" y="227" type="curve" smooth="yes"/>
			<point x="125" y="396"/>
			<point x="208" y="665"/>
			<point x="403" y="665" type="curve" smooth="yes"/>
			<point x="442" y="665"/>
			<point x="481" y="659"/>
			<point x="519" y="636" type="curve"/>
			<point x="501" y="650" type="line"/>
			<point x="529" y="483" type="line"/>
			<point x="546" y="483" type="line"/>
			<point x="564" y="638" type="line"/>
			<point x="515" y="678"/>
			<point x="444" y="685"/>
			<point x="406" y="685" type="curve" smooth="yes"/>
			<point x="177" y="685"/>
			<point x="56" y="433"/>
		</contour>
		<contour>
			<point x="367" y="302" type="line"/>
			<point x="488" y="290" type="line"/>
			<point x="508" y="290" type="line"/>
			<point x="592" y="302" type="line"/>
			<point x="595" y="318" type="line"/>
			<point x="371" y="318" type="line"/>
		</contour>
	</outline>
	<anchor name="aboveUC" x="391" y="689"/>
	<anchor name="belowLC" x="291" y="-20"/>
</glyph>
<glyph name="H" format="2">
	<unicode hex="0048"/>
	<advance width="672"/>
	<outline>
		<contour>
			<point x="234" y="0" type="line"/>
			<point x="237" y="16" type="line"/>
			<point x="131" y="28" type="line"/>
			<point x="107" y="28" type="line"/>
			<point x="7" y="16" type="line"/>
			<point x="4" y="0" type="line"/>
		</contour>
		<contour>
			<point x="121" y="668" type="line"/>
			<point x="118" y="652" type="line"/>
			<point x="224" y="640" type="line"/>
			<point x="248" y="640" type="line"/>
			<point x="349" y="652" type="line"/>
			<point x="352" y="668" type="line"/>
		</contour>
		<contour>
			<point x="84" y="0" type="line"/>
			<point x="152" y="0" type="line"/>
			<point x="168" y="103"/>
			<point x="185" y="205"/>
			<point x="204" y="308" type="curve" smooth="yes"/>
			<point x="272" y="668" type="line"/>
			<point x="204" y="668" type="line"/>
			<point x="188" y="565"/>
			<point x="171" y="463"/>
			<point x="152" y="360" type="curve" smooth="yes"/>
		</contour>
		<contour>
			<point x="598" y="0" type="line"/>
			<point x="601" y="16" type="line"/>
			<point x="495" y="28" type="line"/>
			<point x="471" y="28" type="line"/>
			<point x="371" y="16" type="line"/>
			<point x="368" y="0" type="line"/>
		</contour>
		<contour>
			<point x="485" y="668" type="line"/>
			<point x="482" y="652" type="line"/>
			<point x="588" y="640" type="line"/>
			<point x="612" y="640" type="line"/>
			<point x="713" y="652" type="line"/>
			<point x="716" y="668" type="line"/>
		</contour>
		<contour>
			<point x="448" y="0" type="line"/>
			<point x="516" y="0" type="line"/>
			<point x="532" y="103"/>
			<point x="549" y="205"/>
			<point x="568" y="308" type="curve" smooth="yes"/>
			<point x="636" y="668" type="line"/>
			<point x="568" y="668" type="line"/>
			<point x="552" y="565"/>
			<point x="535" y="463"/>
			<point x="516" y="360" type="curve" smooth="yes"/>
		</contour>
		<contour>
			<point x="160" y="330" type="line"/>
			<point x="555" y="330" type="line"/>
			<point x="559" y="354" type="line"/>
			<point x="164" y="354" type="line"/>
		</contour>
	</outline>
	<anchor name="aboveUC" x="464" y="691"/>
	<anchor name="belowLC" x="350" y="-22"/>
	<note>
		skew 10 scale 120
	</note>
</glyph>
<glyph name="I" format="2">
	<unicode hex="0049"/>
	<advance width="308"/>
	<outline>
		<contour>
			<point x="20" y="0" type="line"/>
			<point x="250" y="0" type="line"/>
			<point x="253" y="16" type="line"/>
			<point x="147" y="28" type="line"/>
			<point x="123" y="28" type="line"/>
			<point x="23" y="16" type="line"/>
		</contour>
		<contour>
			<point x="100" y="0" type="line"/>
			<point x="168" y="0" type="line"/>
			<point x="184" y="103"/>
			<point x="201" y="205"/>
			<point x="220" y="308" type="curve" smooth="yes"/>
			<point x="288" y="670" type="line"/>
			<point x="220" y="670" type="line"/>
			<point x="204" y="567"/>
			<point x="187" y="463"/>
			<point x="168" y="360" type="curve" smooth="yes"/>
		</contour>
		<contour>
			<point x="134" y="654" type="line"/>
			<point x="240" y="642" type="line"/>
			<point x="264" y="642" type="line"/>
			<point x="365" y="654" type="line"/>
			<point x="368" y="670" type="line"/>
			<point x="137" y="670" type="line"/>
		</contour>
	</outline>
	<anchor name="aboveUC" x="248" y="690"/>
	<anchor name="belowLC" x="134" y="-20"/>
	<anchor name="ogonek" x="158" y="0"/>
</glyph>
<glyph name="J" format="2">
	<unicode hex="004A"/>
	<advance width="281"/>
	<outline>
		<contour>
			<point x="104" y="668" type="line"/>
			<point x="101" y="652" type="line"/>
			<point x="215" y="640" type="line"/>
			<point x="235" y="640" type="line"/>
			<point x="341" y="652" type="line"/>
			<point x="344" y="668" type="line"/>
		</contour>
		<contour>
			<point x="-31" y="-132" type="line"/>
			<point x="-13" y="-146" type="line"/>
			<point x="16" y="-132" type="line"/>
			<point x="-18" y="-100" type="line" smooth="yes"/>
			<point x="-33" y="-85"/>
			<point x="-51" y="-76"/>
			<point x="-73" y="-76" type="curve" smooth="yes"/>
			<point x="-103" y="-76"/>
			<point x="-126" y="-94"/>
			<point x="-132" y="-115" type="curve"/>
			<point x="-129" y="-147"/>
			<point x="-99" y="-160"/>
			<point x="-60" y="-160" type="curve" smooth="yes"/>
			<point x="-11" y="-160"/>
			<point x="21" y="-145"/>
			<point x="56" y="-113" type="curve" smooth="yes"/>
			<point x="117" y="-59"/>
			<point x="136" y="-3"/>
			<point x="174" y="201" type="curve" smooth="yes"/>
			<point x="203" y="360" type="line" smooth="yes"/>
			<point x="223" y="465"/>
			<point x="242" y="567"/>
			<point x="264" y="668" type="curve"/>
			<point x="197" y="668" type="line"/>
			<point x="109" y="167"/>
			<point x="95" y="65"/>
			<point x="85" y="19" type="curve" smooth="yes"/>
			<point x="70" y="-50"/>
			<point x="43" y="-111"/>
			<point x="-9" y="-132" type="curve"/>
		</contour>
	</outline>
	<anchor name="aboveUC" x="324" y="691"/>
	<anchor name="belowLC" x="95" y="-64"/>
</glyph>
<glyph name="K" format="2">
	<unicode hex="004B"/>
	<advance width="596"/>
	<outline>
		<contour>
			<point x="230" y="0" type="line"/>
			<point x="233" y="16" type="line"/>
			<point x="131" y="28" type="line"/>
			<point x="111" y="28" type="line"/>
			<point x="6" y="16" type="line"/>
			<point x="3" y="0" type="line"/>
		</contour>
		<contour>
			<point x="121" y="668" type="line"/>
			<point x="118" y="652" type="line"/>
			<point x="224" y="640" type="line"/>
			<point x="244" y="640" type="line"/>
			<point x="350" y="652" type="line"/>
			<point x="353" y="668" type="line"/>
		</contour>
		<contour>
			<point x="159" y="204" type="line"/>
			<point x="604" y="668" type="line"/>
			<point x="572" y="668" type="line"/>
			<point x="166" y="240" type="line"/>
		</contour>
		<contour>
			<point x="434" y="0" type="line"/>
			<point x="502" y="0" type="line"/>
			<point x="349" y="420" type="line"/>
			<point x="303" y="372" type="line"/>
		</contour>
		<contour>
			<point x="461" y="668" type="line"/>
			<point x="458" y="652" type="line"/>
			<point x="548" y="640" type="line"/>
			<point x="576" y="640" type="line"/>
			<point x="666" y="652" type="line"/>
			<point x="669" y="668" type="line"/>
		</contour>
		<contour>
			<point x="550" y="0" type="line"/>
			<point x="553" y="16" type="line"/>
			<point x="471" y="28" type="line"/>
			<point x="451" y="28" type="line"/>
			<point x="353" y="16" type="line"/>
			<point x="350" y="0" type="line"/>
		</contour>
		<contour>
			<point x="84" y="0" type="line"/>
			<point x="152" y="0" type="line"/>
			<point x="168" y="103"/>
			<point x="185" y="205"/>
			<point x="204" y="308" type="curve" smooth="yes"/>
			<point x="272" y="670" type="line"/>
			<point x="204" y="670" type="line"/>
			<point x="188" y="567"/>
			<point x="171" y="465"/>
			<point x="152" y="362" type="curve" smooth="yes"/>
		</contour>
	</outline>
	<anchor name="aboveUC" x="433" y="691"/>
	<anchor name="belowLC" x="332" y="-22"/>
</glyph>
<glyph name="L" format="2">
	<unicode hex="004C"/>
	<advance width="504"/>
	<outline>
		<contour>
			<point x="131" y="0" type="line"/>
			<point x="136" y="28" type="line"/>
			<point x="111" y="28" type="line"/>
			<point x="7" y="16" type="line"/>
			<point x="4" y="0" type="line"/>
		</contour>
		<contour>
			<point x="111" y="0" type="line"/>
			<point x="426" y="0" type="line"/>
			<point x="472" y="188" type="line"/>
			<point x="456" y="188" type="line"/>
			<point x="364" y="12" type="line"/>
			<point x="404" y="24" type="line"/>
			<point x="115" y="24" type="line"/>
		</contour>
		<contour>
			<point x="84" y="0" type="line"/>
			<point x="152" y="0" type="line"/>
			<point x="168" y="103"/>
			<point x="185" y="205"/>
			<point x="204" y="308" type="curve" smooth="yes"/>
			<point x="272" y="668" type="line"/>
			<point x="204" y="668" type="line"/>
			<point x="188" y="565"/>
			<point x="171" y="465"/>
			<point x="152" y="362" type="curve" smooth="yes"/>
		</contour>
		<contour>
			<point x="121" y="668" type="line"/>
			<point x="118" y="652" type="line"/>
			<point x="224" y="640" type="line"/>
			<point x="248" y="640" type="line"/>
			<point x="349" y="652" type="line"/>
			<point x="352" y="668" type="line"/>
		</contour>
	</outline>
	<anchor name="aboveUC" x="259" y="691"/>
	<anchor name="belowLC" x="296" y="-22"/>
</glyph>
<glyph name="M" format="2">
	<unicode hex="004D"/>
	<advance width="804"/>
	<outline>
		<contour>
			<point x="-10" y="0" type="line"/>
			<point x="186" y="0" type="line"/>
			<point x="189" y="16" type="line"/>
			<point x="98" y="26" type="line"/>
			<point x="84" y="26" type="line"/>
			<point x="-7" y="16" type="line"/>
		</contour>
		<contour>
			<point x="73" y="0" type="line"/>
			<point x="100" y="0" type="line"/>
			<point x="250" y="660" type="line"/>
			<point x="223" y="660" type="line"/>
		</contour>
		<contour>
			<point x="338" y="0" type="line"/>
			<point x="364" y="0" type="line"/>
			<point x="682" y="597" type="line"/>
			<point x="721" y="597" type="line"/>
			<point x="721" y="670" type="line"/>
			<point x="692" y="670" type="line"/>
			<point x="373" y="68" type="line"/>
			<point x="389" y="68" type="line"/>
			<point x="289" y="670" type="line"/>
			<point x="135" y="670" type="line"/>
			<point x="132" y="654" type="line"/>
			<point x="235" y="642" type="line"/>
			<point x="226" y="657" type="line"/>
		</contour>
		<contour>
			<point x="514" y="0" type="line"/>
			<point x="742" y="0" type="line"/>
			<point x="745" y="16" type="line"/>
			<point x="643" y="28" type="line"/>
			<point x="615" y="28" type="line"/>
			<point x="517" y="16" type="line"/>
		</contour>
		<contour>
			<point x="595" y="0" type="line"/>
			<point x="663" y="0" type="line"/>
			<point x="675" y="103"/>
			<point x="686" y="209"/>
			<point x="701" y="312" type="curve" smooth="yes"/>
			<point x="754" y="670" type="line"/>
			<point x="700" y="670" type="line"/>
			<point x="687" y="641" type="line"/>
		</contour>
		<contour>
			<point x="700" y="642" type="line"/>
			<point x="728" y="642" type="line"/>
			<point x="835" y="654" type="line"/>
			<point x="838" y="670" type="line"/>
			<point x="705" y="670" type="line"/>
		</contour>
	</outline>
	<anchor name="aboveUC" x="478" y="690"/>
	<anchor name="belowLC" x="351" y="-20"/>
</glyph>
<glyph name="N" format="2">
	<unicode hex="004E"/>
	<advance width="660"/>
	<outline>
		<contour>
			<point x="20" y="0" type="line"/>
			<point x="224" y="0" type="line"/>
			<point x="227" y="16" type="line"/>
			<point x="129" y="26" type="line"/>
			<point x="115" y="26" type="line"/>
			<point x="23" y="16" type="line"/>
		</contour>
		<contour>
			<point x="103" y="0" type="line"/>
			<point x="131" y="0" type="line"/>
			<point x="253" y="656" type="line"/>
			<point x="225" y="656" type="line"/>
		</contour>
		<contour>
			<point x="527" y="654" type="line"/>
			<point x="625" y="644" type="line"/>
			<point x="639" y="644" type="line"/>
			<point x="725" y="654" type="line"/>
			<point x="728" y="670" type="line"/>
			<point x="530" y="670" type="line"/>
		</contour>
		<contour>
			<point x="542" y="101" type="line"/>
			<point x="532" y="101" type="line"/>
			<point x="267" y="670" type="line"/>
			<point x="142" y="670" type="line"/>
			<point x="139" y="654" type="line"/>
			<point x="241" y="642" type="line"/>
			<point x="196" y="660" type="line"/>
			<point x="509" y="-8" type="line"/>
			<point x="527" y="-8" type="line"/>
			<point x="652" y="670" type="line"/>
			<point x="624" y="670" type="line"/>
			<point x="518" y="96" type="line"/>
		</contour>
	</outline>
	<anchor name="aboveUC" x="436" y="690"/>
	<anchor name="belowLC" x="317" y="-20"/>
</glyph>
<glyph name="O" format="2">
	<unicode hex="004F"/>
	<advance width="600"/>
	<outline>
		<contour>
			<point x="264" y="5" type="curve"/>
			<point x="160" y="5"/>
			<point x="120" y="90"/>
			<point x="120" y="212" type="curve" smooth="yes"/>
			<point x="120" y="449"/>
			<point x="227" y="663"/>
			<point x="384" y="663" type="curve"/>
			<point x="488" y="663"/>
			<point x="528" y="578"/>
			<point x="528" y="456" type="curve" smooth="yes"/>
			<point x="528" y="219"/>
			<point x="421" y="5"/>
		</contour>
		<contour>
			<point x="264" y="-16" type="curve"/>
			<point x="425" y="-16"/>
			<point x="592" y="158"/>
			<point x="592" y="440" type="curve" smooth="yes"/>
			<point x="592" y="598"/>
			<point x="506" y="684"/>
			<point x="384" y="684" type="curve"/>
			<point x="223" y="684"/>
			<point x="56" y="510"/>
			<point x="56" y="228" type="curve" smooth="yes"/>
			<point x="56" y="70"/>
			<point x="142" y="-16"/>
		</contour>
	</outline>
</glyph>
<glyph name="P" format="2">
	<unicode hex="0050"/>
	<advance width="488"/>
	<outline>
		<contour>
			<point x="20" y="0" type="line"/>
			<point x="256" y="0" type="line"/>
			<point x="260" y="16" type="line"/>
			<point x="153" y="28" type="line"/>
			<point x="125" y="28" type="line"/>
			<point x="24" y="16" type="line"/>
		</contour>
		<contour>
			<point x="100" y="0" type="line"/>
			<point x="168" y="0" type="line"/>
			<point x="184" y="103"/>
			<point x="201" y="205"/>
			<point x="220" y="308" type="curve" smooth="yes"/>
			<point x="288" y="670" type="line"/>
			<point x="220" y="670" type="line"/>
			<point x="204" y="567"/>
			<point x="187" y="465"/>
			<point x="168" y="362" type="curve" smooth="yes"/>
		</contour>
		<contour>
			<point x="134" y="654" type="line"/>
			<point x="240" y="642" type="line"/>
			<point x="268" y="642" type="line"/>
			<point x="273" y="670" type="line"/>
			<point x="137" y="670" type="line"/>
		</contour>
		<contour>
			<point x="160" y="288" type="line"/>
			<point x="264" y="288" type="line" smooth="yes"/>
			<point x="444" y="288"/>
			<point x="532" y="393"/>
			<point x="532" y="516" type="curve" smooth="yes"/>
			<point x="532" y="607"/>
			<point x="457" y="670"/>
			<point x="322" y="670" type="curve" smooth="yes"/>
			<point x="229" y="670" type="line"/>
			<point x="224" y="646" type="line"/>
			<point x="322" y="646" type="line" smooth="yes"/>
			<point x="418" y="646"/>
			<point x="468" y="595"/>
			<point x="468" y="516" type="curve" smooth="yes"/>
			<point x="468" y="399"/>
			<point x="394" y="312"/>
			<point x="267" y="312" type="curve" smooth="yes"/>
			<point x="165" y="312" type="line"/>
		</contour>
	</outline>
	<anchor name="aboveUC" x="336" y="690"/>
	<anchor name="belowLC" x="139" y="-20"/>
</glyph>
<glyph name="Q" format="2">
	<unicode hex="0051"/>
	<advance width="608"/>
	<outline>
		<contour>
			<point x="446" y="-252" type="curve" smooth="yes"/>
			<point x="505" y="-252"/>
			<point x="558" y="-232"/>
			<point x="602" y="-188" type="curve"/>
			<point x="593" y="-175" type="line"/>
			<point x="550" y="-206"/>
			<point x="515" y="-220"/>
			<point x="470" y="-220" type="curve" smooth="yes"/>
			<point x="376" y="-220"/>
			<point x="296" y="-128"/>
			<point x="296" y="4" type="curve"/>
			<point x="232" y="4" type="line"/>
			<point x="240" y="-160"/>
			<point x="335" y="-252"/>
		</contour>
		<component base="O"/>
	</outline>
	<anchor name="aboveUC" x="387" y="690"/>
</glyph>
<glyph name="R" format="2">
	<unicode hex="0052"/>
	<advance width="580"/>
	<outline>
		<contour>
			<point x="2" y="0" type="line"/>
			<point x="232" y="0" type="line"/>
			<point x="235" y="16" type="line"/>
			<point x="129" y="28" type="line"/>
			<point x="105" y="28" type="line"/>
			<point x="5" y="16" type="line"/>
		</contour>
		<contour>
			<point x="82" y="0" type="line"/>
			<point x="150" y="0" type="line"/>
			<point x="166" y="103"/>
			<point x="183" y="205"/>
			<point x="202" y="308" type="curve" smooth="yes"/>
			<point x="270" y="670" type="line"/>
			<point x="202" y="670" type="line"/>
			<point x="186" y="567"/>
			<point x="169" y="463"/>
			<point x="150" y="360" type="curve" smooth="yes"/>
		</contour>
		<contour>
			<point x="116" y="654" type="line"/>
			<point x="222" y="642" type="line"/>
			<point x="246" y="642" type="line"/>
			<point x="246" y="670" type="line"/>
			<point x="119" y="670" type="line"/>
		</contour>
		<contour>
			<point x="486" y="-8" type="curve" smooth="yes"/>
			<point x="514" y="-8"/>
			<point x="529" y="-5"/>
			<point x="547" y="0" type="curve"/>
			<point x="550" y="16" type="line"/>
			<point x="454" y="26" type="line"/>
			<point x="486" y="16" type="line"/>
			<point x="424" y="199" type="line" smooth="yes"/>
			<point x="395" y="285"/>
			<point x="367" y="316"/>
			<point x="289" y="323" type="curve"/>
			<point x="289" y="315" type="line"/>
			<point x="443" y="325"/>
			<point x="526" y="427"/>
			<point x="526" y="525" type="curve" smooth="yes"/>
			<point x="526" y="613"/>
			<point x="455" y="670"/>
			<point x="338" y="670" type="curve" smooth="yes"/>
			<point x="223" y="670" type="line"/>
			<point x="218" y="646" type="line"/>
			<point x="338" y="646" type="line" smooth="yes"/>
			<point x="421" y="646"/>
			<point x="460" y="601"/>
			<point x="460" y="526" type="curve" smooth="yes"/>
			<point x="460" y="417"/>
			<point x="389" y="334"/>
			<point x="274" y="334" type="curve" smooth="yes"/>
			<point x="165" y="334" type="line"/>
			<point x="160" y="310" type="line"/>
			<point x="231" y="310" type="line" smooth="yes"/>
			<point x="309" y="310"/>
			<point x="331" y="293"/>
			<point x="354" y="215" type="curve" smooth="yes"/>
			<point x="401" y="56" type="line" smooth="yes"/>
			<point x="415" y="8"/>
			<point x="428" y="-8"/>
		</contour>
	</outline>
	<anchor name="aboveUC" x="334" y="690"/>
	<anchor name="belowLC" x="299" y="-20"/>
</glyph>
<glyph name="S" format="2">
	<unicode hex="0053"/>
	<advance width="445"/>
	<outline>
		<contour>
			<point x="14" y="28" type="line"/>
			<point x="53" y="0"/>
			<point x="122" y="-16"/>
			<point x="178" y="-16" type="curve" smooth="yes"/>
			<point x="304" y="-16"/>
			<point x="390" y="60"/>
			<point x="390" y="177" type="curve" smooth="yes"/>
			<point x="390" y="268"/>
			<point x="321" y="321"/>
			<point x="259" y="376" type="curve" smooth="yes"/>
			<point x="209" y="419"/>
			<point x="164" y="466"/>
			<point x="164" y="531" type="curve" smooth="yes"/>
			<point x="164" y="628"/>
			<point x="240" y="665"/>
			<point x="314" y="665" type="curve" smooth="yes"/>
			<point x="350" y="665"/>
			<point x="389" y="655"/>
			<point x="422" y="636" type="curve"/>
			<point x="402" y="657" type="line"/>
			<point x="415" y="494" type="line"/>
			<point x="432" y="494" type="line"/>
			<point x="463" y="641" type="line"/>
			<point x="416" y="674"/>
			<point x="357" y="686"/>
			<point x="306" y="686" type="curve" smooth="yes"/>
			<point x="185" y="686"/>
			<point x="107" y="611"/>
			<point x="107" y="505" type="curve" smooth="yes"/>
			<point x="107" y="425"/>
			<point x="162" y="374"/>
			<point x="218" y="326" type="curve" smooth="yes"/>
			<point x="273" y="279"/>
			<point x="329" y="231"/>
			<point x="329" y="151" type="curve" smooth="yes"/>
			<point x="329" y="81"/>
			<point x="272" y="6"/>
			<point x="178" y="6" type="curve" smooth="yes"/>
			<point x="133" y="6"/>
			<point x="87" y="16"/>
			<point x="51" y="38" type="curve"/>
			<point x="75" y="10" type="line"/>
			<point x="66" y="188" type="line"/>
			<point x="50" y="188" type="line"/>
		</contour>
	</outline>
	<anchor name="aboveUC" x="314" y="690"/>
	<anchor name="belowLC" x="189" y="-20"/>
	<anchor name="baseLC" x="181" y="0"/>
</glyph>
<glyph name="T" format="2">
	<unicode hex="0054"/>
	<advance width="536"/>
	<outline>
		<contour>
			<point x="70" y="482" type="line"/>
			<point x="86" y="482" type="line"/>
			<point x="177" y="658" type="line"/>
			<point x="133" y="646" type="line"/>
			<point x="565" y="646" type="line"/>
			<point x="528" y="658" type="line"/>
			<point x="562" y="482" type="line"/>
			<point x="578" y="482" type="line"/>
			<point x="594" y="670" type="line"/>
			<point x="111" y="670" type="line"/>
		</contour>
		<contour>
			<point x="106" y="0" type="line"/>
			<point x="358" y="0" type="line"/>
			<point x="361" y="16" type="line"/>
			<point x="247" y="28" type="line"/>
			<point x="227" y="28" type="line"/>
			<point x="109" y="16" type="line"/>
		</contour>
		<contour>
			<point x="198" y="0" type="line"/>
			<point x="266" y="0" type="line"/>
			<point x="282" y="103"/>
			<point x="299" y="205"/>
			<point x="318" y="308" type="curve" smooth="yes"/>
			<point x="386" y="670" type="line"/>
			<point x="318" y="670" type="line"/>
			<point x="302" y="567"/>
			<point x="285" y="465"/>
			<point x="266" y="362" type="curve" smooth="yes"/>
		</contour>
	</outline>
	<anchor name="aboveUC" x="346" y="690"/>
	<anchor name="belowLC" x="227" y="-20"/>
	<anchor name="baseLC" x="232" y="0"/>
</glyph>
<glyph name="U" format="2">
	<unicode hex="0055"/>
	<advance width="636"/>
	<outline>
		<contour>
			<point x="128" y="164" type="curve" smooth="yes"/>
			<point x="128" y="26"/>
			<point x="213" y="-16"/>
			<point x="308" y="-16" type="curve" smooth="yes"/>
			<point x="437" y="-16"/>
			<point x="518" y="49"/>
			<point x="553" y="240" type="curve" smooth="yes"/>
			<point x="632" y="668" type="line"/>
			<point x="605" y="668" type="line"/>
			<point x="528" y="251" type="line" smooth="yes"/>
			<point x="496" y="77"/>
			<point x="430" y="28"/>
			<point x="323" y="28" type="curve" smooth="yes"/>
			<point x="249" y="28"/>
			<point x="192" y="70"/>
			<point x="192" y="172" type="curve" smooth="yes"/>
			<point x="192" y="201"/>
			<point x="197" y="238"/>
			<point x="205" y="280" type="curve" smooth="yes"/>
			<point x="276" y="668" type="line"/>
			<point x="210" y="668" type="line"/>
			<point x="192" y="563"/>
			<point x="182" y="492"/>
			<point x="158" y="363" type="curve" smooth="yes"/>
			<point x="143" y="286" type="line" smooth="yes"/>
			<point x="134" y="239"/>
			<point x="128" y="198"/>
		</contour>
		<contour>
			<point x="136" y="652" type="line"/>
			<point x="230" y="640" type="line"/>
			<point x="250" y="640" type="line"/>
			<point x="356" y="652" type="line"/>
			<point x="359" y="668" type="line"/>
			<point x="139" y="668" type="line"/>
		</contour>
		<contour>
			<point x="518" y="652" type="line"/>
			<point x="608" y="642" type="line"/>
			<point x="620" y="642" type="line"/>
			<point x="705" y="652" type="line"/>
			<point x="708" y="668" type="line"/>
			<point x="521" y="668" type="line"/>
		</contour>
	</outline>
	<anchor name="aboveUC" x="427" y="690"/>
	<anchor name="belowLC" x="311" y="-20"/>
	<anchor name="ogonek" x="396" y="0"/>
	<anchor name="hornLC" x="616" y="680"/>
</glyph>
<glyph name="V" format="2">
	<unicode hex="0056"/>
	<advance width="594"/>
	<outline>
		<contour>
			<point x="607" y="668" type="line"/>
			<point x="577" y="668" type="line"/>
			<point x="290" y="92" type="line"/>
			<point x="294" y="92" type="line"/>
			<point x="217" y="668" type="line"/>
			<point x="151" y="668" type="line"/>
			<point x="248" y="-8" type="line"/>
			<point x="266" y="-8" type="line"/>
		</contour>
		<contour>
			<point x="91" y="668" type="line"/>
			<point x="88" y="652" type="line"/>
			<point x="170" y="640" type="line"/>
			<point x="202" y="640" type="line"/>
			<point x="312" y="652" type="line"/>
			<point x="315" y="668" type="line"/>
		</contour>
		<contour>
			<point x="483" y="668" type="line"/>
			<point x="480" y="652" type="line"/>
			<point x="570" y="642" type="line"/>
			<point x="590" y="642" type="line"/>
			<point x="669" y="652" type="line"/>
			<point x="672" y="668" type="line"/>
		</contour>
	</outline>
	<anchor name="aboveUC" x="410" y="691"/>
	<anchor name="belowLC" x="256" y="-22"/>
</glyph>
<glyph name="W" format="2">
	<unicode hex="0057"/>
	<advance width="874"/>
	<outline>
		<contour>
			<point x="546" y="668" type="line"/>
			<point x="518" y="668" type="line"/>
			<point x="237" y="92" type="line"/>
			<point x="256" y="92" type="line"/>
			<point x="218" y="668" type="line"/>
			<point x="149" y="668" type="line"/>
			<point x="199" y="-6" type="line"/>
			<point x="219" y="-6" type="line"/>
		</contour>
		<contour>
			<point x="88" y="668" type="line"/>
			<point x="84" y="648" type="line"/>
			<point x="174" y="636" type="line"/>
			<point x="186" y="636" type="line"/>
			<point x="312" y="648" type="line"/>
			<point x="316" y="668" type="line"/>
		</contour>
		<contour>
			<point x="884" y="668" type="line"/>
			<point x="852" y="668" type="line"/>
			<point x="592" y="92" type="line"/>
			<point x="611" y="92" type="line"/>
			<point x="553" y="668" type="line"/>
			<point x="495" y="586" type="line"/>
			<point x="553" y="-6" type="line"/>
			<point x="573" y="-6" type="line"/>
		</contour>
		<contour>
			<point x="750" y="668" type="line"/>
			<point x="746" y="648" type="line"/>
			<point x="848" y="638" type="line"/>
			<point x="860" y="638" type="line"/>
			<point x="944" y="648" type="line"/>
			<point x="948" y="668" type="line"/>
		</contour>
		<contour>
			<point x="426" y="668" type="line"/>
			<point x="422" y="648" type="line"/>
			<point x="507" y="639" type="line"/>
			<point x="530" y="636" type="line"/>
			<point x="640" y="648" type="line"/>
			<point x="644" y="668" type="line"/>
		</contour>
	</outline>
</glyph>
<glyph name="X" format="2">
	<unicode hex="0058"/>
	<advance width="604"/>
	<outline>
		<contour>
			<point x="-32" y="0" type="line"/>
			<point x="163" y="0" type="line"/>
			<point x="166" y="16" type="line"/>
			<point x="79" y="26" type="line"/>
			<point x="51" y="26" type="line"/>
			<point x="-29" y="16" type="line"/>
		</contour>
		<contour>
			<point x="28" y="0" type="line"/>
			<point x="60" y="0" type="line"/>
			<point x="317" y="330" type="line"/>
			<point x="302" y="348" type="line"/>
		</contour>
		<contour>
			<point x="97" y="654" type="line"/>
			<point x="191" y="642" type="line"/>
			<point x="213" y="642" type="line"/>
			<point x="315" y="654" type="line"/>
			<point x="318" y="670" type="line"/>
			<point x="100" y="670" type="line"/>
		</contour>
		<contour>
			<point x="433" y="0" type="line"/>
			<point x="501" y="0" type="line"/>
			<point x="348" y="367" type="line"/>
			<point x="346" y="372" type="line"/>
			<point x="223" y="670" type="line"/>
			<point x="155" y="670" type="line"/>
			<point x="296" y="329" type="line"/>
			<point x="298" y="325" type="line"/>
		</contour>
		<contour>
			<point x="338" y="0" type="line"/>
			<point x="556" y="0" type="line"/>
			<point x="559" y="16" type="line"/>
			<point x="469" y="28" type="line"/>
			<point x="447" y="28" type="line"/>
			<point x="341" y="16" type="line"/>
		</contour>
		<contour>
			<point x="312" y="340" type="line"/>
			<point x="326" y="322" type="line"/>
			<point x="600" y="670" type="line"/>
			<point x="568" y="670" type="line"/>
		</contour>
		<contour>
			<point x="463" y="654" type="line"/>
			<point x="550" y="644" type="line"/>
			<point x="578" y="644" type="line"/>
			<point x="659" y="654" type="line"/>
			<point x="662" y="670" type="line"/>
			<point x="466" y="670" type="line"/>
		</contour>
	</outline>
	<anchor name="aboveUC" x="376" y="690"/>
	<anchor name="belowLC" x="251" y="-20"/>
</glyph>
<glyph name="Y" format="2">
	<unicode hex="0059"/>
	<advance width="562"/>
	<outline>
		<contour>
			<point x="377" y="0" type="line"/>
			<point x="380" y="16" type="line"/>
			<point x="263" y="28" type="line"/>
			<point x="239" y="28" type="line"/>
			<point x="123" y="16" type="line"/>
			<point x="120" y="0" type="line"/>
		</contour>
		<contour>
			<point x="589" y="668" type="line"/>
			<point x="560" y="668" type="line"/>
			<point x="316" y="296" type="line"/>
			<point x="321" y="296" type="line"/>
			<point x="209" y="668" type="line"/>
			<point x="142" y="668" type="line"/>
			<point x="281" y="210" type="line"/>
			<point x="289" y="210" type="line"/>
		</contour>
		<contour>
			<point x="83" y="668" type="line"/>
			<point x="80" y="652" type="line"/>
			<point x="172" y="640" type="line"/>
			<point x="194" y="640" type="line"/>
			<point x="304" y="652" type="line"/>
			<point x="307" y="668" type="line"/>
		</contour>
		<contour>
			<point x="462" y="668" type="line"/>
			<point x="459" y="652" type="line"/>
			<point x="546" y="642" type="line"/>
			<point x="567" y="642" type="line"/>
			<point x="649" y="652" type="line"/>
			<point x="652" y="668" type="line"/>
		</contour>
		<contour>
			<point x="268" y="292" type="line"/>
			<point x="214" y="0" type="line"/>
			<point x="282" y="0" type="line"/>
			<point x="298" y="105"/>
			<point x="307" y="163"/>
			<point x="330" y="292" type="curve" smooth="yes"/>
			<point x="330" y="294" type="line"/>
			<point x="268" y="294" type="line"/>
		</contour>
	</outline>
	<anchor name="aboveUC" x="386" y="691"/>
	<anchor name="belowLC" x="250" y="-22"/>
</glyph>
<glyph name="Z" format="2">
  <advance width="518"/>
  <unicode hex="005A"/>
  <anchor x="346" y="692" name="aboveUC"/>
  <anchor x="254" y="-24" name="belowLC"/>
  <outline>
    <contour>
      <point x="24" y="0" type="line"/>
      <point x="100" y="0" type="line"/>
      <point x="100" y="22" type="line"/>
      <point x="561" y="652" type="line"/>
      <point x="563" y="668" type="line"/>
      <point x="487" y="668" type="line"/>
      <point x="487" y="646" type="line"/>
      <point x="27" y="16" type="line"/>
    </contour>
    <contour>
      <point x="112" y="492" type="line"/>
      <point x="128" y="492" type="line"/>
      <point x="213" y="656" type="line"/>
      <point x="171" y="644" type="line"/>
      <point x="533" y="644" type="line"/>
      <point x="533" y="668" type="line"/>
      <point x="149" y="668" type="line"/>
    </contour>
    <contour>
      <point x="54" y="0" type="line"/>
      <point x="462" y="0" type="line"/>
      <point x="508" y="188" type="line"/>
      <point x="492" y="188" type="line"/>
      <point x="400" y="12" type="line"/>
      <point x="442" y="24" type="line"/>
      <point x="54" y="24" type="line"/>
    </contour>
  </outline>
</glyph>
<glyph name="bracketleft" format="2">
	<unicode hex="005B"/>
	<advance width="302"/>
	<outline>
		<contour>
			<point x="25" y="-161" type="line"/>
			<point x="91" y="-161" type="line"/>
			<point x="102" y="-81"/>
			<point x="126" y="49"/>
			<point x="145" y="155" type="curve" smooth="yes"/>
			<point x="248" y="715" type="line"/>
			<point x="183" y="715" type="line"/>
			<point x="172" y="635"/>
			<point x="149" y="510"/>
			<point x="130" y="407" type="curve" smooth="yes"/>
		</contour>
		<contour>
			<point x="46" y="-161" type="line"/>
			<point x="186" y="-161" type="line"/>
			<point x="189" y="-145" type="line"/>
			<point x="72" y="-131" type="line"/>
			<point x="51" y="-131" type="line"/>
		</contour>
		<contour>
			<point x="203" y="685" type="line"/>
			<point x="224" y="685" type="line"/>
			<point x="345" y="699" type="line"/>
			<point x="348" y="715" type="line"/>
			<point x="208" y="715" type="line"/>
		</contour>
	</outline>
</glyph>
<glyph name="asciicircum" format="2">
	<unicode hex="005E"/>
	<advance width="496"/>
	<outline>
		<contour>
			<point x="94" y="232" type="line"/>
			<point x="120" y="216" type="line"/>
			<point x="269" y="468" type="line"/>
			<point x="251" y="468" type="line"/>
			<point x="400" y="216" type="line"/>
			<point x="426" y="232" type="line"/>
			<point x="270" y="500" type="line"/>
			<point x="250" y="500" type="line"/>
		</contour>
	</outline>
</glyph>
<glyph name="a" format="2">
	<unicode hex="0061"/>
	<advance width="495"/>
	<outline>
		<contour>
			<point x="140" y="-12" type="curve" smooth="yes"/>
			<point x="214" y="-12"/>
			<point x="283" y="66"/>
			<point x="349" y="166" type="curve"/>
			<point x="342" y="170" type="line"/>
			<point x="262" y="74"/>
			<point x="210" y="36"/>
			<point x="170" y="36" type="curve" smooth="yes"/>
			<point x="128" y="36"/>
			<point x="114" y="74"/>
			<point x="114" y="132" type="curve" smooth="yes"/>
			<point x="114" y="198"/>
			<point x="142" y="300"/>
			<point x="195" y="363" type="curve" smooth="yes"/>
			<point x="223" y="397"/>
			<point x="259" y="420"/>
			<point x="302" y="420" type="curve" smooth="yes"/>
			<point x="348" y="420"/>
			<point x="376" y="391"/>
			<point x="394" y="368" type="curve"/>
			<point x="417" y="407" type="line"/>
			<point x="395" y="443"/>
			<point x="358" y="464"/>
			<point x="324" y="464" type="curve" smooth="yes"/>
			<point x="202" y="464"/>
			<point x="52" y="256"/>
			<point x="52" y="108" type="curve" smooth="yes"/>
			<point x="52" y="24"/>
			<point x="92" y="-12"/>
		</contour>
		<contour>
			<point x="354" y="-12" type="curve" smooth="yes"/>
			<point x="414" y="-12"/>
			<point x="453" y="44"/>
			<point x="484" y="95" type="curve"/>
			<point x="472" y="104" type="line"/>
			<point x="437" y="64"/>
			<point x="403" y="38"/>
			<point x="379" y="38" type="curve" smooth="yes"/>
			<point x="369" y="38"/>
			<point x="363" y="44"/>
			<point x="363" y="54" type="curve" smooth="yes"/>
			<point x="363" y="68"/>
			<point x="366" y="80"/>
			<point x="370" y="101" type="curve" smooth="yes"/>
			<point x="444" y="464" type="line"/>
			<point x="436" y="472" type="line"/>
			<point x="377" y="424" type="line"/>
			<point x="310" y="94" type="line" smooth="yes"/>
			<point x="303" y="59"/>
			<point x="302" y="46"/>
			<point x="302" y="35" type="curve" smooth="yes"/>
			<point x="302" y="5"/>
			<point x="327" y="-12"/>
		</contour>
	</outline>
	<anchor name="aboveLC" x="297" y="480"/>
	<anchor name="belowLC" x="234" y="-24"/>
	<anchor name="ogonek" x="392" y="0"/>
</glyph>
<glyph name="b" format="2">
	<unicode hex="0062"/>
	<advance width="465"/>
	<outline>
		<contour>
			<point x="162" y="-12" type="curve" smooth="yes"/>
			<point x="290" y="-12"/>
			<point x="438" y="196"/>
			<point x="438" y="344" type="curve" smooth="yes"/>
			<point x="438" y="428"/>
			<point x="394" y="464"/>
			<point x="345" y="464" type="curve" smooth="yes"/>
			<point x="272" y="464"/>
			<point x="199" y="386"/>
			<point x="133" y="286" type="curve"/>
			<point x="130" y="286" type="line"/>
			<point x="140" y="282" type="line"/>
			<point x="220" y="378"/>
			<point x="276" y="416"/>
			<point x="316" y="416" type="curve" smooth="yes"/>
			<point x="359" y="416"/>
			<point x="376" y="382"/>
			<point x="376" y="320" type="curve" smooth="yes"/>
			<point x="376" y="253"/>
			<point x="348" y="151"/>
			<point x="294" y="88" type="curve" smooth="yes"/>
			<point x="266" y="54"/>
			<point x="231" y="32"/>
			<point x="189" y="32" type="curve" smooth="yes"/>
			<point x="139" y="32"/>
			<point x="125" y="70"/>
			<point x="125" y="113" type="curve" smooth="yes"/>
			<point x="125" y="159"/>
			<point x="141" y="211"/>
			<point x="145" y="231" type="curve" smooth="yes"/>
			<point x="162" y="312" type="line"/>
			<point x="165" y="327" type="line"/>
			<point x="249" y="737" type="line"/>
			<point x="239" y="745" type="line"/>
			<point x="92" y="697" type="line"/>
			<point x="90" y="681" type="line"/>
			<point x="188" y="673" type="line"/>
			<point x="181" y="691" type="line"/>
			<point x="82" y="213" type="line" smooth="yes"/>
			<point x="74" y="177"/>
			<point x="64" y="137"/>
			<point x="64" y="103" type="curve" smooth="yes"/>
			<point x="64" y="38"/>
			<point x="90" y="-12"/>
		</contour>
	</outline>
	<anchor name="aboveLC" x="205" y="745"/>
	<anchor name="belowLC" x="205" y="-20"/>
</glyph>
<glyph name="c" format="2">
	<unicode hex="0063"/>
	<advance width="376"/>
	<outline>
		<contour>
			<point x="174" y="-12" type="curve" smooth="yes"/>
			<point x="244" y="-12"/>
			<point x="300" y="36"/>
			<point x="334" y="102" type="curve"/>
			<point x="322" y="111" type="line"/>
			<point x="296" y="79"/>
			<point x="246" y="32"/>
			<point x="192" y="32" type="curve" smooth="yes"/>
			<point x="130" y="32"/>
			<point x="86" y="77"/>
			<point x="86" y="164" type="curve" smooth="yes"/>
			<point x="86" y="322"/>
			<point x="176" y="446"/>
			<point x="276" y="446" type="curve"/>
			<point x="276" y="456" type="line"/>
			<point x="232" y="456" type="line"/>
			<point x="277" y="400" type="line" smooth="yes"/>
			<point x="292" y="380"/>
			<point x="308" y="364"/>
			<point x="332" y="364" type="curve" smooth="yes"/>
			<point x="352" y="364"/>
			<point x="370" y="374"/>
			<point x="370" y="400" type="curve"/>
			<point x="358" y="440"/>
			<point x="314" y="464"/>
			<point x="270" y="464" type="curve" smooth="yes"/>
			<point x="152" y="464"/>
			<point x="28" y="326"/>
			<point x="28" y="156" type="curve" smooth="yes"/>
			<point x="28" y="48"/>
			<point x="88" y="-12"/>
		</contour>
	</outline>
	<anchor name="aboveLC" x="250" y="472"/>
	<anchor name="belowLC" x="173" y="-20"/>
	<anchor name="baseLC" x="175" y="0"/>
</glyph>
<glyph name="d" format="2">
	<unicode hex="0064"/>
	<advance width="501"/>
	<outline>
		<contour>
			<point x="122" y="-12" type="curve" smooth="yes"/>
			<point x="197" y="-12"/>
			<point x="265" y="66"/>
			<point x="330" y="164" type="curve"/>
			<point x="333" y="164" type="line"/>
			<point x="324" y="168" type="line"/>
			<point x="245" y="74"/>
			<point x="193" y="37"/>
			<point x="154" y="37" type="curve" smooth="yes"/>
			<point x="112" y="37"/>
			<point x="99" y="75"/>
			<point x="99" y="132" type="curve" smooth="yes"/>
			<point x="99" y="204"/>
			<point x="132" y="317"/>
			<point x="192" y="378" type="curve" smooth="yes"/>
			<point x="218" y="403"/>
			<point x="250" y="420"/>
			<point x="285" y="420" type="curve" smooth="yes"/>
			<point x="330" y="420"/>
			<point x="358" y="391"/>
			<point x="376" y="368" type="curve"/>
			<point x="402" y="407" type="line"/>
			<point x="379" y="443"/>
			<point x="342" y="464"/>
			<point x="307" y="464" type="curve" smooth="yes"/>
			<point x="184" y="464"/>
			<point x="34" y="256"/>
			<point x="34" y="108" type="curve" smooth="yes"/>
			<point x="34" y="24"/>
			<point x="74" y="-12"/>
		</contour>
		<contour>
			<point x="337" y="-12" type="curve" smooth="yes"/>
			<point x="397" y="-12"/>
			<point x="437" y="44"/>
			<point x="468" y="95" type="curve"/>
			<point x="456" y="105" type="line"/>
			<point x="421" y="65"/>
			<point x="388" y="39"/>
			<point x="364" y="39" type="curve" smooth="yes"/>
			<point x="354" y="39"/>
			<point x="348" y="45"/>
			<point x="348" y="55" type="curve" smooth="yes"/>
			<point x="348" y="69"/>
			<point x="351" y="81"/>
			<point x="355" y="102" type="curve" smooth="yes"/>
			<point x="486" y="736" type="line"/>
			<point x="477" y="744" type="line"/>
			<point x="330" y="702" type="line"/>
			<point x="327" y="688" type="line"/>
			<point x="427" y="671" type="line"/>
			<point x="417" y="694" type="line"/>
			<point x="363" y="431" type="line"/>
			<point x="360" y="425" type="line"/>
			<point x="299" y="129" type="line"/>
			<point x="292" y="94" type="line" smooth="yes"/>
			<point x="285" y="60"/>
			<point x="284" y="47"/>
			<point x="284" y="35" type="curve" smooth="yes"/>
			<point x="284" y="5"/>
			<point x="309" y="-12"/>
		</contour>
	</outline>
	<anchor name="aboveLC" x="433" y="744"/>
	<anchor name="belowLC" x="214" y="-20"/>
</glyph>
<glyph name="e" format="2">
	<unicode hex="0065"/>
	<advance width="376"/>
	<outline>
		<contour>
			<point x="180" y="-12" type="curve" smooth="yes"/>
			<point x="255" y="-12"/>
			<point x="312" y="36"/>
			<point x="350" y="102" type="curve"/>
			<point x="338" y="110" type="line"/>
			<point x="310" y="78"/>
			<point x="259" y="36"/>
			<point x="208" y="36" type="curve" smooth="yes"/>
			<point x="151" y="36"/>
			<point x="104" y="74"/>
			<point x="104" y="152" type="curve" smooth="yes"/>
			<point x="104" y="315"/>
			<point x="217" y="444"/>
			<point x="288" y="444" type="curve" smooth="yes"/>
			<point x="319" y="444"/>
			<point x="332" y="417"/>
			<point x="332" y="388" type="curve" smooth="yes"/>
			<point x="332" y="318"/>
			<point x="272" y="245"/>
			<point x="86" y="194" type="curve"/>
			<point x="90" y="176" type="line"/>
			<point x="336" y="242"/>
			<point x="388" y="319"/>
			<point x="388" y="388" type="curve" smooth="yes"/>
			<point x="388" y="439"/>
			<point x="353" y="464"/>
			<point x="294" y="464" type="curve" smooth="yes"/>
			<point x="182" y="464"/>
			<point x="44" y="314"/>
			<point x="44" y="136" type="curve" smooth="yes"/>
			<point x="44" y="40"/>
			<point x="100" y="-12"/>
		</contour>
	</outline>
	<anchor name="aboveLC" x="276" y="480"/>
	<anchor name="belowLC" x="179" y="-24"/>
	<anchor name="ogonek" x="233" y="0"/>
</glyph>
<glyph name="f" format="2">
	<unicode hex="0066"/>
	<advance width="269"/>
	<outline>
		<contour>
			<point x="52" y="428" type="line"/>
			<point x="160" y="428" type="line"/>
			<point x="328" y="428" type="line"/>
			<point x="332" y="452" type="line"/>
			<point x="168" y="452" type="line"/>
			<point x="168" y="458" type="line"/>
			<point x="52" y="444" type="line"/>
		</contour>
		<contour>
			<point x="329" y="740" type="line"/>
			<point x="371" y="691" type="line" smooth="yes"/>
			<point x="391" y="668"/>
			<point x="405" y="656"/>
			<point x="425" y="656" type="curve" smooth="yes"/>
			<point x="440" y="656"/>
			<point x="455" y="666"/>
			<point x="459" y="687" type="curve"/>
			<point x="454" y="725"/>
			<point x="406" y="752"/>
			<point x="356" y="752" type="curve"/>
			<point x="296" y="752"/>
			<point x="184" y="702"/>
			<point x="150" y="484" type="curve" smooth="yes"/>
			<point x="78" y="24" type="line" smooth="yes"/>
			<point x="63" y="-70"/>
			<point x="28" y="-248"/>
			<point x="-84" y="-248" type="curve" smooth="yes"/>
			<point x="-49" y="-248" type="line"/>
			<point x="-20" y="-240" type="line"/>
			<point x="-44" y="-216" type="line" smooth="yes"/>
			<point x="-66" y="-194"/>
			<point x="-83" y="-180"/>
			<point x="-112" y="-180" type="curve" smooth="yes"/>
			<point x="-134" y="-180"/>
			<point x="-156" y="-192"/>
			<point x="-160" y="-213" type="curve"/>
			<point x="-151" y="-246"/>
			<point x="-116" y="-260"/>
			<point x="-76" y="-260" type="curve" smooth="yes"/>
			<point x="43" y="-260"/>
			<point x="116" y="-105"/>
			<point x="136" y="24" type="curve" smooth="yes"/>
			<point x="208" y="484" type="line" smooth="yes"/>
			<point x="239" y="684"/>
			<point x="312" y="744"/>
			<point x="380" y="744" type="curve"/>
			<point x="328" y="739" type="line"/>
		</contour>
	</outline>
</glyph>
<glyph name="g" format="2">
	<unicode hex="0067"/>
	<advance width="438"/>
	<outline>
		<contour>
			<point x="58" y="56" type="curve" smooth="yes"/>
			<point x="58" y="15"/>
			<point x="85" y="-6"/>
			<point x="142" y="-12" type="curve" smooth="yes"/>
			<point x="234" y="-22" type="line" smooth="yes"/>
			<point x="314" y="-31"/>
			<point x="330" y="-63"/>
			<point x="330" y="-108" type="curve" smooth="yes"/>
			<point x="330" y="-170"/>
			<point x="265" y="-224"/>
			<point x="160" y="-224" type="curve" smooth="yes"/>
			<point x="84" y="-224"/>
			<point x="36" y="-190"/>
			<point x="36" y="-136" type="curve" smooth="yes"/>
			<point x="36" y="-82"/>
			<point x="71" y="-39"/>
			<point x="134" y="-2" type="curve"/>
			<point x="132" y="7" type="line"/>
			<point x="55" y="-21"/>
			<point x="-20" y="-77"/>
			<point x="-20" y="-154" type="curve" smooth="yes"/>
			<point x="-20" y="-222"/>
			<point x="37" y="-260"/>
			<point x="124" y="-260" type="curve" smooth="yes"/>
			<point x="280" y="-260"/>
			<point x="384" y="-165"/>
			<point x="384" y="-68" type="curve" smooth="yes"/>
			<point x="384" y="-20"/>
			<point x="353" y="21"/>
			<point x="260" y="31" type="curve" smooth="yes"/>
			<point x="168" y="41" type="line" smooth="yes"/>
			<point x="122" y="46"/>
			<point x="104" y="63"/>
			<point x="104" y="84" type="curve" smooth="yes"/>
			<point x="104" y="102"/>
			<point x="112" y="123"/>
			<point x="152" y="166" type="curve"/>
			<point x="148" y="172" type="line"/>
			<point x="90" y="133"/>
			<point x="58" y="96"/>
		</contour>
		<contour>
			<point x="200" y="154" type="curve" smooth="yes"/>
			<point x="156" y="154"/>
			<point x="135" y="198"/>
			<point x="135" y="260" type="curve" smooth="yes"/>
			<point x="135" y="372"/>
			<point x="189" y="450"/>
			<point x="251" y="450" type="curve" smooth="yes"/>
			<point x="295" y="450"/>
			<point x="316" y="410"/>
			<point x="316" y="348" type="curve" smooth="yes"/>
			<point x="316" y="236"/>
			<point x="262" y="154"/>
		</contour>
		<contour>
			<point x="75" y="258" type="curve" smooth="yes"/>
			<point x="75" y="175"/>
			<point x="127" y="136"/>
			<point x="200" y="136" type="curve" smooth="yes"/>
			<point x="296" y="136"/>
			<point x="357" y="217"/>
			<point x="373" y="304" type="curve" smooth="yes"/>
			<point x="381" y="345"/>
			<point x="396" y="392"/>
			<point x="407" y="416" type="curve"/>
			<point x="384" y="401" type="line"/>
			<point x="445" y="406"/>
			<point x="490" y="412"/>
			<point x="490" y="452" type="curve" smooth="yes"/>
			<point x="490" y="459"/>
			<point x="487" y="469"/>
			<point x="484" y="474" type="curve"/>
			<point x="478" y="477"/>
			<point x="468" y="478"/>
			<point x="458" y="478" type="curve" smooth="yes"/>
			<point x="420" y="478"/>
			<point x="387" y="459"/>
			<point x="370" y="360" type="curve"/>
			<point x="370" y="352" type="line"/>
			<point x="368" y="431"/>
			<point x="322" y="468"/>
			<point x="251" y="468" type="curve" smooth="yes"/>
			<point x="153" y="468"/>
			<point x="75" y="374"/>
		</contour>
	</outline>
	<anchor name="aboveLC" x="250" y="480"/>
	<anchor name="belowLC" x="178" y="-260"/>
</glyph>
<glyph name="h" format="2">
	<unicode hex="0068"/>
	<advance width="512"/>
	<outline>
		<contour>
			<point x="54" y="-8" type="line"/>
			<point x="111" y="0" type="line"/>
			<point x="121" y="68"/>
			<point x="131" y="134"/>
			<point x="145" y="200" type="curve" smooth="yes"/>
			<point x="173" y="335" type="line"/>
			<point x="175" y="342" type="line"/>
			<point x="257" y="737" type="line"/>
			<point x="249" y="745" type="line"/>
			<point x="101" y="703" type="line"/>
			<point x="99" y="689" type="line"/>
			<point x="201" y="673" type="line"/>
			<point x="184" y="696" type="line"/>
			<point x="178" y="643"/>
			<point x="168" y="590"/>
			<point x="157" y="537" type="curve" smooth="yes"/>
			<point x="46" y="0" type="line"/>
		</contour>
		<contour>
			<point x="344" y="-12" type="curve" smooth="yes"/>
			<point x="406" y="-12"/>
			<point x="447" y="44"/>
			<point x="478" y="95" type="curve"/>
			<point x="466" y="104" type="line"/>
			<point x="431" y="64"/>
			<point x="395" y="38"/>
			<point x="375" y="38" type="curve" smooth="yes"/>
			<point x="366" y="38"/>
			<point x="357" y="45"/>
			<point x="357" y="57" type="curve" smooth="yes"/>
			<point x="357" y="67"/>
			<point x="360" y="85"/>
			<point x="365" y="106" type="curve" smooth="yes"/>
			<point x="410" y="305" type="line" smooth="yes"/>
			<point x="417" y="335"/>
			<point x="424" y="366"/>
			<point x="424" y="396" type="curve" smooth="yes"/>
			<point x="424" y="440"/>
			<point x="403" y="464"/>
			<point x="364" y="464" type="curve" smooth="yes"/>
			<point x="302" y="464"/>
			<point x="225" y="403"/>
			<point x="162" y="338" type="curve"/>
			<point x="157" y="338" type="line"/>
			<point x="157" y="319" type="line"/>
			<point x="233" y="382"/>
			<point x="287" y="412"/>
			<point x="327" y="412" type="curve" smooth="yes"/>
			<point x="347" y="412"/>
			<point x="363" y="399"/>
			<point x="363" y="372" type="curve" smooth="yes"/>
			<point x="363" y="349"/>
			<point x="353" y="309"/>
			<point x="346" y="278" type="curve" smooth="yes"/>
			<point x="303" y="91" type="line" smooth="yes"/>
			<point x="295" y="56"/>
			<point x="295" y="43"/>
			<point x="295" y="31" type="curve" smooth="yes"/>
			<point x="295" y="2"/>
			<point x="321" y="-12"/>
		</contour>
	</outline>
	<anchor name="aboveLC" x="225" y="745"/>
	<anchor name="belowLC" x="207" y="-20"/>
</glyph>
<glyph name="i" format="2">
	<unicode hex="0069"/>
	<advance width="284"/>
	<outline>
		<contour>
			<point x="228" y="456" type="line"/>
			<point x="220" y="464" type="line"/>
			<point x="74" y="422" type="line"/>
			<point x="72" y="408" type="line"/>
			<point x="172" y="392" type="line"/>
			<point x="158" y="401" type="line"/>
			<point x="93" y="91" type="line" smooth="yes"/>
			<point x="86" y="56"/>
			<point x="85" y="43"/>
			<point x="85" y="31" type="curve" smooth="yes"/>
			<point x="85" y="2"/>
			<point x="111" y="-12"/>
			<point x="134" y="-12" type="curve"/>
			<point x="196" y="-12"/>
			<point x="237" y="44"/>
			<point x="268" y="95" type="curve"/>
			<point x="256" y="104" type="line"/>
			<point x="221" y="64"/>
			<point x="185" y="38"/>
			<point x="165" y="38" type="curve"/>
			<point x="156" y="38"/>
			<point x="147" y="45"/>
			<point x="147" y="57" type="curve" smooth="yes"/>
			<point x="147" y="67"/>
			<point x="151" y="85"/>
			<point x="155" y="106" type="curve" smooth="yes"/>
		</contour>
		<contour>
			<point x="226" y="604" type="curve" smooth="yes"/>
			<point x="258" y="604"/>
			<point x="288" y="632"/>
			<point x="288" y="670" type="curve" smooth="yes"/>
			<point x="288" y="698"/>
			<point x="270" y="716"/>
			<point x="243" y="716" type="curve" smooth="yes"/>
			<point x="210" y="716"/>
			<point x="182" y="687"/>
			<point x="182" y="648" type="curve" smooth="yes"/>
			<point x="182" y="622"/>
			<point x="200" y="604"/>
		</contour>
	</outline>
	<anchor name="aboveLC" x="240" y="736"/>
	<anchor name="belowLC" x="138" y="-22"/>
	<anchor name="ogonek" x="181" y="0"/>
</glyph>
<glyph name="j" format="2">
	<unicode hex="006A"/>
	<advance width="245"/>
	<outline>
		<contour>
			<point x="223" y="604" type="curve" smooth="yes"/>
			<point x="255" y="604"/>
			<point x="285" y="632"/>
			<point x="285" y="670" type="curve" smooth="yes"/>
			<point x="285" y="698"/>
			<point x="267" y="716"/>
			<point x="240" y="716" type="curve" smooth="yes"/>
			<point x="207" y="716"/>
			<point x="179" y="687"/>
			<point x="179" y="648" type="curve" smooth="yes"/>
			<point x="179" y="622"/>
			<point x="197" y="604"/>
		</contour>
		<contour>
			<point x="-81" y="-264" type="line"/>
			<point x="-43" y="-256"/>
			<point x="-11" y="-239"/>
			<point x="16" y="-217" type="curve" smooth="yes"/>
			<point x="77" y="-166"/>
			<point x="112" y="-86"/>
			<point x="128" y="-8" type="curve" smooth="yes"/>
			<point x="224" y="456" type="line"/>
			<point x="216" y="464" type="line"/>
			<point x="70" y="422" type="line"/>
			<point x="68" y="408" type="line"/>
			<point x="168" y="392" type="line"/>
			<point x="154" y="403" type="line"/>
			<point x="73" y="16" type="line" smooth="yes"/>
			<point x="56" y="-63"/>
			<point x="39" y="-143"/>
			<point x="-8" y="-195" type="curve" smooth="yes"/>
			<point x="-28" y="-217"/>
			<point x="-53" y="-235"/>
			<point x="-86" y="-248" type="curve"/>
		</contour>
	</outline>
	<anchor name="aboveLC" x="238" y="704"/>
	<anchor name="belowLC" x="44" y="-260"/>
</glyph>
<glyph name="k" format="2">
	<unicode hex="006B"/>
	<advance width="440"/>
	<outline>
		<contour>
			<point x="64" y="0" type="line"/>
			<point x="72" y="-8" type="line"/>
			<point x="129" y="0" type="line"/>
			<point x="139" y="68"/>
			<point x="149" y="134"/>
			<point x="163" y="200" type="curve" smooth="yes"/>
			<point x="275" y="737" type="line"/>
			<point x="267" y="745" type="line"/>
			<point x="119" y="703" type="line"/>
			<point x="117" y="689" type="line"/>
			<point x="219" y="673" type="line"/>
			<point x="202" y="696" type="line"/>
			<point x="196" y="643"/>
			<point x="186" y="590"/>
			<point x="175" y="537" type="curve" smooth="yes"/>
		</contour>
		<contour>
			<point x="439" y="4" type="curve"/>
			<point x="441" y="17" type="line"/>
			<point x="409" y="19" type="line" smooth="yes"/>
			<point x="371" y="22"/>
			<point x="359" y="38"/>
			<point x="336" y="90" type="curve" smooth="yes"/>
			<point x="317" y="133" type="line" smooth="yes"/>
			<point x="285" y="205"/>
			<point x="253" y="228"/>
			<point x="196" y="241" type="curve" smooth="yes"/>
			<point x="178" y="245" type="line"/>
			<point x="179" y="240" type="line"/>
			<point x="411" y="379" type="line" smooth="yes"/>
			<point x="444" y="398"/>
			<point x="454" y="410"/>
			<point x="454" y="427" type="curve" smooth="yes"/>
			<point x="454" y="446"/>
			<point x="441" y="460"/>
			<point x="426" y="461" type="curve"/>
			<point x="166" y="247" type="line"/>
			<point x="167" y="230" type="line"/>
			<point x="181" y="226" type="line" smooth="yes"/>
			<point x="219" y="215"/>
			<point x="232" y="185"/>
			<point x="252" y="137" type="curve" smooth="yes"/>
			<point x="282" y="64" type="line" smooth="yes"/>
			<point x="308" y="0"/>
			<point x="341" y="-12"/>
			<point x="381" y="-12" type="curve" smooth="yes"/>
			<point x="404" y="-12"/>
			<point x="424" y="-6"/>
		</contour>
	</outline>
	<anchor name="aboveLC" x="230" y="732"/>
	<anchor name="belowLC" x="246" y="-24"/>
</glyph>
<glyph name="l" format="2">
	<unicode hex="006C"/>
	<advance width="272"/>
	<outline>
		<contour>
			<point x="100" y="-12" type="curve" smooth="yes"/>
			<point x="162" y="-12"/>
			<point x="207" y="44"/>
			<point x="238" y="95" type="curve"/>
			<point x="226" y="104" type="line"/>
			<point x="191" y="64"/>
			<point x="155" y="38"/>
			<point x="135" y="38" type="curve" smooth="yes"/>
			<point x="126" y="38"/>
			<point x="117" y="45"/>
			<point x="117" y="57" type="curve" smooth="yes"/>
			<point x="117" y="67"/>
			<point x="121" y="85"/>
			<point x="125" y="106" type="curve" smooth="yes"/>
			<point x="255" y="737" type="line"/>
			<point x="247" y="745" type="line"/>
			<point x="101" y="703" type="line"/>
			<point x="99" y="689" type="line"/>
			<point x="199" y="673" type="line"/>
			<point x="182" y="696" type="line"/>
			<point x="176" y="643"/>
			<point x="166" y="590"/>
			<point x="155" y="537" type="curve" smooth="yes"/>
			<point x="63" y="91" type="line" smooth="yes"/>
			<point x="56" y="56"/>
			<point x="55" y="43"/>
			<point x="55" y="31" type="curve" smooth="yes"/>
			<point x="55" y="2"/>
			<point x="77" y="-12"/>
		</contour>
	</outline>
	<anchor name="aboveLC" x="215" y="745"/>
	<anchor name="belowLC" x="125" y="-20"/>
</glyph>
<glyph name="m" format="2">
	<unicode hex="006D"/>
	<advance width="748"/>
	<outline>
		<contour>
			<point x="428" y="303" type="line"/>
			<point x="435" y="333"/>
			<point x="442" y="366"/>
			<point x="442" y="396" type="curve" smooth="yes"/>
			<point x="442" y="440"/>
			<point x="418" y="464"/>
			<point x="379" y="464" type="curve" smooth="yes"/>
			<point x="317" y="464"/>
			<point x="244" y="401"/>
			<point x="181" y="336" type="curve"/>
			<point x="176" y="319" type="line"/>
			<point x="252" y="382"/>
			<point x="306" y="416"/>
			<point x="346" y="416" type="curve" smooth="yes"/>
			<point x="366" y="416"/>
			<point x="382" y="403"/>
			<point x="382" y="376" type="curve" smooth="yes"/>
			<point x="382" y="353"/>
			<point x="372" y="311"/>
			<point x="366" y="280" type="curve" smooth="yes"/>
			<point x="308" y="0" type="line"/>
			<point x="318" y="-8" type="line"/>
			<point x="373" y="0" type="line"/>
			<point x="383" y="68"/>
			<point x="393" y="134"/>
			<point x="407" y="200" type="curve" smooth="yes"/>
		</contour>
		<contour>
			<point x="141" y="0" type="line"/>
			<point x="151" y="68"/>
			<point x="162" y="134"/>
			<point x="175" y="200" type="curve" smooth="yes"/>
			<point x="206" y="352" type="line"/>
			<point x="228" y="456" type="line"/>
			<point x="220" y="464" type="line"/>
			<point x="74" y="422" type="line"/>
			<point x="72" y="408" type="line"/>
			<point x="172" y="392" type="line"/>
			<point x="159" y="401" type="line"/>
			<point x="76" y="0" type="line"/>
			<point x="84" y="-8" type="line"/>
		</contour>
		<contour>
			<point x="664" y="305" type="line" smooth="yes"/>
			<point x="671" y="335"/>
			<point x="678" y="366"/>
			<point x="678" y="396" type="curve" smooth="yes"/>
			<point x="678" y="440"/>
			<point x="653" y="464"/>
			<point x="614" y="464" type="curve" smooth="yes"/>
			<point x="552" y="464"/>
			<point x="479" y="401"/>
			<point x="416" y="336" type="curve"/>
			<point x="411" y="319" type="line"/>
			<point x="487" y="382"/>
			<point x="541" y="416"/>
			<point x="581" y="416" type="curve" smooth="yes"/>
			<point x="601" y="416"/>
			<point x="617" y="403"/>
			<point x="617" y="376" type="curve" smooth="yes"/>
			<point x="617" y="353"/>
			<point x="607" y="309"/>
			<point x="600" y="278" type="curve" smooth="yes"/>
			<point x="557" y="91" type="line" smooth="yes"/>
			<point x="549" y="56"/>
			<point x="549" y="43"/>
			<point x="549" y="31" type="curve" smooth="yes"/>
			<point x="549" y="2"/>
			<point x="575" y="-12"/>
			<point x="598" y="-12" type="curve" smooth="yes"/>
			<point x="660" y="-12"/>
			<point x="701" y="44"/>
			<point x="732" y="95" type="curve"/>
			<point x="720" y="104" type="line"/>
			<point x="685" y="64"/>
			<point x="649" y="38"/>
			<point x="629" y="38" type="curve" smooth="yes"/>
			<point x="620" y="38"/>
			<point x="611" y="45"/>
			<point x="611" y="57" type="curve" smooth="yes"/>
			<point x="611" y="67"/>
			<point x="614" y="85"/>
			<point x="619" y="106" type="curve" smooth="yes"/>
		</contour>
	</outline>
</glyph>
<glyph name="n" format="2">
	<unicode hex="006E"/>
	<advance width="529"/>
	<outline>
		<contour>
			<point x="310" y="32" type="curve" smooth="yes"/>
			<point x="310" y="2"/>
			<point x="336" y="-12"/>
			<point x="360" y="-12" type="curve" smooth="yes"/>
			<point x="423" y="-12"/>
			<point x="464" y="44"/>
			<point x="495" y="95" type="curve"/>
			<point x="483" y="105" type="line"/>
			<point x="449" y="65"/>
			<point x="413" y="39"/>
			<point x="393" y="39" type="curve" smooth="yes"/>
			<point x="384" y="39"/>
			<point x="375" y="46"/>
			<point x="375" y="58" type="curve" smooth="yes"/>
			<point x="375" y="68"/>
			<point x="378" y="86"/>
			<point x="383" y="107" type="curve" smooth="yes"/>
			<point x="428" y="305" type="line" smooth="yes"/>
			<point x="435" y="335"/>
			<point x="442" y="366"/>
			<point x="442" y="396" type="curve" smooth="yes"/>
			<point x="442" y="440"/>
			<point x="421" y="464"/>
			<point x="382" y="464" type="curve" smooth="yes"/>
			<point x="319" y="464"/>
			<point x="243" y="404"/>
			<point x="179" y="338" type="curve"/>
			<point x="173" y="338" type="line"/>
			<point x="175" y="319" type="line"/>
			<point x="250" y="381"/>
			<point x="303" y="411"/>
			<point x="343" y="411" type="curve" smooth="yes"/>
			<point x="362" y="411"/>
			<point x="378" y="398"/>
			<point x="378" y="372" type="curve" smooth="yes"/>
			<point x="378" y="349"/>
			<point x="368" y="309"/>
			<point x="361" y="278" type="curve" smooth="yes"/>
			<point x="319" y="93" type="line" smooth="yes"/>
			<point x="311" y="58"/>
			<point x="310" y="44"/>
		</contour>
		<contour>
			<point x="129" y="0" type="line"/>
			<point x="139" y="68"/>
			<point x="149" y="134"/>
			<point x="163" y="200" type="curve" smooth="yes"/>
			<point x="191" y="339" type="line"/>
			<point x="192" y="345" type="line"/>
			<point x="216" y="456" type="line"/>
			<point x="207" y="464" type="line"/>
			<point x="59" y="422" type="line"/>
			<point x="57" y="408" type="line"/>
			<point x="157" y="392" type="line"/>
			<point x="144" y="401" type="line"/>
			<point x="61" y="0" type="line"/>
			<point x="69" y="-8" type="line"/>
		</contour>
	</outline>
	<anchor name="aboveLC" x="284" y="472"/>
	<anchor name="belowLC" x="227" y="-20"/>
</glyph>
<glyph name="o" format="2">
	<unicode hex="006F"/>
	<advance width="436"/>
	<outline>
		<contour>
			<point x="178" y="-12" type="curve" smooth="yes"/>
			<point x="309" y="-12"/>
			<point x="406" y="132"/>
			<point x="406" y="292" type="curve" smooth="yes"/>
			<point x="406" y="407"/>
			<point x="339" y="464"/>
			<point x="258" y="464" type="curve" smooth="yes"/>
			<point x="127" y="464"/>
			<point x="30" y="320"/>
			<point x="30" y="160" type="curve" smooth="yes"/>
			<point x="30" y="45"/>
			<point x="97" y="-12"/>
		</contour>
		<contour>
			<point x="178" y="8" type="curve" smooth="yes"/>
			<point x="119" y="8"/>
			<point x="92" y="60"/>
			<point x="92" y="156" type="curve" smooth="yes"/>
			<point x="92" y="317"/>
			<point x="170" y="444"/>
			<point x="258" y="444" type="curve" smooth="yes"/>
			<point x="317" y="444"/>
			<point x="344" y="392"/>
			<point x="344" y="296" type="curve" smooth="yes"/>
			<point x="344" y="135"/>
			<point x="266" y="8"/>
		</contour>
	</outline>
	<anchor name="aboveLC" x="255" y="472"/>
	<anchor name="belowLC" x="175" y="-20"/>
	<anchor name="hornLC" x="340" y="370"/>
	<anchor name="ogonek" x="233" y="0"/>
</glyph>
<glyph name="p" format="2">
	<unicode hex="0070"/>
	<advance width="480"/>
	<outline>
		<contour>
			<point x="182" y="-12" type="curve" smooth="yes"/>
			<point x="304" y="-12"/>
			<point x="454" y="196"/>
			<point x="454" y="344" type="curve" smooth="yes"/>
			<point x="454" y="428"/>
			<point x="414" y="464"/>
			<point x="366" y="464" type="curve"/>
			<point x="292" y="464"/>
			<point x="223" y="386"/>
			<point x="157" y="286" type="curve"/>
			<point x="153" y="286" type="line"/>
			<point x="164" y="282" type="line"/>
			<point x="244" y="378"/>
			<point x="296" y="416"/>
			<point x="336" y="416" type="curve" smooth="yes"/>
			<point x="382" y="416"/>
			<point x="392" y="378"/>
			<point x="392" y="320" type="curve" smooth="yes"/>
			<point x="392" y="248"/>
			<point x="359" y="135"/>
			<point x="297" y="74" type="curve" smooth="yes"/>
			<point x="271" y="48"/>
			<point x="240" y="32"/>
			<point x="204" y="32" type="curve" smooth="yes"/>
			<point x="158" y="32"/>
			<point x="130" y="61"/>
			<point x="112" y="84" type="curve"/>
			<point x="89" y="45" type="line"/>
			<point x="111" y="9"/>
			<point x="148" y="-12"/>
		</contour>
		<contour>
			<point x="6" y="-260" type="line"/>
			<point x="70" y="-260" type="line"/>
			<point x="79" y="-196"/>
			<point x="99" y="-102"/>
			<point x="124" y="21" type="curve" smooth="yes"/>
			<point x="128" y="38" type="line"/>
			<point x="184" y="313" type="line"/>
			<point x="186" y="323" type="line"/>
			<point x="214" y="456" type="line"/>
			<point x="206" y="464" type="line"/>
			<point x="60" y="422" type="line"/>
			<point x="58" y="408" type="line"/>
			<point x="158" y="392" type="line"/>
			<point x="145" y="401" type="line"/>
		</contour>
		<contour>
			<point x="-80" y="-260" type="line"/>
			<point x="164" y="-260" type="line"/>
			<point x="167" y="-244" type="line"/>
			<point x="65" y="-231" type="line"/>
			<point x="25" y="-231" type="line"/>
			<point x="-76" y="-244" type="line"/>
		</contour>
	</outline>
	<anchor name="aboveLC" x="286" y="472"/>
	<anchor name="belowLC" x="38" y="-280"/>
</glyph>
<glyph name="q" format="2">
	<unicode hex="0071"/>
	<advance width="460"/>
	<outline>
		<contour>
			<point x="112" y="-260" type="line"/>
			<point x="363" y="-260" type="line"/>
			<point x="367" y="-244" type="line"/>
			<point x="269" y="-232" type="line"/>
			<point x="229" y="-232" type="line"/>
			<point x="116" y="-244" type="line"/>
		</contour>
		<contour>
			<point x="122" y="-12" type="curve" smooth="yes"/>
			<point x="196" y="-12"/>
			<point x="265" y="66"/>
			<point x="331" y="166" type="curve"/>
			<point x="336" y="166" type="line"/>
			<point x="324" y="170" type="line"/>
			<point x="244" y="74"/>
			<point x="192" y="36"/>
			<point x="152" y="36" type="curve" smooth="yes"/>
			<point x="110" y="36"/>
			<point x="96" y="74"/>
			<point x="96" y="132" type="curve" smooth="yes"/>
			<point x="96" y="196"/>
			<point x="122" y="294"/>
			<point x="172" y="358" type="curve" smooth="yes"/>
			<point x="202" y="395"/>
			<point x="239" y="420"/>
			<point x="284" y="420" type="curve" smooth="yes"/>
			<point x="330" y="420"/>
			<point x="358" y="391"/>
			<point x="376" y="368" type="curve"/>
			<point x="399" y="407" type="line"/>
			<point x="377" y="443"/>
			<point x="340" y="464"/>
			<point x="306" y="464" type="curve" smooth="yes"/>
			<point x="184" y="464"/>
			<point x="34" y="256"/>
			<point x="34" y="108" type="curve" smooth="yes"/>
			<point x="34" y="24"/>
			<point x="74" y="-12"/>
		</contour>
		<contour>
			<point x="213" y="-260" type="line"/>
			<point x="272" y="-260" type="line"/>
			<point x="283" y="-210"/>
			<point x="293" y="-160"/>
			<point x="304" y="-110" type="curve"/>
			<point x="427" y="464" type="line"/>
			<point x="415" y="472" type="line"/>
			<point x="365" y="429" type="line"/>
			<point x="360" y="424" type="line"/>
			<point x="297" y="131" type="line"/>
			<point x="295" y="124" type="line"/>
		</contour>
	</outline>
	<anchor name="aboveLC" x="278" y="472"/>
	<anchor name="belowLC" x="238" y="-280"/>
</glyph>
<glyph name="r" format="2">
	<unicode hex="0072"/>
	<advance width="388"/>
	<outline>
		<contour>
			<point x="167" y="246" type="line"/>
			<point x="207" y="327"/>
			<point x="252" y="395"/>
			<point x="295" y="423" type="curve"/>
			<point x="295" y="429" type="line"/>
			<point x="271" y="427" type="line"/>
			<point x="283" y="415" type="line" smooth="yes"/>
			<point x="304" y="393"/>
			<point x="323" y="382"/>
			<point x="344" y="382" type="curve" smooth="yes"/>
			<point x="375" y="382"/>
			<point x="395" y="403"/>
			<point x="396" y="430" type="curve"/>
			<point x="387" y="457"/>
			<point x="364" y="464"/>
			<point x="340" y="464" type="curve" smooth="yes"/>
			<point x="283" y="464"/>
			<point x="230" y="407"/>
			<point x="168" y="279" type="curve"/>
			<point x="160" y="279" type="line"/>
		</contour>
		<contour>
			<point x="61" y="0" type="line"/>
			<point x="69" y="-8" type="line"/>
			<point x="129" y="0" type="line"/>
			<point x="139" y="68"/>
			<point x="150" y="134"/>
			<point x="163" y="200" type="curve" smooth="yes"/>
			<point x="178" y="272" type="line"/>
			<point x="176" y="280" type="line"/>
			<point x="212" y="456" type="line"/>
			<point x="203" y="464" type="line"/>
			<point x="59" y="422" type="line"/>
			<point x="57" y="408" type="line"/>
			<point x="157" y="392" type="line"/>
			<point x="144" y="401" type="line"/>
		</contour>
	</outline>
	<anchor name="aboveLC" x="261" y="472"/>
	<anchor name="belowLC" x="104" y="-20"/>
</glyph>
<glyph name="s" format="2">
	<unicode hex="0073"/>
	<advance width="346"/>
	<outline>
		<contour>
			<point x="126" y="-12" type="curve" smooth="yes"/>
			<point x="212" y="-12"/>
			<point x="278" y="45"/>
			<point x="278" y="124" type="curve" smooth="yes"/>
			<point x="278" y="190"/>
			<point x="231" y="222"/>
			<point x="189" y="254" type="curve" smooth="yes"/>
			<point x="154" y="281"/>
			<point x="122" y="308"/>
			<point x="122" y="354" type="curve" smooth="yes"/>
			<point x="122" y="398"/>
			<point x="157" y="444"/>
			<point x="218" y="444" type="curve" smooth="yes"/>
			<point x="237" y="444"/>
			<point x="248" y="442"/>
			<point x="258" y="439" type="curve"/>
			<point x="227" y="451" type="line"/>
			<point x="248" y="402" type="line" smooth="yes"/>
			<point x="259" y="376"/>
			<point x="271" y="362"/>
			<point x="294" y="362" type="curve" smooth="yes"/>
			<point x="309" y="362"/>
			<point x="322" y="371"/>
			<point x="326" y="388" type="curve"/>
			<point x="314" y="444"/>
			<point x="268" y="464"/>
			<point x="217" y="464" type="curve" smooth="yes"/>
			<point x="137" y="464"/>
			<point x="74" y="407"/>
			<point x="74" y="332" type="curve" smooth="yes"/>
			<point x="74" y="272"/>
			<point x="112" y="240"/>
			<point x="151" y="210" type="curve" smooth="yes"/>
			<point x="188" y="181"/>
			<point x="226" y="153"/>
			<point x="226" y="102" type="curve" smooth="yes"/>
			<point x="226" y="52"/>
			<point x="184" y="8"/>
			<point x="126" y="8" type="curve" smooth="yes"/>
			<point x="98" y="8"/>
			<point x="86" y="10"/>
			<point x="66" y="16" type="curve"/>
			<point x="112" y="2" type="line"/>
			<point x="88" y="64" type="line" smooth="yes"/>
			<point x="81" y="83"/>
			<point x="69" y="100"/>
			<point x="45" y="100" type="curve" smooth="yes"/>
			<point x="28" y="100"/>
			<point x="15" y="88"/>
			<point x="12" y="70" type="curve"/>
			<point x="18" y="19"/>
			<point x="66" y="-12"/>
		</contour>
	</outline>
	<anchor name="aboveLC" x="209" y="472"/>
	<anchor name="belowLC" x="149" y="-20"/>
	<anchor name="baseLC" x="138" y="0"/>
</glyph>
<glyph name="t" format="2">
	<unicode hex="0074"/>
	<advance width="284"/>
	<outline>
		<contour>
			<point x="61" y="94" type="line" smooth="yes"/>
			<point x="54" y="59"/>
			<point x="52" y="46"/>
			<point x="52" y="35" type="curve" smooth="yes"/>
			<point x="52" y="5"/>
			<point x="71" y="-12"/>
			<point x="98" y="-12" type="curve" smooth="yes"/>
			<point x="158" y="-12"/>
			<point x="203" y="44"/>
			<point x="234" y="95" type="curve"/>
			<point x="222" y="104" type="line"/>
			<point x="187" y="64"/>
			<point x="153" y="38"/>
			<point x="129" y="38" type="curve" smooth="yes"/>
			<point x="119" y="38"/>
			<point x="113" y="44"/>
			<point x="113" y="54" type="curve" smooth="yes"/>
			<point x="113" y="68"/>
			<point x="116" y="80"/>
			<point x="120" y="101" type="curve" smooth="yes"/>
			<point x="226" y="604" type="line"/>
			<point x="209" y="604" type="line"/>
			<point x="134" y="444" type="line"/>
		</contour>
		<contour>
			<point x="38" y="428" type="line"/>
			<point x="146" y="428" type="line"/>
			<point x="306" y="428" type="line"/>
			<point x="310" y="452" type="line"/>
			<point x="154" y="452" type="line"/>
			<point x="154" y="458" type="line"/>
			<point x="38" y="444" type="line"/>
		</contour>
	</outline>
	<anchor name="aboveLC" x="205" y="584"/>
	<anchor name="belowLC" x="127" y="-20"/>
	<anchor name="baseLC" x="106" y="0"/>
</glyph>
<glyph name="u" format="2">
	<unicode hex="0075"/>
	<advance width="524"/>
	<outline>
		<contour>
			<point x="130" y="-12" type="curve" smooth="yes"/>
			<point x="192" y="-12"/>
			<point x="269" y="49"/>
			<point x="332" y="114" type="curve"/>
			<point x="338" y="114" type="line"/>
			<point x="337" y="133" type="line"/>
			<point x="261" y="70"/>
			<point x="207" y="40"/>
			<point x="167" y="40" type="curve" smooth="yes"/>
			<point x="147" y="40"/>
			<point x="132" y="53"/>
			<point x="132" y="80" type="curve" smooth="yes"/>
			<point x="132" y="103"/>
			<point x="142" y="143"/>
			<point x="149" y="174" type="curve" smooth="yes"/>
			<point x="210" y="456" type="line"/>
			<point x="202" y="464" type="line"/>
			<point x="56" y="422" type="line"/>
			<point x="54" y="408" type="line"/>
			<point x="154" y="392" type="line"/>
			<point x="141" y="401" type="line"/>
			<point x="84" y="147" type="line" smooth="yes"/>
			<point x="77" y="117"/>
			<point x="70" y="86"/>
			<point x="70" y="56" type="curve" smooth="yes"/>
			<point x="70" y="12"/>
			<point x="91" y="-12"/>
		</contour>
		<contour>
			<point x="354" y="-12" type="curve" smooth="yes"/>
			<point x="414" y="-12"/>
			<point x="459" y="44"/>
			<point x="490" y="95" type="curve"/>
			<point x="478" y="104" type="line"/>
			<point x="443" y="64"/>
			<point x="409" y="38"/>
			<point x="385" y="38" type="curve" smooth="yes"/>
			<point x="375" y="38"/>
			<point x="369" y="44"/>
			<point x="369" y="54" type="curve" smooth="yes"/>
			<point x="369" y="68"/>
			<point x="372" y="80"/>
			<point x="376" y="101" type="curve" smooth="yes"/>
			<point x="449" y="456" type="line"/>
			<point x="441" y="464" type="line"/>
			<point x="383" y="449" type="line"/>
			<point x="373" y="381"/>
			<point x="362" y="318"/>
			<point x="349" y="252" type="curve" smooth="yes"/>
			<point x="320" y="111" type="line"/>
			<point x="319" y="107" type="line"/>
			<point x="308" y="59"/>
			<point x="308" y="46"/>
			<point x="308" y="35" type="curve" smooth="yes"/>
			<point x="308" y="5"/>
			<point x="327" y="-12"/>
		</contour>
	</outline>
	<anchor name="aboveLC" x="294" y="472"/>
	<anchor name="belowLC" x="231" y="-20"/>
	<anchor name="hornLC" x="427" y="370"/>
	<anchor name="ogonek" x="393" y="0"/>
</glyph>
<glyph name="v" format="2">
	<unicode hex="0076"/>
	<advance width="438"/>
	<outline>
		<contour>
			<point x="164" y="0" type="curve"/>
			<point x="168" y="-4" type="line"/>
			<point x="190" y="0" type="line"/>
			<point x="286" y="99"/>
			<point x="366" y="211"/>
			<point x="402" y="296" type="curve" smooth="yes"/>
			<point x="416" y="329"/>
			<point x="458" y="400"/>
			<point x="442" y="452" type="curve"/>
			<point x="436" y="459"/>
			<point x="426" y="464"/>
			<point x="412" y="464" type="curve" smooth="yes"/>
			<point x="392" y="464"/>
			<point x="374" y="452"/>
			<point x="374" y="412" type="curve" smooth="yes"/>
			<point x="374" y="395"/>
			<point x="376" y="368"/>
			<point x="394" y="300" type="curve"/>
			<point x="396" y="342" type="line"/>
			<point x="363" y="241"/>
			<point x="286" y="138"/>
			<point x="210" y="48" type="curve"/>
			<point x="219" y="48" type="line"/>
			<point x="219" y="163"/>
			<point x="212" y="299"/>
			<point x="199" y="388" type="curve" smooth="yes"/>
			<point x="191" y="441"/>
			<point x="175" y="464"/>
			<point x="137" y="464" type="curve" smooth="yes"/>
			<point x="92" y="464"/>
			<point x="64" y="423"/>
			<point x="32" y="348" type="curve"/>
			<point x="44" y="339" type="line"/>
			<point x="81" y="398"/>
			<point x="97" y="414"/>
			<point x="114" y="414" type="curve" smooth="yes"/>
			<point x="127" y="414"/>
			<point x="136" y="404"/>
			<point x="142" y="360" type="curve" smooth="yes"/>
			<point x="156" y="260"/>
			<point x="161" y="151"/>
		</contour>
	</outline>
	<anchor name="aboveLC" x="311" y="496"/>
	<anchor name="belowLC" x="196" y="-22"/>
</glyph>
<glyph name="w" format="2">
	<unicode hex="0077"/>
	<advance width="690"/>
	<outline>
		<contour>
			<point x="466" y="44" type="line"/>
			<point x="450" y="452" type="line"/>
			<point x="416" y="452" type="line"/>
			<point x="361" y="302"/>
			<point x="284" y="158"/>
			<point x="209" y="52" type="curve"/>
			<point x="219" y="48" type="line"/>
			<point x="219" y="163"/>
			<point x="212" y="299"/>
			<point x="199" y="388" type="curve" smooth="yes"/>
			<point x="191" y="441"/>
			<point x="175" y="464"/>
			<point x="137" y="464" type="curve" smooth="yes"/>
			<point x="92" y="464"/>
			<point x="64" y="423"/>
			<point x="32" y="348" type="curve"/>
			<point x="44" y="339" type="line"/>
			<point x="81" y="398"/>
			<point x="97" y="414"/>
			<point x="114" y="414" type="curve" smooth="yes"/>
			<point x="127" y="414"/>
			<point x="136" y="404"/>
			<point x="142" y="360" type="curve" smooth="yes"/>
			<point x="155" y="260"/>
			<point x="161" y="151"/>
			<point x="164" y="0" type="curve"/>
			<point x="168" y="-4" type="line"/>
			<point x="190" y="0" type="line"/>
			<point x="288" y="112"/>
			<point x="378" y="287"/>
			<point x="406" y="374" type="curve"/>
			<point x="393" y="368" type="line"/>
			<point x="408" y="0" type="line"/>
			<point x="412" y="-4" type="line"/>
			<point x="434" y="0" type="line"/>
			<point x="530" y="99"/>
			<point x="610" y="211"/>
			<point x="646" y="296" type="curve" smooth="yes"/>
			<point x="660" y="329"/>
			<point x="702" y="400"/>
			<point x="686" y="452" type="curve"/>
			<point x="680" y="459"/>
			<point x="670" y="464"/>
			<point x="656" y="464" type="curve" smooth="yes"/>
			<point x="636" y="464"/>
			<point x="618" y="452"/>
			<point x="618" y="412" type="curve" smooth="yes"/>
			<point x="618" y="395"/>
			<point x="620" y="368"/>
			<point x="638" y="300" type="curve"/>
			<point x="640" y="342" type="line"/>
			<point x="607" y="241"/>
			<point x="530" y="138"/>
			<point x="454" y="48" type="curve"/>
		</contour>
	</outline>
	<anchor name="aboveLC" x="465" y="506"/>
	<anchor name="belowLC" x="325" y="-22"/>
</glyph>
<glyph name="x" format="2">
	<unicode hex="0078"/>
	<advance width="469"/>
	<outline>
		<contour>
			<point x="-1" y="60" type="curve"/>
			<point x="8" y="4"/>
			<point x="48" y="-12"/>
			<point x="76" y="-12" type="curve" smooth="yes"/>
			<point x="102" y="-12"/>
			<point x="123" y="-1"/>
			<point x="148" y="32" type="curve" smooth="yes"/>
			<point x="175" y="66"/>
			<point x="210" y="124"/>
			<point x="253" y="216" type="curve"/>
			<point x="244" y="236" type="line"/>
			<point x="197" y="141"/>
			<point x="158" y="79"/>
			<point x="130" y="44" type="curve" smooth="yes"/>
			<point x="109" y="18"/>
			<point x="94" y="10"/>
			<point x="82" y="10" type="curve"/>
			<point x="95" y="1" type="line"/>
			<point x="78" y="47" type="line" smooth="yes"/>
			<point x="65" y="81"/>
			<point x="52" y="90"/>
			<point x="33" y="90" type="curve" smooth="yes"/>
			<point x="18" y="90"/>
			<point x="3" y="81"/>
		</contour>
		<contour>
			<point x="260" y="72" type="line" smooth="yes"/>
			<point x="280" y="1"/>
			<point x="301" y="-12"/>
			<point x="334" y="-12" type="curve" smooth="yes"/>
			<point x="380" y="-12"/>
			<point x="425" y="44"/>
			<point x="459" y="112" type="curve"/>
			<point x="446" y="119" type="line"/>
			<point x="415" y="76"/>
			<point x="384" y="38"/>
			<point x="356" y="38" type="curve" smooth="yes"/>
			<point x="335" y="38"/>
			<point x="324" y="71"/>
			<point x="318" y="96" type="curve" smooth="yes"/>
			<point x="246" y="380" type="line" smooth="yes"/>
			<point x="230" y="441"/>
			<point x="221" y="464"/>
			<point x="182" y="464" type="curve" smooth="yes"/>
			<point x="142" y="464"/>
			<point x="106" y="422"/>
			<point x="75" y="344" type="curve"/>
			<point x="88" y="337" type="line"/>
			<point x="117" y="393"/>
			<point x="144" y="414"/>
			<point x="156" y="414" type="curve" smooth="yes"/>
			<point x="174" y="414"/>
			<point x="179" y="396"/>
			<point x="189" y="356" type="curve" smooth="yes"/>
		</contour>
		<contour>
			<point x="261" y="216" type="line"/>
			<point x="308" y="311"/>
			<point x="347" y="373"/>
			<point x="375" y="408" type="curve" smooth="yes"/>
			<point x="396" y="434"/>
			<point x="411" y="442"/>
			<point x="423" y="442" type="curve"/>
			<point x="405" y="455" type="line"/>
			<point x="428" y="406" type="line" smooth="yes"/>
			<point x="440" y="380"/>
			<point x="451" y="366"/>
			<point x="474" y="366" type="curve" smooth="yes"/>
			<point x="489" y="366"/>
			<point x="502" y="373"/>
			<point x="506" y="394" type="curve"/>
			<point x="498" y="446"/>
			<point x="459" y="464"/>
			<point x="431" y="464" type="curve" smooth="yes"/>
			<point x="405" y="464"/>
			<point x="384" y="453"/>
			<point x="359" y="420" type="curve" smooth="yes"/>
			<point x="332" y="386"/>
			<point x="297" y="328"/>
			<point x="254" y="236" type="curve"/>
		</contour>
	</outline>
	<anchor name="aboveLC" x="290" y="480"/>
	<anchor name="belowLC" x="212" y="-24"/>
</glyph>
<glyph name="y" format="2">
	<unicode hex="0079"/>
	<advance width="444"/>
	<outline>
		<contour>
			<point x="-144" y="-213" type="curve"/>
			<point x="-135" y="-246"/>
			<point x="-100" y="-260"/>
			<point x="-60" y="-260" type="curve" smooth="yes"/>
			<point x="-41" y="-260"/>
			<point x="-19" y="-256"/>
			<point x="4" y="-243" type="curve" smooth="yes"/>
			<point x="95" y="-191"/>
			<point x="169" y="-82"/>
			<point x="220" y="0" type="curve" smooth="yes"/>
			<point x="270" y="80"/>
			<point x="309" y="153"/>
			<point x="344" y="216" type="curve" smooth="yes"/>
			<point x="380" y="281"/>
			<point x="400" y="319"/>
			<point x="418" y="360" type="curve" smooth="yes"/>
			<point x="425" y="376"/>
			<point x="440" y="407"/>
			<point x="440" y="433" type="curve" smooth="yes"/>
			<point x="440" y="451"/>
			<point x="433" y="468"/>
			<point x="411" y="468" type="curve" smooth="yes"/>
			<point x="383" y="468"/>
			<point x="371" y="449"/>
			<point x="356" y="374" type="curve" smooth="yes"/>
			<point x="326" y="226"/>
			<point x="284" y="146"/>
			<point x="206" y="16" type="curve"/>
			<point x="149" y="-71"/>
			<point x="94" y="-156"/>
			<point x="12" y="-214" type="curve" smooth="yes"/>
			<point x="0" y="-222"/>
			<point x="-12" y="-230"/>
			<point x="-24" y="-235" type="curve"/>
			<point x="-24" y="-240" type="line"/>
			<point x="-6" y="-240" type="line"/>
			<point x="-28" y="-216" type="line" smooth="yes"/>
			<point x="-50" y="-194"/>
			<point x="-71" y="-180"/>
			<point x="-96" y="-180" type="curve" smooth="yes"/>
			<point x="-118" y="-180"/>
			<point x="-140" y="-192"/>
		</contour>
		<contour>
			<point x="213" y="0" type="line"/>
			<point x="210" y="0" type="line"/>
			<point x="210" y="115"/>
			<point x="196" y="299"/>
			<point x="183" y="388" type="curve" smooth="yes"/>
			<point x="175" y="441"/>
			<point x="157" y="464"/>
			<point x="119" y="464" type="curve" smooth="yes"/>
			<point x="74" y="464"/>
			<point x="46" y="423"/>
			<point x="14" y="348" type="curve"/>
			<point x="26" y="339" type="line"/>
			<point x="59" y="391"/>
			<point x="76" y="414"/>
			<point x="96" y="414" type="curve" smooth="yes"/>
			<point x="109" y="414"/>
			<point x="119" y="402"/>
			<point x="124" y="360" type="curve" smooth="yes"/>
			<point x="136" y="260"/>
			<point x="154" y="83"/>
			<point x="160" y="-68" type="curve"/>
		</contour>
	</outline>
	<anchor name="aboveLC" x="268" y="472"/>
	<anchor name="belowLC" x="62" y="-280"/>
</glyph>
<glyph name="z" format="2">
	<unicode hex="007A"/>
	<advance width="414"/>
	<outline>
		<contour>
			<point x="235" y="-24" type="curve" smooth="yes"/>
			<point x="307" y="-24"/>
			<point x="372" y="45"/>
			<point x="372" y="115" type="curve" smooth="yes"/>
			<point x="372" y="138"/>
			<point x="359" y="164"/>
			<point x="339" y="171" type="curve"/>
			<point x="312" y="169"/>
			<point x="299" y="152"/>
			<point x="299" y="122" type="curve" smooth="yes"/>
			<point x="299" y="101"/>
			<point x="311" y="79"/>
			<point x="340" y="50" type="curve"/>
			<point x="352" y="58" type="line"/>
			<point x="343" y="58" type="line"/>
			<point x="314" y="42"/>
			<point x="283" y="34"/>
			<point x="247" y="34" type="curve" smooth="yes"/>
			<point x="187" y="34"/>
			<point x="151" y="51"/>
			<point x="91" y="107" type="curve"/>
			<point x="82" y="98" type="line"/>
			<point x="128" y="14"/>
			<point x="176" y="-24"/>
		</contour>
		<contour>
			<point x="62" y="0" type="line"/>
			<point x="93" y="93" type="line"/>
			<point x="176" y="178"/>
			<point x="251" y="245"/>
			<point x="335" y="336" type="curve" smooth="yes"/>
			<point x="381" y="387"/>
			<point x="418" y="432"/>
			<point x="428" y="456" type="curve"/>
			<point x="423" y="464" type="line"/>
			<point x="363" y="456" type="line"/>
			<point x="330" y="363" type="line"/>
			<point x="244" y="266"/>
			<point x="160" y="193"/>
			<point x="75" y="105" type="curve" smooth="yes"/>
			<point x="36" y="64"/>
			<point x="12" y="33"/>
			<point x="-6" y="0" type="curve"/>
			<point x="-2" y="-8" type="line"/>
		</contour>
		<contour>
			<point x="58" y="274" type="line"/>
			<point x="72" y="270" type="line"/>
			<point x="143" y="435" type="line"/>
			<point x="98" y="405" type="line"/>
			<point x="204" y="388"/>
			<point x="240" y="380"/>
			<point x="326" y="354" type="curve"/>
			<point x="339" y="368" type="line"/>
			<point x="269" y="414"/>
			<point x="224" y="441"/>
			<point x="139" y="464" type="curve"/>
			<point x="74" y="412" type="line"/>
		</contour>
	</outline>
	<anchor name="aboveLC" x="268" y="472"/>
	<anchor name="belowLC" x="133" y="-20"/>
</glyph>
<glyph name="braceleft" format="2">
	<unicode hex="007B"/>
	<advance width="326"/>
	<outline>
		<contour>
			<point x="86" y="271" type="line"/>
			<point x="152" y="260"/>
			<point x="177" y="234"/>
			<point x="177" y="200" type="curve" smooth="yes"/>
			<point x="177" y="132"/>
			<point x="73" y="27"/>
			<point x="73" y="-79" type="curve" smooth="yes"/>
			<point x="73" y="-125"/>
			<point x="100" y="-158"/>
			<point x="188" y="-158" type="curve" smooth="yes"/>
			<point x="220" y="-158" type="line"/>
			<point x="223" y="-142" type="line"/>
			<point x="202" y="-140" type="line" smooth="yes"/>
			<point x="149" y="-135"/>
			<point x="134" y="-111"/>
			<point x="134" y="-75" type="curve" smooth="yes"/>
			<point x="134" y="7"/>
			<point x="210" y="122"/>
			<point x="210" y="197" type="curve" smooth="yes"/>
			<point x="210" y="243"/>
			<point x="179" y="274"/>
			<point x="104" y="283" type="curve"/>
			<point x="102" y="275" type="line"/>
			<point x="227" y="289"/>
			<point x="251" y="349"/>
			<point x="251" y="443" type="curve" smooth="yes"/>
			<point x="251" y="467"/>
			<point x="250" y="496"/>
			<point x="250" y="521" type="curve" smooth="yes"/>
			<point x="250" y="603"/>
			<point x="258" y="690"/>
			<point x="357" y="698" type="curve" smooth="yes"/>
			<point x="379" y="700" type="line"/>
			<point x="382" y="716" type="line"/>
			<point x="350" y="716" type="line" smooth="yes"/>
			<point x="221" y="716"/>
			<point x="193" y="643"/>
			<point x="193" y="561" type="curve" smooth="yes"/>
			<point x="193" y="500"/>
			<point x="213" y="443"/>
			<point x="213" y="397" type="curve" smooth="yes"/>
			<point x="213" y="342"/>
			<point x="183" y="302"/>
			<point x="89" y="287" type="curve"/>
		</contour>
	</outline>
</glyph>
<glyph name="bar" format="2">
	<unicode hex="007C"/>
	<advance width="250"/>
	<outline>
		<contour>
			<point x="113" y="-250" type="line"/>
			<point x="169" y="-250" type="line"/>
			<point x="169" y="750" type="line"/>
			<point x="113" y="750" type="line"/>
		</contour>
	</outline>
</glyph>
<glyph name="asciitilde" format="2">
	<unicode hex="007E"/>
	<advance width="500"/>
	<outline>
		<contour>
			<point x="282" y="358" type="curve" smooth="yes"/>
			<point x="254" y="383"/>
			<point x="226" y="408"/>
			<point x="182" y="408" type="curve" smooth="yes"/>
			<point x="124" y="408"/>
			<point x="87" y="365"/>
			<point x="78" y="291" type="curve"/>
			<point x="104" y="287" type="line"/>
			<point x="116" y="354"/>
			<point x="144" y="375"/>
			<point x="178" y="375" type="curve" smooth="yes"/>
			<point x="213" y="375"/>
			<point x="238" y="354"/>
			<point x="264" y="331" type="curve" smooth="yes"/>
			<point x="293" y="306"/>
			<point x="322" y="279"/>
			<point x="366" y="279" type="curve" smooth="yes"/>
			<point x="424" y="279"/>
			<point x="461" y="323"/>
			<point x="470" y="396" type="curve"/>
			<point x="444" y="400" type="line"/>
			<point x="432" y="333"/>
			<point x="404" y="312"/>
			<point x="370" y="312" type="curve" smooth="yes"/>
			<point x="334" y="312"/>
			<point x="308" y="335"/>
		</contour>
	</outline>
</glyph>
<glyph name="cent" format="2">
	<unicode hex="00A2"/>
	<advance width="468"/>
	<outline>
		<contour>
			<point x="73" y="249" type="curve" smooth="yes"/>
			<point x="73" y="137"/>
			<point x="143" y="72"/>
			<point x="238" y="72" type="curve" smooth="yes"/>
			<point x="312" y="72"/>
			<point x="374" y="108"/>
			<point x="415" y="184" type="curve"/>
			<point x="403" y="192" type="line"/>
			<point x="365" y="147"/>
			<point x="316" y="116"/>
			<point x="255" y="116" type="curve" smooth="yes"/>
			<point x="172" y="116"/>
			<point x="132" y="182"/>
			<point x="132" y="262" type="curve" smooth="yes"/>
			<point x="132" y="390"/>
			<point x="210" y="528"/>
			<point x="325" y="528" type="curve" smooth="yes"/>
			<point x="350" y="528"/>
			<point x="384" y="523"/>
			<point x="402" y="500" type="curve"/>
			<point x="385" y="524" type="line"/>
			<point x="389" y="436" type="line" smooth="yes"/>
			<point x="390" y="411"/>
			<point x="401" y="396"/>
			<point x="423" y="396" type="curve" smooth="yes"/>
			<point x="441" y="396"/>
			<point x="452" y="404"/>
			<point x="458" y="426" type="curve"/>
			<point x="458" y="502"/>
			<point x="404" y="548"/>
			<point x="324" y="548" type="curve" smooth="yes"/>
			<point x="164" y="548"/>
			<point x="73" y="386"/>
		</contour>
		<contour>
			<point x="217" y="-44" type="line"/>
			<point x="360" y="660" type="line"/>
			<point x="336" y="660" type="line"/>
			<point x="193" y="-44" type="line"/>
		</contour>
	</outline>
</glyph>
<glyph name="sterling" format="2">
	<unicode hex="00A3"/>
	<advance width="468"/>
	<outline>
		<contour>
			<point x="28" y="0" type="line"/>
			<point x="408" y="0" type="line"/>
			<point x="420" y="56" type="line"/>
			<point x="72" y="56" type="line"/>
			<point x="63" y="44" type="line"/>
			<point x="156" y="91"/>
			<point x="222" y="176"/>
			<point x="222" y="310" type="curve" smooth="yes"/>
			<point x="222" y="358"/>
			<point x="206" y="430"/>
			<point x="206" y="463" type="curve" smooth="yes"/>
			<point x="206" y="595"/>
			<point x="282" y="640"/>
			<point x="360" y="640" type="curve" smooth="yes"/>
			<point x="385" y="640"/>
			<point x="421" y="635"/>
			<point x="444" y="614" type="curve"/>
			<point x="427" y="644" type="line"/>
			<point x="431" y="544" type="line" smooth="yes"/>
			<point x="432" y="508"/>
			<point x="445" y="496"/>
			<point x="466" y="496" type="curve" smooth="yes"/>
			<point x="481" y="496"/>
			<point x="494" y="504"/>
			<point x="500" y="524" type="curve"/>
			<point x="500" y="620"/>
			<point x="441" y="660"/>
			<point x="352" y="660" type="curve" smooth="yes"/>
			<point x="234" y="660"/>
			<point x="144" y="586"/>
			<point x="144" y="446" type="curve" smooth="yes"/>
			<point x="144" y="393"/>
			<point x="171" y="314"/>
			<point x="171" y="262" type="curve" smooth="yes"/>
			<point x="171" y="169"/>
			<point x="115" y="83"/>
			<point x="33" y="34" type="curve"/>
		</contour>
		<contour>
			<point x="69" y="300" type="line"/>
			<point x="393" y="300" type="line"/>
			<point x="397" y="320" type="line"/>
			<point x="73" y="320" type="line"/>
		</contour>
	</outline>
</glyph>
<glyph name="currency" format="2">
	<unicode hex="00A4"/>
	<advance width="468"/>
	<outline>
		<contour>
			<point x="369" y="428" type="line"/>
			<point x="409" y="458" type="line" smooth="yes"/>
			<point x="436" y="480"/>
			<point x="461" y="492"/>
			<point x="461" y="513" type="curve" smooth="yes"/>
			<point x="461" y="524"/>
			<point x="452" y="535"/>
			<point x="440" y="535" type="curve" smooth="yes"/>
			<point x="421" y="535"/>
			<point x="408" y="507"/>
			<point x="388" y="476" type="curve" smooth="yes"/>
			<point x="360" y="435" type="line"/>
		</contour>
		<contour>
			<point x="153" y="332" type="curve" smooth="yes"/>
			<point x="153" y="403"/>
			<point x="204" y="456"/>
			<point x="271" y="456" type="curve"/>
			<point x="338" y="456"/>
			<point x="389" y="403"/>
			<point x="389" y="332" type="curve"/>
			<point x="389" y="261"/>
			<point x="338" y="208"/>
			<point x="271" y="208" type="curve"/>
			<point x="204" y="208"/>
			<point x="153" y="261"/>
		</contour>
		<contour>
			<point x="126" y="332" type="curve" smooth="yes"/>
			<point x="126" y="245"/>
			<point x="192" y="184"/>
			<point x="271" y="184" type="curve"/>
			<point x="350" y="184"/>
			<point x="416" y="245"/>
			<point x="416" y="332" type="curve"/>
			<point x="416" y="419"/>
			<point x="350" y="480"/>
			<point x="271" y="480" type="curve"/>
			<point x="192" y="480"/>
			<point x="126" y="419"/>
		</contour>
		<contour>
			<point x="182" y="435" type="line"/>
			<point x="154" y="476" type="line" smooth="yes"/>
			<point x="134" y="507"/>
			<point x="121" y="535"/>
			<point x="102" y="535" type="curve" smooth="yes"/>
			<point x="90" y="535"/>
			<point x="81" y="524"/>
			<point x="81" y="513" type="curve" smooth="yes"/>
			<point x="81" y="492"/>
			<point x="106" y="480"/>
			<point x="133" y="458" type="curve" smooth="yes"/>
			<point x="173" y="428" type="line"/>
		</contour>
		<contour>
			<point x="173" y="235" type="line"/>
			<point x="133" y="205" type="line" smooth="yes"/>
			<point x="106" y="184"/>
			<point x="81" y="171"/>
			<point x="81" y="151" type="curve" smooth="yes"/>
			<point x="81" y="140"/>
			<point x="90" y="129"/>
			<point x="102" y="129" type="curve" smooth="yes"/>
			<point x="121" y="129"/>
			<point x="134" y="157"/>
			<point x="154" y="187" type="curve" smooth="yes"/>
			<point x="182" y="229" type="line"/>
		</contour>
		<contour>
			<point x="360" y="229" type="line"/>
			<point x="388" y="187" type="line" smooth="yes"/>
			<point x="408" y="157"/>
			<point x="421" y="129"/>
			<point x="440" y="129" type="curve" smooth="yes"/>
			<point x="452" y="129"/>
			<point x="461" y="140"/>
			<point x="461" y="151" type="curve" smooth="yes"/>
			<point x="461" y="171"/>
			<point x="436" y="184"/>
			<point x="409" y="205" type="curve" smooth="yes"/>
			<point x="369" y="235" type="line"/>
		</contour>
	</outline>
</glyph>
<glyph name="yen" format="2">
	<unicode hex="00A5"/>
	<advance width="468"/>
	<outline>
		<contour>
			<point x="228" y="210" type="line"/>
			<point x="236" y="210" type="line"/>
			<point x="513" y="648" type="line"/>
			<point x="484" y="648" type="line"/>
			<point x="266" y="296" type="line"/>
			<point x="267" y="296" type="line"/>
			<point x="185" y="648" type="line"/>
			<point x="122" y="648" type="line"/>
		</contour>
		<contour>
			<point x="62" y="0" type="line"/>
			<point x="314" y="0" type="line"/>
			<point x="317" y="16" type="line"/>
			<point x="207" y="28" type="line"/>
			<point x="179" y="28" type="line"/>
			<point x="65" y="16" type="line"/>
		</contour>
		<contour>
			<point x="78" y="632" type="line"/>
			<point x="148" y="620" type="line"/>
			<point x="178" y="620" type="line"/>
			<point x="276" y="632" type="line"/>
			<point x="279" y="648" type="line"/>
			<point x="81" y="648" type="line"/>
		</contour>
		<contour>
			<point x="383" y="632" type="line"/>
			<point x="469" y="622" type="line"/>
			<point x="490" y="622" type="line"/>
			<point x="552" y="632" type="line"/>
			<point x="555" y="648" type="line"/>
			<point x="386" y="648" type="line"/>
		</contour>
		<contour>
			<point x="36" y="168" type="line"/>
			<point x="416" y="168" type="line"/>
			<point x="420" y="188" type="line"/>
			<point x="40" y="188" type="line"/>
		</contour>
		<contour>
			<point x="56" y="268" type="line"/>
			<point x="436" y="268" type="line"/>
			<point x="440" y="288" type="line"/>
			<point x="60" y="288" type="line"/>
		</contour>
		<contour>
			<point x="158" y="0" type="line"/>
			<point x="221" y="0" type="line"/>
			<point x="239" y="105"/>
			<point x="251" y="163"/>
			<point x="277" y="294" type="curve"/>
			<point x="217" y="294" type="line"/>
		</contour>
	</outline>
</glyph>
<glyph name="brokenbar" format="2">
	<unicode hex="00A6"/>
	<advance width="248"/>
	<outline>
		<contour>
			<point x="102" y="-252" type="line"/>
			<point x="150" y="-252" type="line"/>
			<point x="150" y="200" type="line"/>
			<point x="102" y="200" type="line"/>
		</contour>
		<contour>
			<point x="150" y="320" type="line"/>
			<point x="150" y="748" type="line"/>
			<point x="102" y="748" type="line"/>
			<point x="102" y="320" type="line"/>
		</contour>
	</outline>
</glyph>
<glyph name="section" format="2">
	<unicode hex="00A7"/>
	<advance width="440"/>
	<outline>
		<contour>
			<point x="153" y="-111" type="curve" smooth="yes"/>
			<point x="253" y="-111"/>
			<point x="306" y="-49"/>
			<point x="306" y="28" type="curve" smooth="yes"/>
			<point x="306" y="88"/>
			<point x="265" y="126"/>
			<point x="222" y="158" type="curve" smooth="yes"/>
			<point x="182" y="188" type="line" smooth="yes"/>
			<point x="143" y="218"/>
			<point x="114" y="249"/>
			<point x="114" y="296" type="curve" smooth="yes"/>
			<point x="114" y="352"/>
			<point x="161" y="412"/>
			<point x="272" y="417" type="curve"/>
			<point x="247" y="442" type="line"/>
			<point x="247" y="432" type="line"/>
			<point x="119" y="422"/>
			<point x="62" y="364"/>
			<point x="62" y="283" type="curve" smooth="yes"/>
			<point x="62" y="223"/>
			<point x="95" y="185"/>
			<point x="138" y="153" type="curve" smooth="yes"/>
			<point x="178" y="123" type="line" smooth="yes"/>
			<point x="217" y="93"/>
			<point x="254" y="62"/>
			<point x="254" y="15" type="curve" smooth="yes"/>
			<point x="254" y="-43"/>
			<point x="213" y="-89"/>
			<point x="153" y="-89" type="curve" smooth="yes"/>
			<point x="115" y="-89"/>
			<point x="105" y="-76"/>
			<point x="95" y="-73" type="curve"/>
			<point x="121" y="-94" type="line"/>
			<point x="95" y="-34" type="line" smooth="yes"/>
			<point x="82" y="-5"/>
			<point x="73" y="10"/>
			<point x="50" y="10" type="curve" smooth="yes"/>
			<point x="36" y="10"/>
			<point x="24" y="2"/>
			<point x="18" y="-17" type="curve"/>
			<point x="33" y="-74"/>
			<point x="79" y="-111"/>
		</contour>
		<contour>
			<point x="308" y="686" type="curve" smooth="yes"/>
			<point x="216" y="686"/>
			<point x="163" y="624"/>
			<point x="163" y="547" type="curve" smooth="yes"/>
			<point x="163" y="487"/>
			<point x="204" y="449"/>
			<point x="247" y="417" type="curve" smooth="yes"/>
			<point x="287" y="387" type="line" smooth="yes"/>
			<point x="326" y="357"/>
			<point x="355" y="326"/>
			<point x="355" y="279" type="curve" smooth="yes"/>
			<point x="355" y="223"/>
			<point x="304" y="163"/>
			<point x="193" y="158" type="curve"/>
			<point x="222" y="131" type="line"/>
			<point x="222" y="143" type="line"/>
			<point x="347" y="154"/>
			<point x="407" y="212"/>
			<point x="407" y="292" type="curve" smooth="yes"/>
			<point x="407" y="352"/>
			<point x="374" y="390"/>
			<point x="331" y="422" type="curve" smooth="yes"/>
			<point x="291" y="452" type="line" smooth="yes"/>
			<point x="252" y="482"/>
			<point x="215" y="513"/>
			<point x="215" y="560" type="curve" smooth="yes"/>
			<point x="215" y="618"/>
			<point x="256" y="664"/>
			<point x="307" y="664" type="curve" smooth="yes"/>
			<point x="338" y="664"/>
			<point x="348" y="655"/>
			<point x="358" y="652" type="curve"/>
			<point x="332" y="673" type="line"/>
			<point x="358" y="613" type="line" smooth="yes"/>
			<point x="371" y="584"/>
			<point x="381" y="569"/>
			<point x="402" y="569" type="curve" smooth="yes"/>
			<point x="420" y="569"/>
			<point x="430" y="579"/>
			<point x="435" y="595" type="curve"/>
			<point x="420" y="658"/>
			<point x="374" y="686"/>
		</contour>
	</outline>
</glyph>
<glyph name="copyright" format="2">
	<unicode hex="00A9"/>
	<advance width="756"/>
	<outline>
		<contour>
			<point x="375" y="-15" type="curve" smooth="yes"/>
			<point x="584" y="-15"/>
			<point x="766" y="142"/>
			<point x="766" y="397" type="curve" smooth="yes"/>
			<point x="766" y="576"/>
			<point x="633" y="685"/>
			<point x="459" y="685" type="curve" smooth="yes"/>
			<point x="250" y="685"/>
			<point x="68" y="528"/>
			<point x="68" y="273" type="curve" smooth="yes"/>
			<point x="68" y="94"/>
			<point x="201" y="-15"/>
		</contour>
		<contour>
			<point x="376" y="9" type="curve" smooth="yes"/>
			<point x="215" y="9"/>
			<point x="99" y="109"/>
			<point x="99" y="274" type="curve" smooth="yes"/>
			<point x="99" y="515"/>
			<point x="264" y="661"/>
			<point x="458" y="661" type="curve" smooth="yes"/>
			<point x="619" y="661"/>
			<point x="735" y="561"/>
			<point x="735" y="396" type="curve" smooth="yes"/>
			<point x="735" y="155"/>
			<point x="570" y="9"/>
		</contour>
		<contour>
			<point x="407" y="135" type="curve"/>
			<point x="453" y="135"/>
			<point x="481" y="145"/>
			<point x="516" y="163" type="curve"/>
			<point x="532" y="261" type="line"/>
			<point x="521" y="261" type="line"/>
			<point x="470" y="156" type="line"/>
			<point x="487" y="169" type="line"/>
			<point x="461" y="155"/>
			<point x="441" y="150"/>
			<point x="411" y="150" type="curve" smooth="yes"/>
			<point x="339" y="150"/>
			<point x="303" y="226"/>
			<point x="303" y="309" type="curve" smooth="yes"/>
			<point x="303" y="412"/>
			<point x="358" y="526"/>
			<point x="467" y="526" type="curve" smooth="yes"/>
			<point x="490" y="526"/>
			<point x="512" y="521"/>
			<point x="534" y="508" type="curve"/>
			<point x="523" y="519" type="line"/>
			<point x="544" y="419" type="line"/>
			<point x="555" y="419" type="line"/>
			<point x="566" y="512" type="line"/>
			<point x="536" y="533"/>
			<point x="497" y="541"/>
			<point x="467" y="541" type="curve" smooth="yes"/>
			<point x="323" y="541"/>
			<point x="244" y="417"/>
			<point x="244" y="306" type="curve" smooth="yes"/>
			<point x="244" y="216"/>
			<point x="295" y="135"/>
		</contour>
	</outline>
</glyph>
<glyph name="logicalnot" format="2">
	<unicode hex="00AC"/>
	<advance width="497"/>
	<outline>
		<contour>
			<point x="46" y="355" type="line"/>
			<point x="468" y="355" type="line"/>
			<point x="452" y="376" type="line"/>
			<point x="452" y="172" type="line"/>
			<point x="486" y="172" type="line"/>
			<point x="486" y="388" type="line"/>
			<point x="46" y="388" type="line"/>
		</contour>
	</outline>
</glyph>
<glyph name="registered" format="2">
	<unicode hex="00AE"/>
	<advance width="459"/>
	<outline>
		<contour>
			<point x="372" y="420" type="curve"/>
			<point x="373" y="427" type="line"/>
			<point x="341" y="431" type="line"/>
			<point x="351" y="424" type="line"/>
			<point x="340" y="474" type="line" smooth="yes"/>
			<point x="334" y="503"/>
			<point x="326" y="519"/>
			<point x="276" y="519" type="curve"/>
			<point x="276" y="515" type="line"/>
			<point x="316" y="517"/>
			<point x="366" y="529"/>
			<point x="366" y="574" type="curve" smooth="yes"/>
			<point x="366" y="600"/>
			<point x="341" y="620"/>
			<point x="292" y="620" type="curve" smooth="yes"/>
			<point x="256" y="620" type="line"/>
			<point x="255" y="611" type="line"/>
			<point x="290" y="611" type="line" smooth="yes"/>
			<point x="315" y="611"/>
			<point x="327" y="597"/>
			<point x="327" y="573" type="curve" smooth="yes"/>
			<point x="327" y="545"/>
			<point x="309" y="523"/>
			<point x="275" y="523" type="curve" smooth="yes"/>
			<point x="238" y="523" type="line"/>
			<point x="237" y="513" type="line"/>
			<point x="270" y="513" type="line" smooth="yes"/>
			<point x="291" y="513"/>
			<point x="299" y="500"/>
			<point x="301" y="483" type="curve" smooth="yes"/>
			<point x="307" y="442" type="line" smooth="yes"/>
			<point x="309" y="423"/>
			<point x="322" y="417"/>
			<point x="346" y="417" type="curve" smooth="yes"/>
			<point x="356" y="417"/>
			<point x="363" y="418"/>
		</contour>
		<contour>
			<point x="177" y="420" type="line"/>
			<point x="266" y="420" type="line"/>
			<point x="267" y="427" type="line"/>
			<point x="235" y="431" type="line"/>
			<point x="213" y="431" type="line"/>
			<point x="178" y="427" type="line"/>
		</contour>
		<contour>
			<point x="213" y="613" type="line"/>
			<point x="246" y="608" type="line"/>
			<point x="267" y="608" type="line"/>
			<point x="269" y="620" type="line"/>
			<point x="214" y="620" type="line"/>
		</contour>
		<contour>
			<point x="260" y="318" type="curve" smooth="yes"/>
			<point x="376" y="318"/>
			<point x="484" y="404"/>
			<point x="484" y="548" type="curve" smooth="yes"/>
			<point x="484" y="650"/>
			<point x="408" y="712"/>
			<point x="311" y="712" type="curve" smooth="yes"/>
			<point x="195" y="712"/>
			<point x="88" y="626"/>
			<point x="88" y="482" type="curve" smooth="yes"/>
			<point x="88" y="380"/>
			<point x="164" y="318"/>
		</contour>
		<contour>
			<point x="263" y="337" type="curve" smooth="yes"/>
			<point x="177" y="337"/>
			<point x="113" y="393"/>
			<point x="113" y="482" type="curve" smooth="yes"/>
			<point x="113" y="608"/>
			<point x="204" y="693"/>
			<point x="308" y="693" type="curve" smooth="yes"/>
			<point x="394" y="693"/>
			<point x="458" y="637"/>
			<point x="458" y="548" type="curve" smooth="yes"/>
			<point x="458" y="422"/>
			<point x="367" y="337"/>
		</contour>
		<contour>
			<point x="201" y="420" type="line"/>
			<point x="242" y="420" type="line"/>
			<point x="279" y="620" type="line"/>
			<point x="238" y="620" type="line"/>
		</contour>
	</outline>
</glyph>
<glyph name="degree" format="2">
	<unicode hex="00B0"/>
	<advance width="328"/>
	<outline>
		<contour>
			<point x="229" y="457" type="curve"/>
			<point x="176" y="457"/>
			<point x="135" y="499"/>
			<point x="135" y="556" type="curve"/>
			<point x="135" y="613"/>
			<point x="176" y="655"/>
			<point x="229" y="655" type="curve" smooth="yes"/>
			<point x="282" y="655"/>
			<point x="323" y="613"/>
			<point x="323" y="556" type="curve" smooth="yes"/>
			<point x="323" y="499"/>
			<point x="282" y="457"/>
		</contour>
		<contour>
			<point x="229" y="428" type="curve"/>
			<point x="298" y="428"/>
			<point x="357" y="478"/>
			<point x="357" y="556" type="curve" smooth="yes"/>
			<point x="357" y="634"/>
			<point x="298" y="684"/>
			<point x="229" y="684" type="curve"/>
			<point x="160" y="684"/>
			<point x="101" y="634"/>
			<point x="101" y="556" type="curve"/>
			<point x="101" y="478"/>
			<point x="160" y="428"/>
		</contour>
	</outline>
</glyph>
<glyph name="plusminus" format="2">
	<unicode hex="00B1"/>
	<advance width="496"/>
	<outline>
		<contour>
			<point x="267" y="100" type="line"/>
			<point x="301" y="100" type="line"/>
			<point x="301" y="556" type="line"/>
			<point x="267" y="556" type="line"/>
		</contour>
		<contour>
			<point x="504" y="316" type="line"/>
			<point x="504" y="348" type="line"/>
			<point x="64" y="348" type="line"/>
			<point x="64" y="316" type="line"/>
		</contour>
		<contour>
			<point x="504" y="0" type="line"/>
			<point x="504" y="32" type="line"/>
			<point x="64" y="32" type="line"/>
			<point x="64" y="0" type="line"/>
		</contour>
	</outline>
</glyph>
<glyph name="two.sups" format="2">
	<unicode hex="00B2"/>
	<advance width="328"/>
	<outline>
		<contour>
			<point x="75" y="428" type="line"/>
			<point x="327" y="428" type="line"/>
			<point x="335" y="473" type="line"/>
			<point x="107" y="473" type="line"/>
			<point x="99" y="460" type="line"/>
			<point x="316" y="624"/>
			<point x="379" y="683"/>
			<point x="378" y="751" type="curve" smooth="yes"/>
			<point x="377" y="804"/>
			<point x="335" y="842"/>
			<point x="259" y="842" type="curve" smooth="yes"/>
			<point x="195" y="842"/>
			<point x="142" y="802"/>
			<point x="135" y="748" type="curve"/>
			<point x="140" y="736"/>
			<point x="149" y="730"/>
			<point x="160" y="730" type="curve" smooth="yes"/>
			<point x="179" y="730"/>
			<point x="186" y="742"/>
			<point x="193" y="769" type="curve" smooth="yes"/>
			<point x="207" y="828" type="line"/>
			<point x="183" y="807" type="line"/>
			<point x="206" y="821"/>
			<point x="225" y="829"/>
			<point x="249" y="829" type="curve" smooth="yes"/>
			<point x="290" y="829"/>
			<point x="324" y="808"/>
			<point x="325" y="754" type="curve" smooth="yes"/>
			<point x="326" y="692"/>
			<point x="288" y="648"/>
			<point x="80" y="459" type="curve"/>
		</contour>
	</outline>
</glyph>
<glyph name="three.sups" format="2">
	<unicode hex="00B3"/>
	<advance width="328"/>
	<outline>
		<contour>
			<point x="215" y="420" type="curve" smooth="yes"/>
			<point x="319" y="420"/>
			<point x="373" y="480"/>
			<point x="372" y="540" type="curve" smooth="yes"/>
			<point x="371" y="597"/>
			<point x="324" y="642"/>
			<point x="236" y="642" type="curve"/>
			<point x="241" y="637" type="line"/>
			<point x="340" y="637"/>
			<point x="393" y="696"/>
			<point x="393" y="753" type="curve" smooth="yes"/>
			<point x="392" y="800"/>
			<point x="352" y="842"/>
			<point x="275" y="842" type="curve" smooth="yes"/>
			<point x="210" y="842"/>
			<point x="161" y="806"/>
			<point x="154" y="755" type="curve"/>
			<point x="158" y="744"/>
			<point x="167" y="738"/>
			<point x="179" y="738" type="curve" smooth="yes"/>
			<point x="197" y="738"/>
			<point x="205" y="747"/>
			<point x="212" y="777" type="curve" smooth="yes"/>
			<point x="226" y="830" type="line"/>
			<point x="202" y="810" type="line"/>
			<point x="226" y="826"/>
			<point x="246" y="829"/>
			<point x="266" y="829" type="curve" smooth="yes"/>
			<point x="316" y="829"/>
			<point x="339" y="793"/>
			<point x="340" y="753" type="curve" smooth="yes"/>
			<point x="340" y="703"/>
			<point x="305" y="647"/>
			<point x="233" y="647" type="curve" smooth="yes"/>
			<point x="209" y="647" type="line"/>
			<point x="206" y="632" type="line"/>
			<point x="225" y="632" type="line" smooth="yes"/>
			<point x="285" y="632"/>
			<point x="315" y="588"/>
			<point x="316" y="541" type="curve" smooth="yes"/>
			<point x="316" y="489"/>
			<point x="281" y="434"/>
			<point x="214" y="434" type="curve" smooth="yes"/>
			<point x="190" y="434"/>
			<point x="167" y="437"/>
			<point x="145" y="454" type="curve"/>
			<point x="159" y="436" type="line"/>
			<point x="156" y="501" type="line" smooth="yes"/>
			<point x="155" y="527"/>
			<point x="144" y="536"/>
			<point x="128" y="536" type="curve" smooth="yes"/>
			<point x="116" y="536"/>
			<point x="105" y="530"/>
			<point x="100" y="516" type="curve"/>
			<point x="101" y="449"/>
			<point x="152" y="420"/>
		</contour>
	</outline>
</glyph>
<glyph name="paragraph" format="2">
	<unicode hex="00B6"/>
	<advance width="556"/>
	<outline>
		<contour>
			<point x="477" y="670" type="line"/>
			<point x="472" y="640" type="line"/>
			<point x="492" y="640" type="line"/>
			<point x="614" y="654" type="line"/>
			<point x="617" y="670" type="line"/>
		</contour>
		<contour>
			<point x="310" y="-132" type="line"/>
			<point x="373" y="-132" type="line"/>
			<point x="384" y="-52"/>
			<point x="408" y="78"/>
			<point x="428" y="184" type="curve" smooth="yes"/>
			<point x="518" y="670" type="line"/>
			<point x="457" y="670" type="line"/>
		</contour>
		<contour>
			<point x="393" y="646" type="line"/>
			<point x="485" y="646" type="line"/>
			<point x="489" y="670" type="line"/>
			<point x="410" y="670" type="line" smooth="yes"/>
			<point x="229" y="670"/>
			<point x="54" y="562"/>
			<point x="54" y="362" type="curve" smooth="yes"/>
			<point x="54" y="241"/>
			<point x="140" y="161"/>
			<point x="303" y="160" type="curve"/>
		</contour>
	</outline>
</glyph>
<glyph name="one.sups" format="2">
	<unicode hex="00B9"/>
	<advance width="328"/>
	<outline>
		<contour>
			<point x="80" y="428" type="line"/>
			<point x="318" y="428" type="line"/>
			<point x="320" y="439" type="line"/>
			<point x="209" y="451" type="line"/>
			<point x="190" y="451" type="line"/>
			<point x="82" y="439" type="line"/>
		</contour>
		<contour>
			<point x="169" y="428" type="line"/>
			<point x="223" y="428" type="line"/>
			<point x="280" y="707" type="line"/>
			<point x="309" y="832" type="line"/>
			<point x="304" y="838" type="line"/>
			<point x="162" y="799" type="line"/>
			<point x="160" y="789" type="line"/>
			<point x="265" y="798" type="line"/>
			<point x="248" y="814" type="line"/>
		</contour>
	</outline>
</glyph>
<glyph name="AE" format="2">
	<unicode hex="00C6"/>
	<advance width="842"/>
	<outline>
		<contour>
			<point x="441" y="0" type="line"/>
			<point x="776" y="0" type="line"/>
			<point x="814" y="188" type="line"/>
			<point x="798" y="188" type="line"/>
			<point x="714" y="12" type="line"/>
			<point x="754" y="24" type="line"/>
			<point x="445" y="24" type="line"/>
		</contour>
		<contour>
			<point x="834" y="488" type="line"/>
			<point x="850" y="488" type="line"/>
			<point x="870" y="668" type="line"/>
			<point x="564" y="668" type="line"/>
			<point x="560" y="644" type="line"/>
			<point x="841" y="644" type="line"/>
			<point x="804" y="656" type="line"/>
		</contour>
		<contour>
			<point x="-12" y="0" type="line"/>
			<point x="184" y="0" type="line"/>
			<point x="186" y="16" type="line"/>
			<point x="88" y="26" type="line"/>
			<point x="68" y="26" type="line"/>
			<point x="-10" y="16" type="line"/>
		</contour>
		<contour>
			<point x="414" y="0" type="line"/>
			<point x="482" y="0" type="line"/>
			<point x="498" y="103"/>
			<point x="515" y="205"/>
			<point x="534" y="308" type="curve" smooth="yes"/>
			<point x="602" y="668" type="line"/>
			<point x="534" y="668" type="line"/>
			<point x="518" y="565"/>
			<point x="501" y="465"/>
			<point x="482" y="362" type="curve" smooth="yes"/>
		</contour>
		<contour>
			<point x="689" y="232" type="line"/>
			<point x="705" y="232" type="line"/>
			<point x="745" y="452" type="line"/>
			<point x="729" y="452" type="line"/>
			<point x="681" y="352" type="line"/>
			<point x="677" y="332" type="line"/>
		</contour>
		<contour>
			<point x="334" y="0" type="line"/>
			<point x="461" y="0" type="line"/>
			<point x="466" y="28" type="line"/>
			<point x="441" y="28" type="line"/>
			<point x="337" y="16" type="line"/>
		</contour>
		<contour>
			<point x="428" y="652" type="line"/>
			<point x="530" y="640" type="line"/>
			<point x="563" y="640" type="line"/>
			<point x="568" y="668" type="line"/>
			<point x="431" y="668" type="line"/>
		</contour>
		<contour>
			<point x="44" y="0" type="line"/>
			<point x="75" y="0" type="line"/>
			<point x="548" y="668" type="line"/>
			<point x="519" y="668" type="line"/>
		</contour>
		<contour>
			<point x="224" y="228" type="line"/>
			<point x="508" y="228" type="line"/>
			<point x="496" y="252" type="line"/>
			<point x="244" y="252" type="line"/>
		</contour>
		<contour>
			<point x="502" y="330" type="line"/>
			<point x="690" y="330" type="line"/>
			<point x="694" y="354" type="line"/>
			<point x="506" y="354" type="line"/>
		</contour>
	</outline>
	<anchor name="aboveUC" x="672" y="692"/>
</glyph>
<glyph name="Idieresis" format="2">
	<unicode hex="00CF"/>
	<advance width="308"/>
	<outline>
		<contour>
			<point x="201" y="745" type="curve" smooth="yes"/>
			<point x="231" y="745"/>
			<point x="256" y="769"/>
			<point x="256" y="803" type="curve" smooth="yes"/>
			<point x="256" y="828"/>
			<point x="237" y="847"/>
			<point x="211" y="847" type="curve" smooth="yes"/>
			<point x="183" y="847"/>
			<point x="156" y="824"/>
			<point x="156" y="790" type="curve" smooth="yes"/>
			<point x="156" y="762"/>
			<point x="177" y="745"/>
		</contour>
		<contour>
			<point x="342" y="745" type="curve" smooth="yes"/>
			<point x="372" y="745"/>
			<point x="397" y="769"/>
			<point x="397" y="803" type="curve" smooth="yes"/>
			<point x="397" y="828"/>
			<point x="378" y="847"/>
			<point x="352" y="847" type="curve" smooth="yes"/>
			<point x="325" y="847"/>
			<point x="298" y="824"/>
			<point x="298" y="790" type="curve" smooth="yes"/>
			<point x="298" y="762"/>
			<point x="319" y="745"/>
		</contour>
		<component base="I"/>
	</outline>
</glyph>
<glyph name="multiply" format="2">
	<unicode hex="00D7"/>
	<advance width="496"/>
	<outline>
		<contour>
			<point x="465" y="113" type="line"/>
			<point x="488" y="136" type="line"/>
			<point x="111" y="547" type="line"/>
			<point x="88" y="524" type="line"/>
		</contour>
		<contour>
			<point x="487" y="525" type="line"/>
			<point x="466" y="546" type="line"/>
			<point x="89" y="135" type="line"/>
			<point x="110" y="114" type="line"/>
		</contour>
	</outline>
</glyph>
<glyph name="Oslash" format="2">
	<unicode hex="00D8"/>
	<advance width="616"/>
	<outline>
		<contour>
			<point x="668" y="668" type="line"/>
			<point x="655" y="680" type="line"/>
			<point x="29" y="0" type="line"/>
			<point x="42" y="-12" type="line"/>
		</contour>
		<contour>
			<point x="288" y="-16" type="curve"/>
			<point x="449" y="-16"/>
			<point x="622" y="158"/>
			<point x="622" y="440" type="curve" smooth="yes"/>
			<point x="622" y="598"/>
			<point x="530" y="684"/>
			<point x="408" y="684" type="curve"/>
			<point x="247" y="684"/>
			<point x="74" y="510"/>
			<point x="74" y="228" type="curve" smooth="yes"/>
			<point x="74" y="70"/>
			<point x="166" y="-16"/>
		</contour>
		<contour>
			<point x="288" y="5" type="curve"/>
			<point x="184" y="5"/>
			<point x="140" y="90"/>
			<point x="140" y="212" type="curve" smooth="yes"/>
			<point x="140" y="449"/>
			<point x="251" y="663"/>
			<point x="408" y="663" type="curve"/>
			<point x="512" y="663"/>
			<point x="556" y="578"/>
			<point x="556" y="456" type="curve" smooth="yes"/>
			<point x="556" y="219"/>
			<point x="445" y="5"/>
		</contour>
	</outline>
	<anchor name="aboveUC" x="399" y="692"/>
</glyph>
<glyph name="Thorn" format="2">
	<unicode hex="00DE"/>
	<advance width="490"/>
	<outline>
		<contour>
			<point x="117" y="170" type="line"/>
			<point x="221" y="170" type="line" smooth="yes"/>
			<point x="402" y="170"/>
			<point x="490" y="263"/>
			<point x="490" y="376" type="curve" smooth="yes"/>
			<point x="490" y="469"/>
			<point x="415" y="533"/>
			<point x="279" y="533" type="curve" smooth="yes"/>
			<point x="186" y="533" type="line"/>
			<point x="181" y="509" type="line"/>
			<point x="279" y="509" type="line" smooth="yes"/>
			<point x="373" y="509"/>
			<point x="419" y="457"/>
			<point x="419" y="368" type="curve" smooth="yes"/>
			<point x="419" y="269"/>
			<point x="349" y="194"/>
			<point x="224" y="194" type="curve" smooth="yes"/>
			<point x="122" y="194" type="line"/>
		</contour>
		<contour>
			<point x="2" y="0" type="line"/>
			<point x="233" y="0" type="line"/>
			<point x="236" y="16" type="line"/>
			<point x="130" y="28" type="line"/>
			<point x="105" y="28" type="line"/>
			<point x="5" y="16" type="line"/>
		</contour>
		<contour>
			<point x="81" y="0" type="line"/>
			<point x="152" y="0" type="line"/>
			<point x="168" y="103"/>
			<point x="185" y="205"/>
			<point x="204" y="308" type="curve" smooth="yes"/>
			<point x="272" y="670" type="line"/>
			<point x="201" y="670" type="line"/>
			<point x="185" y="567"/>
			<point x="168" y="462"/>
			<point x="149" y="359" type="curve" smooth="yes"/>
		</contour>
		<contour>
			<point x="116" y="654" type="line"/>
			<point x="221" y="642" type="line"/>
			<point x="247" y="642" type="line"/>
			<point x="348" y="654" type="line"/>
			<point x="351" y="670" type="line"/>
			<point x="119" y="670" type="line"/>
		</contour>
	</outline>
</glyph>
<glyph name="germandbls" format="2">
	<unicode hex="00DF"/>
	<advance width="478"/>
	<outline>
		<contour>
			<point x="74" y="24" type="curve" smooth="yes"/>
			<point x="62" y="-43"/>
			<point x="47" y="-127"/>
			<point x="7" y="-185" type="curve" smooth="yes"/>
			<point x="-9" y="-208"/>
			<point x="-29" y="-227"/>
			<point x="-54" y="-240" type="curve"/>
			<point x="-54" y="-244" type="line"/>
			<point x="-24" y="-240" type="line"/>
			<point x="-48" y="-216" type="line" smooth="yes"/>
			<point x="-70" y="-194"/>
			<point x="-87" y="-180"/>
			<point x="-116" y="-180" type="curve" smooth="yes"/>
			<point x="-138" y="-180"/>
			<point x="-160" y="-192"/>
			<point x="-164" y="-213" type="curve"/>
			<point x="-155" y="-246"/>
			<point x="-120" y="-260"/>
			<point x="-80" y="-260" type="curve" smooth="yes"/>
			<point x="-32" y="-260"/>
			<point x="8" y="-235"/>
			<point x="40" y="-196" type="curve" smooth="yes"/>
			<point x="87" y="-139"/>
			<point x="117" y="-52"/>
			<point x="132" y="24" type="curve" smooth="yes"/>
			<point x="161" y="170"/>
			<point x="184" y="341"/>
			<point x="208" y="484" type="curve" smooth="yes"/>
			<point x="234" y="639"/>
			<point x="280" y="731"/>
			<point x="367" y="731" type="curve" smooth="yes"/>
			<point x="414" y="731"/>
			<point x="444" y="700"/>
			<point x="444" y="643" type="curve" smooth="yes"/>
			<point x="444" y="581"/>
			<point x="411" y="549"/>
			<point x="373" y="521" type="curve" smooth="yes"/>
			<point x="324" y="483"/>
			<point x="266" y="447"/>
			<point x="266" y="368" type="curve" smooth="yes"/>
			<point x="266" y="315"/>
			<point x="305" y="274"/>
			<point x="343" y="232" type="curve" smooth="yes"/>
			<point x="377" y="193"/>
			<point x="410" y="154"/>
			<point x="410" y="106" type="curve" smooth="yes"/>
			<point x="410" y="56"/>
			<point x="366" y="12"/>
			<point x="304" y="12" type="curve" smooth="yes"/>
			<point x="280" y="12"/>
			<point x="272" y="14"/>
			<point x="252" y="20" type="curve"/>
			<point x="298" y="2" type="line"/>
			<point x="274" y="68" type="line" smooth="yes"/>
			<point x="267" y="87"/>
			<point x="255" y="104"/>
			<point x="231" y="104" type="curve" smooth="yes"/>
			<point x="214" y="104"/>
			<point x="199" y="92"/>
			<point x="196" y="74" type="curve"/>
			<point x="202" y="23"/>
			<point x="252" y="-12"/>
			<point x="312" y="-12" type="curve" smooth="yes"/>
			<point x="402" y="-12"/>
			<point x="464" y="49"/>
			<point x="464" y="128" type="curve" smooth="yes"/>
			<point x="464" y="184"/>
			<point x="424" y="229"/>
			<point x="386" y="272" type="curve" smooth="yes"/>
			<point x="351" y="311"/>
			<point x="318" y="348"/>
			<point x="318" y="390" type="curve" smooth="yes"/>
			<point x="318" y="442"/>
			<point x="351" y="472"/>
			<point x="389" y="499" type="curve" smooth="yes"/>
			<point x="439" y="535"/>
			<point x="499" y="570"/>
			<point x="499" y="646" type="curve" smooth="yes"/>
			<point x="499" y="711"/>
			<point x="451" y="755"/>
			<point x="373" y="755" type="curve" smooth="yes"/>
			<point x="259" y="755"/>
			<point x="179" y="668"/>
			<point x="150" y="484" type="curve" smooth="yes"/>
			<point x="125" y="326"/>
			<point x="101" y="176"/>
		</contour>
	</outline>
</glyph>
<glyph name="ae" format="2">
	<unicode hex="00E6"/>
	<advance width="639"/>
	<outline>
		<contour>
			<point x="122" y="-12" type="curve" smooth="yes"/>
			<point x="197" y="-12"/>
			<point x="266" y="66"/>
			<point x="330" y="164" type="curve"/>
			<point x="336" y="164" type="line"/>
			<point x="324" y="169" type="line"/>
			<point x="245" y="75"/>
			<point x="193" y="37"/>
			<point x="154" y="37" type="curve" smooth="yes"/>
			<point x="112" y="37"/>
			<point x="99" y="75"/>
			<point x="99" y="132" type="curve" smooth="yes"/>
			<point x="99" y="200"/>
			<point x="128" y="306"/>
			<point x="183" y="368" type="curve" smooth="yes"/>
			<point x="211" y="399"/>
			<point x="245" y="420"/>
			<point x="285" y="420" type="curve" smooth="yes"/>
			<point x="331" y="420"/>
			<point x="359" y="391"/>
			<point x="377" y="368" type="curve"/>
			<point x="410" y="394" type="line"/>
			<point x="383" y="443"/>
			<point x="342" y="464"/>
			<point x="307" y="464" type="curve" smooth="yes"/>
			<point x="184" y="464"/>
			<point x="34" y="256"/>
			<point x="34" y="108" type="curve" smooth="yes"/>
			<point x="34" y="24"/>
			<point x="74" y="-12"/>
		</contour>
		<component base="e" xOffset="261"/>
	</outline>
	<anchor name="aboveLC" x="393" y="472"/>
	<anchor name="belowLC" x="292" y="-20"/>
</glyph>
<glyph name="idieresis" format="2">
	<unicode hex="00EF"/>
	<advance width="284"/>
	<outline>
		<contour>
			<point x="165" y="581" type="curve" smooth="yes"/>
			<point x="193" y="581"/>
			<point x="216" y="603"/>
			<point x="216" y="634" type="curve" smooth="yes"/>
			<point x="216" y="657"/>
			<point x="199" y="675"/>
			<point x="175" y="675" type="curve" smooth="yes"/>
			<point x="149" y="675"/>
			<point x="124" y="654"/>
			<point x="124" y="622" type="curve" smooth="yes"/>
			<point x="124" y="597"/>
			<point x="143" y="581"/>
		</contour>
		<contour>
			<point x="314" y="581" type="curve" smooth="yes"/>
			<point x="342" y="581"/>
			<point x="365" y="603"/>
			<point x="365" y="634" type="curve" smooth="yes"/>
			<point x="365" y="657"/>
			<point x="348" y="675"/>
			<point x="324" y="675" type="curve" smooth="yes"/>
			<point x="299" y="675"/>
			<point x="274" y="654"/>
			<point x="274" y="622" type="curve" smooth="yes"/>
			<point x="274" y="597"/>
			<point x="293" y="581"/>
		</contour>
		<component base="dotlessi"/>
	</outline>
</glyph>
<glyph name="eth" format="2">
	<unicode hex="00F0"/>
	<advance width="440"/>
	<outline>
		<contour>
			<point x="196" y="-12" type="curve" smooth="yes"/>
			<point x="359" y="-12"/>
			<point x="443" y="208.1913124406"/>
			<point x="443" y="400" type="curve" smooth="yes"/>
			<point x="443" y="565"/>
			<point x="365" y="672"/>
			<point x="251" y="744" type="curve"/>
			<point x="241" y="732" type="line"/>
			<point x="350" y="635"/>
			<point x="390" y="546"/>
			<point x="391" y="376" type="curve"/>
			<point x="395" y="368" type="line"/>
			<point x="387" y="433"/>
			<point x="338" y="464"/>
			<point x="276" y="464" type="curve" smooth="yes"/>
			<point x="145" y="464"/>
			<point x="48" y="320"/>
			<point x="48" y="160" type="curve" smooth="yes"/>
			<point x="48" y="45"/>
			<point x="115" y="-12"/>
		</contour>
		<contour>
			<point x="196" y="8" type="curve" smooth="yes"/>
			<point x="137" y="8"/>
			<point x="110" y="60"/>
			<point x="110" y="156" type="curve" smooth="yes"/>
			<point x="110" y="317"/>
			<point x="188" y="444"/>
			<point x="276" y="444" type="curve" smooth="yes"/>
			<point x="335" y="444"/>
			<point x="367" y="397"/>
			<point x="367" y="312" type="curve" smooth="yes"/>
			<point x="367" y="124"/>
			<point x="278" y="8"/>
		</contour>
		<contour>
			<point x="200" y="532" type="line"/>
			<point x="512" y="704" type="line"/>
			<point x="503" y="722" type="line"/>
			<point x="191" y="550" type="line"/>
		</contour>
	</outline>
</glyph>
<glyph name="divide" format="2">
	<unicode hex="00F7"/>
	<advance width="496"/>
	<outline>
		<contour>
			<point x="270" y="96" type="curve" smooth="yes"/>
			<point x="298" y="96"/>
			<point x="320" y="116"/>
			<point x="320" y="146" type="curve" smooth="yes"/>
			<point x="320" y="176"/>
			<point x="298" y="196"/>
			<point x="270" y="196" type="curve" smooth="yes"/>
			<point x="242" y="196"/>
			<point x="220" y="176"/>
			<point x="220" y="146" type="curve" smooth="yes"/>
			<point x="220" y="116"/>
			<point x="242" y="96"/>
		</contour>
		<contour>
			<point x="270" y="464" type="curve" smooth="yes"/>
			<point x="298" y="464"/>
			<point x="320" y="484"/>
			<point x="320" y="514" type="curve" smooth="yes"/>
			<point x="320" y="544"/>
			<point x="298" y="564"/>
			<point x="270" y="564" type="curve" smooth="yes"/>
			<point x="242" y="564"/>
			<point x="220" y="544"/>
			<point x="220" y="514" type="curve" smooth="yes"/>
			<point x="220" y="484"/>
			<point x="242" y="464"/>
		</contour>
		<component base="minus"/>
	</outline>
</glyph>
<glyph name="oslash" format="2">
	<unicode hex="00F8"/>
	<advance width="436"/>
	<outline>
		<contour>
			<point x="460" y="447" type="line"/>
			<point x="447" y="460" type="line"/>
			<point x="14" y="4" type="line"/>
			<point x="27" y="-9" type="line"/>
		</contour>
		<contour>
			<point x="196" y="-12" type="curve" smooth="yes"/>
			<point x="327" y="-12"/>
			<point x="424" y="132"/>
			<point x="424" y="292" type="curve" smooth="yes"/>
			<point x="424" y="407"/>
			<point x="357" y="464"/>
			<point x="276" y="464" type="curve" smooth="yes"/>
			<point x="145" y="464"/>
			<point x="48" y="320"/>
			<point x="48" y="160" type="curve" smooth="yes"/>
			<point x="48" y="45"/>
			<point x="115" y="-12"/>
		</contour>
		<contour>
			<point x="196" y="8" type="curve" smooth="yes"/>
			<point x="137" y="8"/>
			<point x="110" y="60"/>
			<point x="110" y="156" type="curve" smooth="yes"/>
			<point x="110" y="317"/>
			<point x="188" y="444"/>
			<point x="276" y="444" type="curve" smooth="yes"/>
			<point x="335" y="444"/>
			<point x="362" y="392"/>
			<point x="362" y="296" type="curve" smooth="yes"/>
			<point x="362" y="135"/>
			<point x="284" y="8"/>
		</contour>
	</outline>
	<anchor name="aboveLC" x="275" y="480"/>
</glyph>
<glyph name="thorn" format="2">
	<unicode hex="00FE"/>
	<advance width="464"/>
	<outline>
		<contour>
			<point x="-78" y="-260" type="line"/>
			<point x="166" y="-260" type="line"/>
			<point x="169" y="-244" type="line"/>
			<point x="67" y="-231" type="line"/>
			<point x="27" y="-231" type="line"/>
			<point x="-74" y="-244" type="line"/>
		</contour>
		<contour>
			<point x="8" y="-260" type="line"/>
			<point x="72" y="-260" type="line"/>
			<point x="81" y="-196"/>
			<point x="101" y="-102"/>
			<point x="126" y="21" type="curve" smooth="yes"/>
			<point x="130" y="38" type="line"/>
			<point x="187" y="314" type="line"/>
			<point x="189" y="322" type="line"/>
			<point x="274" y="732" type="line"/>
			<point x="266" y="740" type="line"/>
			<point x="120" y="698" type="line"/>
			<point x="118" y="684" type="line"/>
			<point x="228" y="666" type="line"/>
			<point x="202" y="701" type="line"/>
			<point x="192" y="624"/>
			<point x="183" y="578"/>
			<point x="174" y="532" type="curve" smooth="yes"/>
		</contour>
		<contour>
			<point x="184" y="-12" type="curve" smooth="yes"/>
			<point x="306" y="-12"/>
			<point x="456" y="196"/>
			<point x="456" y="344" type="curve" smooth="yes"/>
			<point x="456" y="428"/>
			<point x="416" y="464"/>
			<point x="368" y="464" type="curve" smooth="yes"/>
			<point x="294" y="464"/>
			<point x="225" y="386"/>
			<point x="159" y="286" type="curve"/>
			<point x="154" y="286" type="line"/>
			<point x="166" y="282" type="line"/>
			<point x="246" y="378"/>
			<point x="298" y="416"/>
			<point x="338" y="416" type="curve" smooth="yes"/>
			<point x="384" y="416"/>
			<point x="394" y="378"/>
			<point x="394" y="320" type="curve" smooth="yes"/>
			<point x="394" y="248"/>
			<point x="361" y="135"/>
			<point x="299" y="74" type="curve" smooth="yes"/>
			<point x="273" y="48"/>
			<point x="242" y="32"/>
			<point x="206" y="32" type="curve" smooth="yes"/>
			<point x="160" y="32"/>
			<point x="132" y="61"/>
			<point x="114" y="84" type="curve"/>
			<point x="91" y="45" type="line"/>
			<point x="113" y="9"/>
			<point x="150" y="-12"/>
		</contour>
	</outline>
	<anchor name="aboveLC" x="244" y="740"/>
	<anchor name="belowLC" x="200" y="-12"/>
</glyph>
<glyph name="aogonek" format="2">
	<unicode hex="0105"/>
	<advance width="497"/>
	<outline>
		<contour>
			<point x="122" y="-12" type="curve" smooth="yes"/>
			<point x="197" y="-12"/>
			<point x="265" y="66"/>
			<point x="330" y="164" type="curve"/>
			<point x="335" y="164" type="line"/>
			<point x="324" y="169" type="line"/>
			<point x="245" y="75"/>
			<point x="193" y="37"/>
			<point x="154" y="37" type="curve" smooth="yes"/>
			<point x="112" y="37"/>
			<point x="99" y="75"/>
			<point x="99" y="132" type="curve" smooth="yes"/>
			<point x="99" y="198"/>
			<point x="126" y="300"/>
			<point x="179" y="363" type="curve" smooth="yes"/>
			<point x="207" y="397"/>
			<point x="243" y="420"/>
			<point x="285" y="420" type="curve" smooth="yes"/>
			<point x="330" y="420"/>
			<point x="358" y="391"/>
			<point x="376" y="368" type="curve"/>
			<point x="402" y="407" type="line"/>
			<point x="379" y="443"/>
			<point x="342" y="464"/>
			<point x="307" y="464" type="curve" smooth="yes"/>
			<point x="184" y="464"/>
			<point x="34" y="256"/>
			<point x="34" y="108" type="curve" smooth="yes"/>
			<point x="34" y="24"/>
			<point x="74" y="-12"/>
		</contour>
		<contour>
			<point x="254" y="-187"/>
			<point x="288" y="-220"/>
			<point x="333" y="-220" type="curve" smooth="yes"/>
			<point x="362" y="-220"/>
			<point x="398" y="-207"/>
			<point x="423" y="-174" type="curve"/>
			<point x="417" y="-163" type="line"/>
			<point x="395" y="-173"/>
			<point x="376" y="-176"/>
			<point x="364" y="-176" type="curve" smooth="yes"/>
			<point x="329" y="-176"/>
			<point x="303" y="-155"/>
			<point x="303" y="-119" type="curve" smooth="yes"/>
			<point x="303" y="-76"/>
			<point x="335" y="-29"/>
			<point x="392" y="5" type="curve" smooth="yes"/>
			<point x="424" y="25"/>
			<point x="448" y="61"/>
			<point x="468" y="95" type="curve"/>
			<point x="456" y="105" type="line"/>
			<point x="421" y="65"/>
			<point x="388" y="39"/>
			<point x="364" y="39" type="curve" smooth="yes"/>
			<point x="354" y="39"/>
			<point x="348" y="45"/>
			<point x="348" y="55" type="curve" smooth="yes"/>
			<point x="348" y="69"/>
			<point x="351" y="81"/>
			<point x="355" y="102" type="curve" smooth="yes"/>
			<point x="429" y="464" type="line"/>
			<point x="421" y="472" type="line"/>
			<point x="362" y="425" type="line"/>
			<point x="359" y="423" type="line"/>
			<point x="301" y="136" type="line"/>
			<point x="299" y="127" type="line" smooth="yes"/>
			<point x="285" y="60"/>
			<point x="284" y="47"/>
			<point x="284" y="36" type="curve" smooth="yes"/>
			<point x="284" y="5"/>
			<point x="309" y="-12"/>
			<point x="337" y="-12" type="curve" smooth="yes"/>
			<point x="351" y="-12"/>
			<point x="363" y="-8"/>
			<point x="373" y="2" type="curve"/>
			<point x="346" y="19" type="line"/>
			<point x="346" y="-12" type="line"/>
			<point x="297" y="-41"/>
			<point x="254" y="-86"/>
			<point x="254" y="-145" type="curve" smooth="yes"/>
		</contour>
	</outline>
	<anchor name="aboveLC" x="306" y="472"/>
</glyph>
<glyph name="dcroat" format="2">
	<unicode hex="0111"/>
	<advance width="500"/>
	<outline>
		<contour>
			<point x="354" y="-12" type="curve" smooth="yes"/>
			<point x="414" y="-12"/>
			<point x="453" y="44"/>
			<point x="484" y="95" type="curve"/>
			<point x="472" y="104" type="line"/>
			<point x="437" y="64"/>
			<point x="403" y="38"/>
			<point x="379" y="38" type="curve" smooth="yes"/>
			<point x="369" y="38"/>
			<point x="363" y="44"/>
			<point x="363" y="54" type="curve" smooth="yes"/>
			<point x="363" y="68"/>
			<point x="366" y="80"/>
			<point x="370" y="101" type="curve" smooth="yes"/>
			<point x="500" y="732" type="line"/>
			<point x="492" y="740" type="line"/>
			<point x="346" y="698" type="line"/>
			<point x="344" y="684" type="line"/>
			<point x="444" y="668" type="line"/>
			<point x="434" y="691" type="line"/>
			<point x="378" y="415" type="line"/>
			<point x="375" y="409" type="line"/>
			<point x="317" y="128" type="line"/>
			<point x="310" y="94" type="line" smooth="yes"/>
			<point x="303" y="59"/>
			<point x="302" y="46"/>
			<point x="302" y="35" type="curve" smooth="yes"/>
			<point x="302" y="5"/>
			<point x="327" y="-12"/>
		</contour>
		<contour>
			<point x="140" y="-12" type="curve" smooth="yes"/>
			<point x="214" y="-12"/>
			<point x="283" y="66"/>
			<point x="349" y="166" type="curve"/>
			<point x="352" y="166" type="line"/>
			<point x="342" y="169" type="line"/>
			<point x="262" y="73"/>
			<point x="210" y="36"/>
			<point x="170" y="36" type="curve" smooth="yes"/>
			<point x="128" y="36"/>
			<point x="114" y="74"/>
			<point x="114" y="132" type="curve" smooth="yes"/>
			<point x="114" y="204"/>
			<point x="144" y="301"/>
			<point x="205" y="362" type="curve" smooth="yes"/>
			<point x="231" y="387"/>
			<point x="263" y="404"/>
			<point x="299" y="404" type="curve" smooth="yes"/>
			<point x="345" y="404"/>
			<point x="373" y="375"/>
			<point x="391" y="352" type="curve"/>
			<point x="414" y="391" type="line"/>
			<point x="392" y="427"/>
			<point x="355" y="448"/>
			<point x="321" y="448" type="curve" smooth="yes"/>
			<point x="199" y="448"/>
			<point x="52" y="256"/>
			<point x="52" y="108" type="curve" smooth="yes"/>
			<point x="52" y="24"/>
			<point x="92" y="-12"/>
		</contour>
		<contour>
			<point x="235" y="550" type="line"/>
			<point x="535" y="550" type="line"/>
			<point x="540" y="572" type="line"/>
			<point x="240" y="572" type="line"/>
		</contour>
	</outline>
</glyph>
<glyph name="eogonek" format="2">
	<unicode hex="0119"/>
	<advance width="378"/>
	<outline>
		<contour>
			<point x="179" y="-232" type="curve" smooth="yes"/>
			<point x="204" y="-232"/>
			<point x="234" y="-221"/>
			<point x="259" y="-198" type="curve"/>
			<point x="254" y="-185" type="line"/>
			<point x="238" y="-191"/>
			<point x="225" y="-192"/>
			<point x="215" y="-192" type="curve" smooth="yes"/>
			<point x="180" y="-192"/>
			<point x="152" y="-167"/>
			<point x="152" y="-131" type="curve" smooth="yes"/>
			<point x="152" y="-88"/>
			<point x="187" y="-32"/>
			<point x="257" y="16" type="curve" smooth="yes"/>
			<point x="288" y="37"/>
			<point x="314" y="68"/>
			<point x="334" y="103" type="curve"/>
			<point x="322" y="111" type="line"/>
			<point x="294" y="79"/>
			<point x="243" y="38"/>
			<point x="193" y="38" type="curve" smooth="yes"/>
			<point x="136" y="38"/>
			<point x="89" y="76"/>
			<point x="89" y="154" type="curve" smooth="yes"/>
			<point x="89" y="316"/>
			<point x="200" y="444"/>
			<point x="270" y="444" type="curve" smooth="yes"/>
			<point x="301" y="444"/>
			<point x="314" y="419"/>
			<point x="314" y="388" type="curve" smooth="yes"/>
			<point x="314" y="318"/>
			<point x="255" y="245"/>
			<point x="69" y="194" type="curve"/>
			<point x="73" y="176" type="line"/>
			<point x="318" y="242"/>
			<point x="372" y="318"/>
			<point x="372" y="388" type="curve" smooth="yes"/>
			<point x="372" y="437"/>
			<point x="339" y="464"/>
			<point x="281" y="464" type="curve" smooth="yes"/>
			<point x="163" y="464"/>
			<point x="26" y="314"/>
			<point x="26" y="137" type="curve" smooth="yes"/>
			<point x="26" y="40"/>
			<point x="82" y="-12"/>
			<point x="163" y="-12" type="curve" smooth="yes"/>
			<point x="176" y="-12"/>
			<point x="192" y="-10"/>
			<point x="203" y="-6" type="curve"/>
			<point x="203" y="-7" type="line"/>
			<point x="150" y="-37"/>
			<point x="103" y="-95"/>
			<point x="103" y="-157" type="curve" smooth="yes"/>
			<point x="103" y="-199"/>
			<point x="134" y="-232"/>
		</contour>
	</outline>
	<anchor name="aboveLC" x="261" y="472"/>
</glyph>
<glyph name="Hbar" format="2">
	<unicode hex="0126"/>
	<advance width="672"/>
	<outline>
		<contour>
			<point x="20" y="0" type="line"/>
			<point x="250" y="0" type="line"/>
			<point x="253" y="16" type="line"/>
			<point x="147" y="28" type="line"/>
			<point x="123" y="28" type="line"/>
			<point x="23" y="16" type="line"/>
		</contour>
		<contour>
			<point x="100" y="0" type="line"/>
			<point x="168" y="0" type="line"/>
			<point x="184" y="103"/>
			<point x="201" y="205"/>
			<point x="220" y="308" type="curve" smooth="yes"/>
			<point x="288" y="670" type="line"/>
			<point x="220" y="670" type="line"/>
			<point x="204" y="567"/>
			<point x="187" y="463"/>
			<point x="168" y="360" type="curve" smooth="yes"/>
		</contour>
		<contour>
			<point x="134" y="654" type="line"/>
			<point x="240" y="642" type="line"/>
			<point x="264" y="642" type="line"/>
			<point x="365" y="654" type="line"/>
			<point x="368" y="670" type="line"/>
			<point x="137" y="670" type="line"/>
		</contour>
		<contour>
			<point x="384" y="0" type="line"/>
			<point x="614" y="0" type="line"/>
			<point x="617" y="16" type="line"/>
			<point x="511" y="28" type="line"/>
			<point x="487" y="28" type="line"/>
			<point x="387" y="16" type="line"/>
		</contour>
		<contour>
			<point x="464" y="0" type="line"/>
			<point x="532" y="0" type="line"/>
			<point x="548" y="103"/>
			<point x="565" y="205"/>
			<point x="584" y="308" type="curve" smooth="yes"/>
			<point x="652" y="670" type="line"/>
			<point x="584" y="670" type="line"/>
			<point x="568" y="567"/>
			<point x="551" y="463"/>
			<point x="532" y="360" type="curve" smooth="yes"/>
		</contour>
		<contour>
			<point x="498" y="654" type="line"/>
			<point x="604" y="642" type="line"/>
			<point x="628" y="642" type="line"/>
			<point x="729" y="654" type="line"/>
			<point x="732" y="670" type="line"/>
			<point x="501" y="670" type="line"/>
		</contour>
		<contour>
			<point x="178" y="314" type="line"/>
			<point x="573" y="314" type="line"/>
			<point x="573" y="338" type="line"/>
			<point x="178" y="338" type="line"/>
		</contour>
		<contour>
			<point x="90" y="479" type="line"/>
			<point x="718" y="479" type="line"/>
			<point x="722" y="501" type="line"/>
			<point x="94" y="501" type="line"/>
		</contour>
	</outline>
</glyph>
<glyph name="hbar" format="2">
	<unicode hex="0127"/>
	<advance width="512"/>
	<outline>
		<contour>
			<point x="344" y="-12" type="curve" smooth="yes"/>
			<point x="406" y="-12"/>
			<point x="447" y="44"/>
			<point x="478" y="95" type="curve"/>
			<point x="466" y="104" type="line"/>
			<point x="431" y="64"/>
			<point x="395" y="38"/>
			<point x="375" y="38" type="curve" smooth="yes"/>
			<point x="366" y="38"/>
			<point x="357" y="45"/>
			<point x="357" y="57" type="curve" smooth="yes"/>
			<point x="357" y="67"/>
			<point x="360" y="85"/>
			<point x="365" y="106" type="curve" smooth="yes"/>
			<point x="406" y="289" type="line" smooth="yes"/>
			<point x="413" y="319"/>
			<point x="420" y="350"/>
			<point x="420" y="380" type="curve" smooth="yes"/>
			<point x="420" y="424"/>
			<point x="399" y="448"/>
			<point x="360" y="448" type="curve" smooth="yes"/>
			<point x="298" y="448"/>
			<point x="221" y="387"/>
			<point x="158" y="322" type="curve"/>
			<point x="153" y="322" type="line"/>
			<point x="153" y="303" type="line"/>
			<point x="229" y="366"/>
			<point x="283" y="396"/>
			<point x="323" y="396" type="curve" smooth="yes"/>
			<point x="343" y="396"/>
			<point x="359" y="383"/>
			<point x="359" y="356" type="curve" smooth="yes"/>
			<point x="359" y="333"/>
			<point x="349" y="293"/>
			<point x="342" y="262" type="curve" smooth="yes"/>
			<point x="303" y="91" type="line" smooth="yes"/>
			<point x="295" y="56"/>
			<point x="295" y="43"/>
			<point x="295" y="31" type="curve" smooth="yes"/>
			<point x="295" y="2"/>
			<point x="321" y="-12"/>
		</contour>
		<contour>
			<point x="54" y="-8" type="line"/>
			<point x="111" y="0" type="line"/>
			<point x="121" y="68"/>
			<point x="131" y="133"/>
			<point x="145" y="200" type="curve" smooth="yes"/>
			<point x="170" y="320" type="line"/>
			<point x="171" y="326" type="line"/>
			<point x="257" y="737" type="line"/>
			<point x="249" y="745" type="line"/>
			<point x="101" y="703" type="line"/>
			<point x="99" y="689" type="line"/>
			<point x="201" y="673" type="line"/>
			<point x="184" y="696" type="line"/>
			<point x="178" y="643"/>
			<point x="168" y="590"/>
			<point x="157" y="537" type="curve" smooth="yes"/>
			<point x="46" y="0" type="line"/>
		</contour>
		<contour>
			<point x="73" y="555" type="line"/>
			<point x="373" y="555" type="line"/>
			<point x="377" y="577" type="line"/>
			<point x="77" y="577" type="line"/>
		</contour>
	</outline>
</glyph>
<glyph name="iogonek" format="2">
	<unicode hex="012F"/>
	<advance width="284"/>
	<outline>
		<contour>
			<point x="227" y="574" type="curve" smooth="yes"/>
			<point x="257" y="574"/>
			<point x="284" y="600"/>
			<point x="284" y="635" type="curve" smooth="yes"/>
			<point x="284" y="661"/>
			<point x="268" y="678"/>
			<point x="243" y="678" type="curve" smooth="yes"/>
			<point x="212" y="678"/>
			<point x="186" y="651"/>
			<point x="186" y="615" type="curve" smooth="yes"/>
			<point x="186" y="591"/>
			<point x="203" y="574"/>
		</contour>
		<contour>
			<point x="135" y="-220" type="curve" smooth="yes"/>
			<point x="163" y="-220"/>
			<point x="199" y="-207"/>
			<point x="224" y="-175" type="curve"/>
			<point x="218" y="-164" type="line"/>
			<point x="196" y="-174"/>
			<point x="177" y="-177"/>
			<point x="165" y="-177" type="curve" smooth="yes"/>
			<point x="130" y="-177"/>
			<point x="104" y="-156"/>
			<point x="104" y="-119" type="curve" smooth="yes"/>
			<point x="104" y="-77"/>
			<point x="136" y="-30"/>
			<point x="185" y="0" type="curve" smooth="yes"/>
			<point x="221" y="22"/>
			<point x="250" y="58"/>
			<point x="272" y="95" type="curve"/>
			<point x="260" y="104" type="line"/>
			<point x="225" y="64"/>
			<point x="189" y="38"/>
			<point x="169" y="38" type="curve" smooth="yes"/>
			<point x="160" y="38"/>
			<point x="151" y="45"/>
			<point x="151" y="57" type="curve" smooth="yes"/>
			<point x="151" y="67"/>
			<point x="155" y="85"/>
			<point x="159" y="106" type="curve" smooth="yes"/>
			<point x="232" y="456" type="line"/>
			<point x="224" y="464" type="line"/>
			<point x="78" y="422" type="line"/>
			<point x="76" y="408" type="line"/>
			<point x="191" y="389" type="line"/>
			<point x="167" y="423" type="line"/>
			<point x="97" y="91" type="line" smooth="yes"/>
			<point x="90" y="56"/>
			<point x="89" y="43"/>
			<point x="89" y="31" type="curve" smooth="yes"/>
			<point x="89" y="2"/>
			<point x="115" y="-12"/>
			<point x="138" y="-12" type="curve" smooth="yes"/>
			<point x="141" y="-12"/>
			<point x="144" y="-12"/>
			<point x="147" y="-11" type="curve" smooth="yes"/>
			<point x="147" y="-11"/>
			<point x="147" y="-12"/>
			<point x="147" y="-12" type="curve"/>
			<point x="98" y="-41"/>
			<point x="56" y="-86"/>
			<point x="56" y="-145" type="curve" smooth="yes"/>
			<point x="56" y="-187"/>
			<point x="90" y="-220"/>
		</contour>
	</outline>
</glyph>
<glyph name="dotlessi" format="2">
	<unicode hex="0131"/>
	<advance width="284"/>
	<outline>
		<contour>
			<point x="71" y="31" type="curve" smooth="yes"/>
			<point x="71" y="2"/>
			<point x="97" y="-12"/>
			<point x="120" y="-12" type="curve" smooth="yes"/>
			<point x="182" y="-12"/>
			<point x="223" y="44"/>
			<point x="254" y="95" type="curve"/>
			<point x="242" y="104" type="line"/>
			<point x="207" y="64"/>
			<point x="171" y="38"/>
			<point x="151" y="38" type="curve" smooth="yes"/>
			<point x="142" y="38"/>
			<point x="133" y="45"/>
			<point x="133" y="57" type="curve" smooth="yes"/>
			<point x="133" y="67"/>
			<point x="137" y="85"/>
			<point x="141" y="106" type="curve" smooth="yes"/>
			<point x="214" y="456" type="line"/>
			<point x="206" y="464" type="line"/>
			<point x="60" y="422" type="line"/>
			<point x="58" y="408" type="line"/>
			<point x="158" y="392" type="line"/>
			<point x="144" y="401" type="line"/>
			<point x="79" y="91" type="line" smooth="yes"/>
			<point x="72" y="56"/>
			<point x="71" y="43"/>
		</contour>
	</outline>
	<anchor name="aboveLC" x="195" y="472"/>
	<anchor name="belowLC" x="125" y="-20"/>
	<anchor name="ogonek" x="169" y="0"/>
</glyph>
<glyph name="kgreenlandic" format="2">
	<unicode hex="0138"/>
	<advance width="487"/>
	<outline>
		<contour>
			<point x="70" y="-8" type="line"/>
			<point x="127" y="0" type="line"/>
			<point x="137" y="68"/>
			<point x="147" y="134"/>
			<point x="161" y="200" type="curve" smooth="yes"/>
			<point x="189" y="339" type="line"/>
			<point x="214" y="456" type="line"/>
			<point x="206" y="464" type="line"/>
			<point x="60" y="422" type="line"/>
			<point x="58" y="408" type="line"/>
			<point x="158" y="392" type="line"/>
			<point x="145" y="401" type="line"/>
			<point x="62" y="0" type="line"/>
		</contour>
		<contour>
			<point x="382" y="-8" type="curve" smooth="yes"/>
			<point x="401" y="-8"/>
			<point x="420" y="-4"/>
			<point x="446" y="4" type="curve"/>
			<point x="448" y="18" type="line"/>
			<point x="406" y="22" type="line" smooth="yes"/>
			<point x="374" y="25"/>
			<point x="358" y="45"/>
			<point x="338" y="88" type="curve" smooth="yes"/>
			<point x="314" y="140" type="line" smooth="yes"/>
			<point x="292" y="189"/>
			<point x="252" y="212"/>
			<point x="202" y="225" type="curve" smooth="yes"/>
			<point x="170" y="233" type="line"/>
			<point x="161" y="218" type="line"/>
			<point x="414" y="380" type="line" smooth="yes"/>
			<point x="443" y="399"/>
			<point x="458" y="410"/>
			<point x="458" y="432" type="curve" smooth="yes"/>
			<point x="458" y="447"/>
			<point x="447" y="461"/>
			<point x="430" y="464" type="curve"/>
			<point x="162" y="232" type="line"/>
			<point x="158" y="218" type="line"/>
			<point x="182" y="211" type="line" smooth="yes"/>
			<point x="214" y="202"/>
			<point x="235" y="181"/>
			<point x="257" y="128" type="curve" smooth="yes"/>
			<point x="283" y="64" type="line" smooth="yes"/>
			<point x="309" y="0"/>
			<point x="341" y="-8"/>
		</contour>
	</outline>
</glyph>
<glyph name="Lslash" format="2">
	<unicode hex="0141"/>
	<advance width="512"/>
	<outline>
		<contour>
			<point x="422" y="435" type="line"/>
			<point x="188" y="315" type="line"/>
			<point x="184" y="293" type="line"/>
			<point x="418" y="413" type="line"/>
		</contour>
		<contour>
			<point x="189" y="319" type="line"/>
			<point x="65" y="258" type="line"/>
			<point x="61" y="236" type="line"/>
			<point x="185" y="297" type="line"/>
		</contour>
		<component base="L"/>
	</outline>
</glyph>
<glyph name="lslash" format="2">
	<unicode hex="0142"/>
	<advance width="286"/>
	<outline>
		<contour>
			<point x="177" y="390" type="line"/>
			<point x="59" y="334" type="line"/>
			<point x="55" y="312" type="line"/>
			<point x="173" y="368" type="line"/>
		</contour>
		<contour>
			<point x="294" y="438" type="line"/>
			<point x="176" y="382" type="line"/>
			<point x="172" y="360" type="line"/>
			<point x="290" y="416" type="line"/>
		</contour>
		<component base="l" xOffset="8"/>
	</outline>
</glyph>
<glyph name="OE" format="2">
	<unicode hex="0152"/>
	<advance width="832"/>
	<outline>
		<contour>
			<point x="435" y="7" type="curve"/>
			<point x="440" y="34" type="line"/>
			<point x="391" y="10"/>
			<point x="346" y="5"/>
			<point x="310" y="5" type="curve" smooth="yes"/>
			<point x="206" y="5"/>
			<point x="140" y="82"/>
			<point x="140" y="226" type="curve" smooth="yes"/>
			<point x="140" y="413"/>
			<point x="236" y="665"/>
			<point x="436" y="665" type="curve" smooth="yes"/>
			<point x="473" y="665"/>
			<point x="507" y="660"/>
			<point x="543" y="639" type="curve"/>
			<point x="548" y="665" type="line"/>
			<point x="510" y="682"/>
			<point x="468" y="686"/>
			<point x="436" y="686" type="curve" smooth="yes"/>
			<point x="209" y="686"/>
			<point x="74" y="442"/>
			<point x="74" y="238" type="curve" smooth="yes"/>
			<point x="74" y="85"/>
			<point x="160" y="-16"/>
			<point x="306" y="-16" type="curve" smooth="yes"/>
			<point x="348" y="-16"/>
			<point x="391" y="-9"/>
		</contour>
		<contour>
			<point x="404" y="0" type="line"/>
			<point x="472" y="0" type="line"/>
			<point x="488" y="103"/>
			<point x="505" y="205"/>
			<point x="524" y="308" type="curve" smooth="yes"/>
			<point x="592" y="670" type="line"/>
			<point x="524" y="670" type="line"/>
			<point x="508" y="567"/>
			<point x="491" y="465"/>
			<point x="472" y="362" type="curve" smooth="yes"/>
		</contour>
		<contour>
			<point x="431" y="0" type="line"/>
			<point x="766" y="0" type="line"/>
			<point x="804" y="188" type="line"/>
			<point x="788" y="188" type="line"/>
			<point x="704" y="12" type="line"/>
			<point x="744" y="24" type="line"/>
			<point x="435" y="24" type="line"/>
		</contour>
		<contour>
			<point x="492" y="330" type="line"/>
			<point x="680" y="330" type="line"/>
			<point x="684" y="354" type="line"/>
			<point x="496" y="354" type="line"/>
		</contour>
		<contour>
			<point x="550" y="646" type="line"/>
			<point x="831" y="646" type="line"/>
			<point x="794" y="658" type="line"/>
			<point x="824" y="490" type="line"/>
			<point x="840" y="490" type="line"/>
			<point x="860" y="670" type="line"/>
			<point x="554" y="670" type="line"/>
		</contour>
		<contour>
			<point x="679" y="232" type="line"/>
			<point x="695" y="232" type="line"/>
			<point x="735" y="452" type="line"/>
			<point x="719" y="452" type="line"/>
			<point x="671" y="352" type="line"/>
			<point x="667" y="332" type="line"/>
		</contour>
	</outline>
	<anchor name="aboveUC" x="556" y="690"/>
</glyph>
<glyph name="oe" format="2">
	<unicode hex="0153"/>
	<advance width="680"/>
	<outline>
		<contour>
			<point x="196" y="-12" type="curve" smooth="yes"/>
			<point x="284" y="-12"/>
			<point x="357" y="53"/>
			<point x="395" y="144" type="curve"/>
			<point x="424" y="292" type="line"/>
			<point x="424" y="407"/>
			<point x="357" y="464"/>
			<point x="276" y="464" type="curve" smooth="yes"/>
			<point x="145" y="464"/>
			<point x="48" y="320"/>
			<point x="48" y="160" type="curve" smooth="yes"/>
			<point x="48" y="45"/>
			<point x="115" y="-12"/>
		</contour>
		<contour>
			<point x="196" y="8" type="curve" smooth="yes"/>
			<point x="137" y="8"/>
			<point x="110" y="60"/>
			<point x="110" y="156" type="curve" smooth="yes"/>
			<point x="110" y="317"/>
			<point x="188" y="444"/>
			<point x="276" y="444" type="curve" smooth="yes"/>
			<point x="335" y="444"/>
			<point x="362" y="392"/>
			<point x="362" y="296" type="curve" smooth="yes"/>
			<point x="362" y="135"/>
			<point x="284" y="8"/>
		</contour>
		<component base="e" xOffset="304"/>
	</outline>
	<anchor name="aboveLC" x="418" y="480"/>
</glyph>
<glyph name="Uogonek" format="2">
	<unicode hex="0172"/>
	<advance width="636"/>
	<outline>
		<contour>
			<point x="128" y="164" type="curve" smooth="yes"/>
			<point x="128" y="26"/>
			<point x="213" y="-16"/>
			<point x="308" y="-16" type="curve" smooth="yes"/>
			<point x="333" y="-16"/>
			<point x="359" y="-13"/>
			<point x="380" y="-7" type="curve"/>
			<point x="380" y="-8" type="line"/>
			<point x="328" y="-37"/>
			<point x="281" y="-83"/>
			<point x="281" y="-145" type="curve" smooth="yes"/>
			<point x="281" y="-187"/>
			<point x="315" y="-220"/>
			<point x="360" y="-220" type="curve" smooth="yes"/>
			<point x="388" y="-220"/>
			<point x="424" y="-207"/>
			<point x="449" y="-175" type="curve"/>
			<point x="443" y="-164" type="line"/>
			<point x="421" y="-174"/>
			<point x="402" y="-177"/>
			<point x="390" y="-177" type="curve" smooth="yes"/>
			<point x="355" y="-177"/>
			<point x="329" y="-156"/>
			<point x="329" y="-119" type="curve" smooth="yes"/>
			<point x="329" y="-76"/>
			<point x="363" y="-31"/>
			<point x="432" y="14" type="curve"/>
			<point x="491" y="49"/>
			<point x="531" y="120"/>
			<point x="553" y="240" type="curve" smooth="yes"/>
			<point x="632" y="668" type="line"/>
			<point x="605" y="668" type="line"/>
			<point x="528" y="251" type="line" smooth="yes"/>
			<point x="496" y="77"/>
			<point x="430" y="28"/>
			<point x="323" y="28" type="curve" smooth="yes"/>
			<point x="249" y="28"/>
			<point x="192" y="70"/>
			<point x="192" y="172" type="curve" smooth="yes"/>
			<point x="192" y="201"/>
			<point x="197" y="238"/>
			<point x="205" y="280" type="curve" smooth="yes"/>
			<point x="276" y="668" type="line"/>
			<point x="210" y="668" type="line"/>
			<point x="192" y="563"/>
			<point x="182" y="492"/>
			<point x="158" y="363" type="curve" smooth="yes"/>
			<point x="143" y="286" type="line" smooth="yes"/>
			<point x="134" y="239"/>
			<point x="128" y="198"/>
		</contour>
		<contour>
			<point x="136" y="652" type="line"/>
			<point x="230" y="640" type="line"/>
			<point x="250" y="640" type="line"/>
			<point x="356" y="652" type="line"/>
			<point x="359" y="668" type="line"/>
			<point x="139" y="668" type="line"/>
		</contour>
		<contour>
			<point x="518" y="652" type="line"/>
			<point x="608" y="642" type="line"/>
			<point x="620" y="642" type="line"/>
			<point x="705" y="652" type="line"/>
			<point x="708" y="668" type="line"/>
			<point x="521" y="668" type="line"/>
		</contour>
	</outline>
	<anchor name="belowLC" x="310" y="-24"/>
	<anchor name="hornLC" x="551" y="679"/>
	<anchor name="aboveUC" x="432" y="692"/>
</glyph>
<glyph name="uogonek" format="2">
	<unicode hex="0173"/>
	<advance width="524"/>
	<outline>
		<contour>
			<point x="130" y="-12" type="curve" smooth="yes"/>
			<point x="192" y="-12"/>
			<point x="269" y="49"/>
			<point x="332" y="114" type="curve"/>
			<point x="343" y="114" type="line"/>
			<point x="337" y="133" type="line"/>
			<point x="261" y="70"/>
			<point x="207" y="40"/>
			<point x="167" y="40" type="curve" smooth="yes"/>
			<point x="147" y="40"/>
			<point x="132" y="53"/>
			<point x="132" y="80" type="curve" smooth="yes"/>
			<point x="132" y="103"/>
			<point x="142" y="143"/>
			<point x="149" y="174" type="curve" smooth="yes"/>
			<point x="210" y="456" type="line"/>
			<point x="202" y="464" type="line"/>
			<point x="56" y="422" type="line"/>
			<point x="54" y="408" type="line"/>
			<point x="154" y="392" type="line"/>
			<point x="141" y="401" type="line"/>
			<point x="84" y="147" type="line" smooth="yes"/>
			<point x="77" y="117"/>
			<point x="70" y="86"/>
			<point x="70" y="56" type="curve" smooth="yes"/>
			<point x="70" y="12"/>
			<point x="91" y="-12"/>
		</contour>
		<contour>
			<point x="272" y="-145" type="curve" smooth="yes"/>
			<point x="272" y="-187"/>
			<point x="306" y="-220"/>
			<point x="351" y="-220" type="curve" smooth="yes"/>
			<point x="379" y="-220"/>
			<point x="415" y="-207"/>
			<point x="440" y="-175" type="curve"/>
			<point x="434" y="-164" type="line"/>
			<point x="412" y="-174"/>
			<point x="393" y="-177"/>
			<point x="381" y="-177" type="curve" smooth="yes"/>
			<point x="346" y="-177"/>
			<point x="320" y="-156"/>
			<point x="320" y="-119" type="curve" smooth="yes"/>
			<point x="320" y="-76"/>
			<point x="354" y="-29"/>
			<point x="403" y="1" type="curve" smooth="yes"/>
			<point x="416" y="9"/>
			<point x="466" y="55"/>
			<point x="490" y="95" type="curve"/>
			<point x="478" y="104" type="line"/>
			<point x="443" y="64"/>
			<point x="409" y="38"/>
			<point x="385" y="38" type="curve" smooth="yes"/>
			<point x="375" y="38"/>
			<point x="369" y="44"/>
			<point x="369" y="54" type="curve" smooth="yes"/>
			<point x="369" y="68"/>
			<point x="372" y="80"/>
			<point x="376" y="101" type="curve" smooth="yes"/>
			<point x="449" y="456" type="line"/>
			<point x="441" y="464" type="line"/>
			<point x="383" y="449" type="line"/>
			<point x="373" y="381"/>
			<point x="362" y="318"/>
			<point x="349" y="252" type="curve" smooth="yes"/>
			<point x="320" y="113" type="line"/>
			<point x="319" y="108" type="line"/>
			<point x="308" y="59"/>
			<point x="308" y="46"/>
			<point x="308" y="35" type="curve" smooth="yes"/>
			<point x="308" y="5"/>
			<point x="327" y="-12"/>
			<point x="354" y="-12" type="curve" smooth="yes"/>
			<point x="362" y="-12"/>
			<point x="370" y="-9"/>
			<point x="376" y="-1" type="curve"/>
			<point x="364" y="11" type="line"/>
			<point x="364" y="-11" type="line"/>
			<point x="315" y="-41"/>
			<point x="272" y="-86"/>
		</contour>
	</outline>
	<anchor name="aboveLC" x="294" y="472"/>
	<anchor name="belowLC" x="231" y="-20"/>
</glyph>
<glyph name="longs" format="2">
	<unicode hex="017F"/>
	<advance width="269"/>
	<outline>
		<contour>
			<point x="357" y="755" type="curve" smooth="yes"/>
			<point x="297" y="755"/>
			<point x="184" y="699"/>
			<point x="150" y="482" type="curve" smooth="yes"/>
			<point x="78" y="24" type="line" smooth="yes"/>
			<point x="69" y="-35"/>
			<point x="51" y="-126"/>
			<point x="13" y="-187" type="curve" smooth="yes"/>
			<point x="-1" y="-208"/>
			<point x="-18" y="-225"/>
			<point x="-37" y="-236" type="curve"/>
			<point x="-29" y="-238" type="line"/>
			<point x="-20" y="-240" type="line"/>
			<point x="-44" y="-216" type="line" smooth="yes"/>
			<point x="-66" y="-194"/>
			<point x="-83" y="-180"/>
			<point x="-112" y="-180" type="curve" smooth="yes"/>
			<point x="-134" y="-180"/>
			<point x="-156" y="-192"/>
			<point x="-160" y="-213" type="curve"/>
			<point x="-151" y="-246"/>
			<point x="-116" y="-260"/>
			<point x="-76" y="-260" type="curve" smooth="yes"/>
			<point x="-32" y="-260"/>
			<point x="5" y="-239"/>
			<point x="36" y="-206" type="curve" smooth="yes"/>
			<point x="89" y="-150"/>
			<point x="123" y="-58"/>
			<point x="136" y="24" type="curve" smooth="yes"/>
			<point x="208" y="482" type="line" smooth="yes"/>
			<point x="235" y="651"/>
			<point x="291" y="724"/>
			<point x="348" y="742" type="curve"/>
			<point x="348" y="744" type="line"/>
			<point x="329" y="744" type="line"/>
			<point x="372" y="696" type="line" smooth="yes"/>
			<point x="392" y="673"/>
			<point x="406" y="661"/>
			<point x="426" y="661" type="curve" smooth="yes"/>
			<point x="441" y="661"/>
			<point x="456" y="669"/>
			<point x="460" y="690" type="curve"/>
			<point x="455" y="728"/>
			<point x="407" y="755"/>
		</contour>
	</outline>
</glyph>
<glyph name="Schwa" format="2">
	<unicode hex="018F"/>
	<advance width="568"/>
	<outline>
		<contour>
			<point x="238" y="-16" type="curve" smooth="yes"/>
			<point x="450" y="-16"/>
			<point x="554" y="254"/>
			<point x="554" y="434" type="curve" smooth="yes"/>
			<point x="554" y="596"/>
			<point x="471" y="686"/>
			<point x="353" y="686" type="curve" smooth="yes"/>
			<point x="256" y="686"/>
			<point x="183" y="637"/>
			<point x="123" y="566" type="curve"/>
			<point x="134" y="556" type="line"/>
			<point x="186" y="606"/>
			<point x="257" y="640"/>
			<point x="328" y="640" type="curve" smooth="yes"/>
			<point x="417" y="640"/>
			<point x="490" y="576"/>
			<point x="490" y="431" type="curve" smooth="yes"/>
			<point x="490" y="287"/>
			<point x="418" y="6"/>
			<point x="240" y="6" type="curve" smooth="yes"/>
			<point x="138" y="6"/>
			<point x="102" y="91"/>
			<point x="102" y="183" type="curve" smooth="yes"/>
			<point x="102" y="233"/>
			<point x="111" y="286"/>
			<point x="125" y="329" type="curve"/>
			<point x="495" y="329" type="line"/>
			<point x="500" y="353" type="line"/>
			<point x="72" y="353" type="line"/>
			<point x="57" y="321"/>
			<point x="42" y="258"/>
			<point x="42" y="200" type="curve" smooth="yes"/>
			<point x="42" y="86"/>
			<point x="95" y="-16"/>
		</contour>
	</outline>
	<anchor name="aboveUC" x="352" y="690"/>
	<anchor name="belowLC" x="251" y="-20"/>
</glyph>
<glyph name="florin" format="2">
	<unicode hex="0192"/>
	<advance width="468"/>
	<outline>
		<contour>
			<point x="129" y="360" type="line"/>
			<point x="429" y="360" type="line"/>
			<point x="433" y="380" type="line"/>
			<point x="133" y="380" type="line"/>
		</contour>
		<contour>
			<point x="20" y="-100" type="curve" smooth="yes"/>
			<point x="59" y="-100"/>
			<point x="100" y="-86"/>
			<point x="139" y="-52" type="curve" smooth="yes"/>
			<point x="194" y="-2"/>
			<point x="229" y="61"/>
			<point x="259" y="206" type="curve" smooth="yes"/>
			<point x="290" y="354" type="line" smooth="yes"/>
			<point x="318" y="487"/>
			<point x="346" y="581"/>
			<point x="387" y="616" type="curve" smooth="yes"/>
			<point x="407" y="633"/>
			<point x="434" y="640"/>
			<point x="450" y="640" type="curve"/>
			<point x="423" y="640" type="line"/>
			<point x="400" y="640" type="line"/>
			<point x="433" y="611" type="line" smooth="yes"/>
			<point x="457" y="590"/>
			<point x="468" y="584"/>
			<point x="490" y="584" type="curve" smooth="yes"/>
			<point x="516" y="584"/>
			<point x="534" y="596"/>
			<point x="539" y="618" type="curve"/>
			<point x="534" y="645"/>
			<point x="504" y="660"/>
			<point x="469" y="660" type="curve" smooth="yes"/>
			<point x="430" y="660"/>
			<point x="389" y="646"/>
			<point x="350" y="612" type="curve" smooth="yes"/>
			<point x="295" y="562"/>
			<point x="260" y="499"/>
			<point x="230" y="354" type="curve" smooth="yes"/>
			<point x="199" y="206" type="line" smooth="yes"/>
			<point x="171" y="73"/>
			<point x="143" y="-21"/>
			<point x="102" y="-56" type="curve" smooth="yes"/>
			<point x="82" y="-73"/>
			<point x="55" y="-80"/>
			<point x="39" y="-80" type="curve"/>
			<point x="67" y="-80" type="line"/>
			<point x="89" y="-80" type="line"/>
			<point x="56" y="-51" type="line" smooth="yes"/>
			<point x="32" y="-30"/>
			<point x="21" y="-24"/>
			<point x="-1" y="-24" type="curve" smooth="yes"/>
			<point x="-27" y="-24"/>
			<point x="-45" y="-36"/>
			<point x="-50" y="-58" type="curve"/>
			<point x="-45" y="-85"/>
			<point x="-15" y="-100"/>
		</contour>
	</outline>
</glyph>
<glyph name="Uhorn" format="2">
	<unicode hex="01AF"/>
	<advance width="635"/>
	<outline>
		<contour>
			<point x="109" y="164" type="curve" smooth="yes"/>
			<point x="109" y="26"/>
			<point x="194" y="-16"/>
			<point x="289" y="-16" type="curve" smooth="yes"/>
			<point x="419" y="-16"/>
			<point x="500" y="49"/>
			<point x="535" y="241" type="curve" smooth="yes"/>
			<point x="614" y="670" type="line"/>
			<point x="587" y="670" type="line"/>
			<point x="510" y="251" type="line" smooth="yes"/>
			<point x="478" y="78"/>
			<point x="412" y="29"/>
			<point x="306" y="29" type="curve" smooth="yes"/>
			<point x="232" y="29"/>
			<point x="176" y="71"/>
			<point x="176" y="172" type="curve" smooth="yes"/>
			<point x="176" y="201"/>
			<point x="181" y="238"/>
			<point x="189" y="279" type="curve" smooth="yes"/>
			<point x="260" y="670" type="line"/>
			<point x="191" y="670" type="line"/>
			<point x="173" y="566"/>
			<point x="163" y="490"/>
			<point x="139" y="362" type="curve" smooth="yes"/>
			<point x="124" y="285" type="line" smooth="yes"/>
			<point x="115" y="239"/>
			<point x="109" y="198"/>
		</contour>
		<contour>
			<point x="604" y="644" type="line"/>
			<point x="701" y="648"/>
			<point x="734" y="686"/>
			<point x="734" y="765" type="curve" smooth="yes"/>
			<point x="734" y="776"/>
			<point x="732" y="786"/>
			<point x="730" y="794" type="curve"/>
			<point x="724" y="801"/>
			<point x="714" y="804"/>
			<point x="702" y="804" type="curve" smooth="yes"/>
			<point x="678" y="804"/>
			<point x="666" y="786"/>
			<point x="666" y="766" type="curve" smooth="yes"/>
			<point x="666" y="741"/>
			<point x="687" y="716"/>
			<point x="687" y="701" type="curve" smooth="yes"/>
			<point x="687" y="677"/>
			<point x="641" y="670"/>
			<point x="609" y="670" type="curve"/>
		</contour>
		<contour>
			<point x="117" y="654" type="line"/>
			<point x="211" y="642" type="line"/>
			<point x="233" y="642" type="line"/>
			<point x="339" y="654" type="line"/>
			<point x="342" y="670" type="line"/>
			<point x="120" y="670" type="line"/>
		</contour>
		<contour>
			<point x="500" y="654" type="line"/>
			<point x="589" y="644" type="line"/>
			<point x="602" y="644" type="line"/>
			<point x="607" y="670" type="line"/>
			<point x="503" y="670" type="line"/>
		</contour>
	</outline>
	<anchor name="aboveUC" x="417" y="690"/>
	<anchor name="belowLC" x="291" y="-20"/>
</glyph>
<glyph name="dotlessj" format="2">
	<unicode hex="0237"/>
	<advance width="246"/>
	<outline>
		<contour>
			<point x="-87" y="-259" type="line"/>
			<point x="-52" y="-252"/>
			<point x="-24" y="-232"/>
			<point x="2" y="-211" type="curve" smooth="yes"/>
			<point x="62" y="-160"/>
			<point x="96" y="-80"/>
			<point x="112" y="-2" type="curve" smooth="yes"/>
			<point x="208" y="456" type="line"/>
			<point x="200" y="464" type="line"/>
			<point x="52" y="422" type="line"/>
			<point x="50" y="408" type="line"/>
			<point x="149" y="392" type="line"/>
			<point x="135" y="403" type="line"/>
			<point x="54" y="20" type="line" smooth="yes"/>
			<point x="37" y="-59"/>
			<point x="20" y="-138"/>
			<point x="-26" y="-190" type="curve" smooth="yes"/>
			<point x="-45" y="-210"/>
			<point x="-63" y="-232"/>
			<point x="-92" y="-243" type="curve"/>
		</contour>
	</outline>
	<anchor name="aboveLC" x="170" y="472"/>
	<anchor name="belowLC" x="-18" y="-279"/>
</glyph>
